<svg width="830" height="140" viewBox="0 0 830 140" fill="none" xmlns="http://www.w3.org/2000/svg">
<g filter="url(#filter0_ddi)">
<rect x="15" y="10" width="800" height="100" rx="5" fill="#FAFAFA"/>
</g>
<path d="M56.375 80.625H67.625V92H56.375V80.625Z" fill="#676E74"/>
<path d="M62 80.625H67.625V92H62V80.625Z" fill="#333637"/>
<path d="M52.625 75H71.375V84.375H52.625V75Z" fill="#4C545A"/>
<path d="M62 75H71.375V84.375H62V75Z" fill="#52585C"/>
<path d="M75.012 64.725C72.687 66.638 71.375 69.337 71.375 72.15V75H52.625V72.15C52.625 69.3 51.387 66.638 49.325 65.025C44.263 61.087 41.375 55.163 41.375 48.75C41.3706 45.6823 42.0519 42.6524 43.3691 39.8818C44.6863 37.1113 46.606 34.6702 48.988 32.737C52.7 29.737 57.238 28 62 28C63.462 28 64.962 28.15 66.425 28.45C74.525 30.138 80.9 36.9 82.325 45.113C83.6 52.613 80.9 59.963 75.012 64.725Z" fill="#FFDA2D"/>
<path d="M75.012 64.725C72.687 66.638 71.375 69.337 71.375 72.15V75H62V28C63.462 28 64.962 28.15 66.425 28.45C74.525 30.138 80.9 36.9 82.325 45.113C83.6 52.613 80.9 59.963 75.012 64.725Z" fill="#FDBF00"/>
<path d="M48.875 73.125H75.125V76.875H48.875V73.125Z" fill="#676E74"/>
<path d="M69.956 38.143L72.607 40.794L68.628 44.772L65.977 42.121L69.956 38.143Z" fill="#FF9100"/>
<path d="M55.372 52.727L58.023 55.378L54.044 59.357L51.393 56.706L55.372 52.727ZM60.125 56.25H63.875V61.875H60.125V56.25Z" fill="#FDBF00"/>
<path d="M68.628 52.727L72.607 56.706L69.956 59.357L65.977 55.378L68.628 52.727ZM69.5 46.875H75.125V50.625H69.5V46.875Z" fill="#FF9100"/>
<path d="M54.044 38.143L58.023 42.122L55.372 44.772L51.393 40.794L54.044 38.143ZM48.875 46.875H54.5V50.625H48.875V46.875ZM60.125 35.625H63.875V41.25H60.125V35.625Z" fill="#FDBF00"/>
<path d="M30 46.875H37.625V50.625H30V46.875ZM36.585 42.81L30.835 39.06L32.915 35.94L38.665 39.69L36.585 42.81ZM32.915 61.56L30.835 58.44L36.585 54.69L38.665 57.81L32.915 61.56Z" fill="#FFDA2D"/>
<path d="M86.375 46.875H94V50.625H86.375V46.875ZM91.085 61.56L85.335 57.81L87.415 54.69L93.165 58.44L91.085 61.56ZM87.415 42.81L85.335 39.69L91.085 35.94L93.165 39.06L87.415 42.81Z" fill="#FDBF00"/>
<path d="M62 35.625H63.875V41.25H62V35.625ZM62 56.25H63.875V61.875H62V56.25Z" fill="#FF9100"/>
<path d="M62 73.125H75.125V76.875H62V73.125Z" fill="#333637"/>
<path d="M62 39.375C56.825 39.375 52.625 43.575 52.625 48.75C52.625 53.925 56.825 58.125 62 58.125C67.175 58.125 71.375 53.925 71.375 48.75C71.375 43.575 67.175 39.375 62 39.375Z" fill="#FDBF00"/>
<path d="M62 58.125V39.375C67.175 39.375 71.375 43.575 71.375 48.75C71.375 53.925 67.175 58.125 62 58.125Z" fill="#FF9100"/>
<path d="M60.125 46.875H63.875V50.625H60.125V46.875Z" fill="#FFDA2D"/>
<path d="M62 46.875H63.875V50.625H62V46.875Z" fill="#FDBF00"/>
<path d="M152.84 41.6C152.84 39.952 153.208 38.48 153.944 37.184C154.696 35.872 155.712 34.856 156.992 34.136C158.288 33.4 159.736 33.032 161.336 33.032C163.208 33.032 164.848 33.512 166.256 34.472C167.664 35.432 168.648 36.76 169.208 38.456H165.344C164.96 37.656 164.416 37.056 163.712 36.656C163.024 36.256 162.224 36.056 161.312 36.056C160.336 36.056 159.464 36.288 158.696 36.752C157.944 37.2 157.352 37.84 156.92 38.672C156.504 39.504 156.296 40.48 156.296 41.6C156.296 42.704 156.504 43.68 156.92 44.528C157.352 45.36 157.944 46.008 158.696 46.472C159.464 46.92 160.336 47.144 161.312 47.144C162.224 47.144 163.024 46.944 163.712 46.544C164.416 46.128 164.96 45.52 165.344 44.72H169.208C168.648 46.432 167.664 47.768 166.256 48.728C164.864 49.672 163.224 50.144 161.336 50.144C159.736 50.144 158.288 49.784 156.992 49.064C155.712 48.328 154.696 47.312 153.944 46.016C153.208 44.72 152.84 43.248 152.84 41.6ZM173.782 35.12C173.19 35.12 172.694 34.936 172.294 34.568C171.91 34.184 171.718 33.712 171.718 33.152C171.718 32.592 171.91 32.128 172.294 31.76C172.694 31.376 173.19 31.184 173.782 31.184C174.374 31.184 174.862 31.376 175.246 31.76C175.646 32.128 175.846 32.592 175.846 33.152C175.846 33.712 175.646 34.184 175.246 34.568C174.862 34.936 174.374 35.12 173.782 35.12ZM175.438 36.704V50H172.078V36.704H175.438ZM191.118 43.064C191.118 43.544 191.086 43.976 191.022 44.36H181.302C181.382 45.32 181.718 46.072 182.31 46.616C182.902 47.16 183.63 47.432 184.494 47.432C185.742 47.432 186.63 46.896 187.158 45.824H190.782C190.398 47.104 189.662 48.16 188.574 48.992C187.486 49.808 186.15 50.216 184.566 50.216C183.286 50.216 182.134 49.936 181.11 49.376C180.102 48.8 179.31 47.992 178.734 46.952C178.174 45.912 177.894 44.712 177.894 43.352C177.894 41.976 178.174 40.768 178.734 39.728C179.294 38.688 180.078 37.888 181.086 37.328C182.094 36.768 183.254 36.488 184.566 36.488C185.83 36.488 186.958 36.76 187.95 37.304C188.958 37.848 189.734 38.624 190.278 39.632C190.838 40.624 191.118 41.768 191.118 43.064ZM187.638 42.104C187.622 41.24 187.31 40.552 186.702 40.04C186.094 39.512 185.35 39.248 184.47 39.248C183.638 39.248 182.934 39.504 182.358 40.016C181.798 40.512 181.454 41.208 181.326 42.104H187.638ZM184.518 33.704L180.942 35.72V33.272L184.518 31.328L188.07 33.272V35.72L184.518 33.704ZM200.938 36.512C202.522 36.512 203.802 37.016 204.778 38.024C205.754 39.016 206.242 40.408 206.242 42.2V50H202.882V42.656C202.882 41.6 202.618 40.792 202.09 40.232C201.562 39.656 200.842 39.368 199.93 39.368C199.002 39.368 198.266 39.656 197.722 40.232C197.194 40.792 196.93 41.6 196.93 42.656V50H193.57V36.704H196.93V38.36C197.378 37.784 197.946 37.336 198.634 37.016C199.338 36.68 200.106 36.512 200.938 36.512ZM208.573 43.352C208.573 41.976 208.853 40.776 209.413 39.752C209.973 38.712 210.749 37.912 211.741 37.352C212.733 36.776 213.869 36.488 215.149 36.488C216.797 36.488 218.157 36.904 219.229 37.736C220.317 38.552 221.045 39.704 221.413 41.192H217.789C217.597 40.616 217.269 40.168 216.805 39.848C216.357 39.512 215.797 39.344 215.125 39.344C214.165 39.344 213.405 39.696 212.845 40.4C212.285 41.088 212.005 42.072 212.005 43.352C212.005 44.616 212.285 45.6 212.845 46.304C213.405 46.992 214.165 47.336 215.125 47.336C216.485 47.336 217.373 46.728 217.789 45.512H221.413C221.045 46.952 220.317 48.096 219.229 48.944C218.141 49.792 216.781 50.216 215.149 50.216C213.869 50.216 212.733 49.936 211.741 49.376C210.749 48.8 209.973 48 209.413 46.976C208.853 45.936 208.573 44.728 208.573 43.352ZM225.579 35.12C224.987 35.12 224.491 34.936 224.091 34.568C223.707 34.184 223.515 33.712 223.515 33.152C223.515 32.592 223.707 32.128 224.091 31.76C224.491 31.376 224.987 31.184 225.579 31.184C226.171 31.184 226.659 31.376 227.043 31.76C227.443 32.128 227.643 32.592 227.643 33.152C227.643 33.712 227.443 34.184 227.043 34.568C226.659 34.936 226.171 35.12 225.579 35.12ZM227.235 36.704V50H223.875V36.704H227.235ZM229.69 43.304C229.69 41.96 229.954 40.768 230.482 39.728C231.026 38.688 231.754 37.888 232.666 37.328C233.594 36.768 234.626 36.488 235.762 36.488C236.754 36.488 237.618 36.688 238.354 37.088C239.106 37.488 239.706 37.992 240.154 38.6V36.704H243.538V50H240.154V48.056C239.722 48.68 239.122 49.2 238.354 49.616C237.602 50.016 236.73 50.216 235.738 50.216C234.618 50.216 233.594 49.928 232.666 49.352C231.754 48.776 231.026 47.968 230.482 46.928C229.954 45.872 229.69 44.664 229.69 43.304ZM240.154 43.352C240.154 42.536 239.994 41.84 239.674 41.264C239.354 40.672 238.922 40.224 238.378 39.92C237.834 39.6 237.25 39.44 236.626 39.44C236.002 39.44 235.426 39.592 234.898 39.896C234.37 40.2 233.938 40.648 233.602 41.24C233.282 41.816 233.122 42.504 233.122 43.304C233.122 44.104 233.282 44.808 233.602 45.416C233.938 46.008 234.37 46.464 234.898 46.784C235.442 47.104 236.018 47.264 236.626 47.264C237.25 47.264 237.834 47.112 238.378 46.808C238.922 46.488 239.354 46.04 239.674 45.464C239.994 44.872 240.154 44.168 240.154 43.352ZM251.675 43.304C251.675 41.96 251.939 40.768 252.467 39.728C253.011 38.688 253.747 37.888 254.675 37.328C255.603 36.768 256.635 36.488 257.771 36.488C258.635 36.488 259.459 36.68 260.243 37.064C261.027 37.432 261.651 37.928 262.115 38.552V32.24H265.523V50H262.115V48.032C261.699 48.688 261.115 49.216 260.363 49.616C259.611 50.016 258.739 50.216 257.747 50.216C256.627 50.216 255.603 49.928 254.675 49.352C253.747 48.776 253.011 47.968 252.467 46.928C251.939 45.872 251.675 44.664 251.675 43.304ZM262.139 43.352C262.139 42.536 261.979 41.84 261.659 41.264C261.339 40.672 260.907 40.224 260.363 39.92C259.819 39.6 259.235 39.44 258.611 39.44C257.987 39.44 257.411 39.592 256.883 39.896C256.355 40.2 255.923 40.648 255.587 41.24C255.267 41.816 255.107 42.504 255.107 43.304C255.107 44.104 255.267 44.808 255.587 45.416C255.923 46.008 256.355 46.464 256.883 46.784C257.427 47.104 258.003 47.264 258.611 47.264C259.235 47.264 259.819 47.112 260.363 46.808C260.907 46.488 261.339 46.04 261.659 45.464C261.979 44.872 262.139 44.168 262.139 43.352ZM267.94 43.304C267.94 41.96 268.204 40.768 268.732 39.728C269.276 38.688 270.004 37.888 270.916 37.328C271.844 36.768 272.876 36.488 274.012 36.488C275.004 36.488 275.868 36.688 276.604 37.088C277.356 37.488 277.956 37.992 278.404 38.6V36.704H281.788V50H278.404V48.056C277.972 48.68 277.372 49.2 276.604 49.616C275.852 50.016 274.98 50.216 273.988 50.216C272.868 50.216 271.844 49.928 270.916 49.352C270.004 48.776 269.276 47.968 268.732 46.928C268.204 45.872 267.94 44.664 267.94 43.304ZM278.404 43.352C278.404 42.536 278.244 41.84 277.924 41.264C277.604 40.672 277.172 40.224 276.628 39.92C276.084 39.6 275.5 39.44 274.876 39.44C274.252 39.44 273.676 39.592 273.148 39.896C272.62 40.2 272.188 40.648 271.852 41.24C271.532 41.816 271.372 42.504 271.372 43.304C271.372 44.104 271.532 44.808 271.852 45.416C272.188 46.008 272.62 46.464 273.148 46.784C273.692 47.104 274.268 47.264 274.876 47.264C275.5 47.264 276.084 47.112 276.628 46.808C277.172 46.488 277.604 46.04 277.924 45.464C278.244 44.872 278.404 44.168 278.404 43.352ZM289.925 43.352C289.925 41.976 290.205 40.776 290.765 39.752C291.325 38.712 292.101 37.912 293.093 37.352C294.085 36.776 295.221 36.488 296.501 36.488C298.149 36.488 299.509 36.904 300.581 37.736C301.669 38.552 302.397 39.704 302.765 41.192H299.141C298.949 40.616 298.621 40.168 298.157 39.848C297.709 39.512 297.149 39.344 296.477 39.344C295.517 39.344 294.757 39.696 294.197 40.4C293.637 41.088 293.357 42.072 293.357 43.352C293.357 44.616 293.637 45.6 294.197 46.304C294.757 46.992 295.517 47.336 296.477 47.336C297.837 47.336 298.725 46.728 299.141 45.512H302.765C302.397 46.952 301.669 48.096 300.581 48.944C299.493 49.792 298.133 50.216 296.501 50.216C295.221 50.216 294.085 49.936 293.093 49.376C292.101 48.8 291.325 48 290.765 46.976C290.205 45.936 289.925 44.728 289.925 43.352ZM311.13 50.216C309.85 50.216 308.698 49.936 307.674 49.376C306.65 48.8 305.842 47.992 305.25 46.952C304.674 45.912 304.386 44.712 304.386 43.352C304.386 41.992 304.682 40.792 305.274 39.752C305.882 38.712 306.706 37.912 307.746 37.352C308.786 36.776 309.946 36.488 311.226 36.488C312.506 36.488 313.666 36.776 314.706 37.352C315.746 37.912 316.562 38.712 317.154 39.752C317.762 40.792 318.066 41.992 318.066 43.352C318.066 44.712 317.754 45.912 317.13 46.952C316.522 47.992 315.69 48.8 314.634 49.376C313.594 49.936 312.426 50.216 311.13 50.216ZM311.13 47.288C311.738 47.288 312.306 47.144 312.834 46.856C313.378 46.552 313.81 46.104 314.13 45.512C314.45 44.92 314.61 44.2 314.61 43.352C314.61 42.088 314.274 41.12 313.602 40.448C312.946 39.76 312.138 39.416 311.178 39.416C310.218 39.416 309.41 39.76 308.754 40.448C308.114 41.12 307.794 42.088 307.794 43.352C307.794 44.616 308.106 45.592 308.73 46.28C309.37 46.952 310.17 47.288 311.13 47.288ZM337.043 36.512C338.675 36.512 339.987 37.016 340.979 38.024C341.987 39.016 342.491 40.408 342.491 42.2V50H339.131V42.656C339.131 41.616 338.867 40.824 338.339 40.28C337.811 39.72 337.091 39.44 336.179 39.44C335.267 39.44 334.539 39.72 333.995 40.28C333.467 40.824 333.203 41.616 333.203 42.656V50H329.843V42.656C329.843 41.616 329.579 40.824 329.051 40.28C328.523 39.72 327.803 39.44 326.891 39.44C325.963 39.44 325.227 39.72 324.683 40.28C324.155 40.824 323.891 41.616 323.891 42.656V50H320.531V36.704H323.891V38.312C324.323 37.752 324.875 37.312 325.547 36.992C326.235 36.672 326.987 36.512 327.803 36.512C328.843 36.512 329.771 36.736 330.587 37.184C331.403 37.616 332.035 38.24 332.483 39.056C332.915 38.288 333.539 37.672 334.355 37.208C335.187 36.744 336.083 36.512 337.043 36.512ZM349.039 38.624C349.471 38.016 350.063 37.512 350.815 37.112C351.583 36.696 352.455 36.488 353.431 36.488C354.567 36.488 355.591 36.768 356.503 37.328C357.431 37.888 358.159 38.688 358.687 39.728C359.231 40.752 359.503 41.944 359.503 43.304C359.503 44.664 359.231 45.872 358.687 46.928C358.159 47.968 357.431 48.776 356.503 49.352C355.591 49.928 354.567 50.216 353.431 50.216C352.455 50.216 351.591 50.016 350.839 49.616C350.103 49.216 349.503 48.712 349.039 48.104V56.336H345.679V36.704H349.039V38.624ZM356.071 43.304C356.071 42.504 355.903 41.816 355.567 41.24C355.247 40.648 354.815 40.2 354.271 39.896C353.743 39.592 353.167 39.44 352.543 39.44C351.935 39.44 351.359 39.6 350.815 39.92C350.287 40.224 349.855 40.672 349.519 41.264C349.199 41.856 349.039 42.552 349.039 43.352C349.039 44.152 349.199 44.848 349.519 45.44C349.855 46.032 350.287 46.488 350.815 46.808C351.359 47.112 351.935 47.264 352.543 47.264C353.167 47.264 353.743 47.104 354.271 46.784C354.815 46.464 355.247 46.008 355.567 45.416C355.903 44.824 356.071 44.12 356.071 43.304ZM374.497 36.704V50H371.113V48.32C370.681 48.896 370.113 49.352 369.409 49.688C368.721 50.008 367.969 50.168 367.153 50.168C366.113 50.168 365.193 49.952 364.393 49.52C363.593 49.072 362.961 48.424 362.497 47.576C362.049 46.712 361.825 45.688 361.825 44.504V36.704H365.185V44.024C365.185 45.08 365.449 45.896 365.977 46.472C366.505 47.032 367.225 47.312 368.137 47.312C369.065 47.312 369.793 47.032 370.321 46.472C370.849 45.896 371.113 45.08 371.113 44.024V36.704H374.497ZM381.724 39.464V45.896C381.724 46.344 381.828 46.672 382.036 46.88C382.26 47.072 382.628 47.168 383.14 47.168H384.7V50H382.588C379.756 50 378.34 48.624 378.34 45.872V39.464H376.756V36.704H378.34V33.416H381.724V36.704H384.7V39.464H381.724ZM386.253 43.304C386.253 41.96 386.517 40.768 387.045 39.728C387.589 38.688 388.317 37.888 389.229 37.328C390.157 36.768 391.189 36.488 392.325 36.488C393.317 36.488 394.181 36.688 394.917 37.088C395.669 37.488 396.269 37.992 396.717 38.6V36.704H400.101V50H396.717V48.056C396.285 48.68 395.685 49.2 394.917 49.616C394.165 50.016 393.293 50.216 392.301 50.216C391.181 50.216 390.157 49.928 389.229 49.352C388.317 48.776 387.589 47.968 387.045 46.928C386.517 45.872 386.253 44.664 386.253 43.304ZM396.717 43.352C396.717 42.536 396.557 41.84 396.237 41.264C395.917 40.672 395.485 40.224 394.941 39.92C394.397 39.6 393.813 39.44 393.189 39.44C392.565 39.44 391.989 39.592 391.461 39.896C390.933 40.2 390.501 40.648 390.165 41.24C389.845 41.816 389.685 42.504 389.685 43.304C389.685 44.104 389.845 44.808 390.165 45.416C390.501 46.008 390.933 46.464 391.461 46.784C392.005 47.104 392.581 47.264 393.189 47.264C393.813 47.264 394.397 47.112 394.941 46.808C395.485 46.488 395.917 46.04 396.237 45.464C396.557 44.872 396.717 44.168 396.717 43.352ZM409.071 47.336C410.431 47.336 411.319 46.728 411.735 45.512H415.359C415.023 46.808 414.399 47.864 413.487 48.68C412.591 49.496 411.463 49.984 410.103 50.144V51.08C410.983 51.08 411.719 51.304 412.311 51.752C412.919 52.2 413.223 52.848 413.223 53.696C413.223 54.56 412.911 55.224 412.287 55.688C411.679 56.152 410.927 56.384 410.031 56.384H406.623V54.416H409.479C409.863 54.416 410.151 54.36 410.343 54.248C410.551 54.136 410.655 53.936 410.655 53.648C410.655 53.36 410.551 53.16 410.343 53.048C410.151 52.952 409.863 52.904 409.479 52.904H407.991V50.144C406.903 49.984 405.943 49.608 405.111 49.016C404.295 48.408 403.655 47.624 403.191 46.664C402.743 45.688 402.519 44.584 402.519 43.352C402.519 41.976 402.799 40.776 403.359 39.752C403.919 38.712 404.695 37.912 405.687 37.352C406.679 36.776 407.815 36.488 409.095 36.488C410.743 36.488 412.103 36.904 413.175 37.736C414.263 38.552 414.991 39.704 415.359 41.192H411.735C411.543 40.616 411.215 40.168 410.751 39.848C410.303 39.512 409.743 39.344 409.071 39.344C408.111 39.344 407.351 39.696 406.791 40.4C406.231 41.088 405.951 42.072 405.951 43.352C405.951 44.616 406.231 45.6 406.791 46.304C407.351 46.992 408.111 47.336 409.071 47.336ZM416.956 43.304C416.956 41.96 417.22 40.768 417.748 39.728C418.292 38.688 419.02 37.888 419.932 37.328C420.86 36.768 421.892 36.488 423.028 36.488C424.02 36.488 424.884 36.688 425.62 37.088C426.372 37.488 426.972 37.992 427.42 38.6V36.704H430.804V50H427.42V48.056C426.988 48.68 426.388 49.2 425.62 49.616C424.868 50.016 423.996 50.216 423.004 50.216C421.884 50.216 420.86 49.928 419.932 49.352C419.02 48.776 418.292 47.968 417.748 46.928C417.22 45.872 416.956 44.664 416.956 43.304ZM427.42 43.352C427.42 42.536 427.26 41.84 426.94 41.264C426.62 40.672 426.188 40.224 425.644 39.92C425.1 39.6 424.516 39.44 423.892 39.44C423.268 39.44 422.692 39.592 422.164 39.896C421.636 40.2 421.204 40.648 420.868 41.24C420.548 41.816 420.388 42.504 420.388 43.304C420.388 44.104 420.548 44.808 420.868 45.416C421.204 46.008 421.636 46.464 422.164 46.784C422.708 47.104 423.284 47.264 423.892 47.264C424.516 47.264 425.1 47.112 425.644 46.808C426.188 46.488 426.62 46.04 426.94 45.464C427.26 44.872 427.42 44.168 427.42 43.352ZM420.028 35.432C420.172 34.376 420.5 33.592 421.012 33.08C421.54 32.552 422.204 32.288 423.004 32.288C423.34 32.288 423.636 32.344 423.892 32.456C424.148 32.552 424.436 32.696 424.756 32.888C425.236 33.192 425.636 33.344 425.956 33.344C426.548 33.344 426.892 33 426.988 32.312H428.788C428.644 33.368 428.308 34.16 427.78 34.688C427.268 35.2 426.612 35.456 425.812 35.456C425.476 35.456 425.18 35.408 424.924 35.312C424.668 35.2 424.38 35.048 424.06 34.856C423.596 34.536 423.196 34.376 422.86 34.376C422.268 34.376 421.916 34.728 421.804 35.432H420.028ZM439.99 50.216C438.71 50.216 437.558 49.936 436.534 49.376C435.51 48.8 434.702 47.992 434.11 46.952C433.534 45.912 433.246 44.712 433.246 43.352C433.246 41.992 433.542 40.792 434.134 39.752C434.742 38.712 435.566 37.912 436.606 37.352C437.646 36.776 438.806 36.488 440.086 36.488C441.366 36.488 442.526 36.776 443.566 37.352C444.606 37.912 445.422 38.712 446.014 39.752C446.622 40.792 446.926 41.992 446.926 43.352C446.926 44.712 446.614 45.912 445.99 46.952C445.382 47.992 444.55 48.8 443.494 49.376C442.454 49.936 441.286 50.216 439.99 50.216ZM439.99 47.288C440.598 47.288 441.166 47.144 441.694 46.856C442.238 46.552 442.67 46.104 442.99 45.512C443.31 44.92 443.47 44.2 443.47 43.352C443.47 42.088 443.134 41.12 442.462 40.448C441.806 39.76 440.998 39.416 440.038 39.416C439.078 39.416 438.27 39.76 437.614 40.448C436.974 41.12 436.654 42.088 436.654 43.352C436.654 44.616 436.966 45.592 437.59 46.28C438.23 46.952 439.03 47.288 439.99 47.288Z" fill="#4C4E61"/>
<path d="M154.352 66.278V69.54H157.908V70.59H154.352V73.95H158.328V75H153.078V65.228H158.328V66.278H154.352ZM164.26 75L162.44 72.144L160.69 75H159.36L161.838 71.192L159.36 67.328H160.802L162.622 70.17L164.358 67.328H165.688L163.224 71.122L165.702 75H164.26ZM173.955 70.87C173.955 71.1127 173.941 71.3693 173.913 71.64H167.781C167.828 72.396 168.084 72.9887 168.551 73.418C169.027 73.838 169.601 74.048 170.273 74.048C170.824 74.048 171.281 73.922 171.645 73.67C172.018 73.4087 172.28 73.0633 172.429 72.634H173.801C173.596 73.3713 173.185 73.9733 172.569 74.44C171.953 74.8973 171.188 75.126 170.273 75.126C169.545 75.126 168.892 74.9627 168.313 74.636C167.744 74.3093 167.296 73.8473 166.969 73.25C166.642 72.6433 166.479 71.9433 166.479 71.15C166.479 70.3567 166.638 69.6613 166.955 69.064C167.272 68.4667 167.716 68.0093 168.285 67.692C168.864 67.3653 169.526 67.202 170.273 67.202C171.001 67.202 171.645 67.3607 172.205 67.678C172.765 67.9953 173.194 68.434 173.493 68.994C173.801 69.5447 173.955 70.17 173.955 70.87ZM172.639 70.604C172.639 70.1187 172.532 69.7033 172.317 69.358C172.102 69.0033 171.808 68.7373 171.435 68.56C171.071 68.3733 170.665 68.28 170.217 68.28C169.573 68.28 169.022 68.4853 168.565 68.896C168.117 69.3067 167.86 69.876 167.795 70.604H172.639ZM176.911 68.574C177.135 68.1353 177.452 67.7947 177.863 67.552C178.283 67.3093 178.791 67.188 179.389 67.188V68.504H179.053C177.625 68.504 176.911 69.2787 176.911 70.828V75H175.637V67.328H176.911V68.574ZM180.383 71.15C180.383 70.3567 180.542 69.666 180.859 69.078C181.177 68.4807 181.615 68.0187 182.175 67.692C182.745 67.3653 183.393 67.202 184.121 67.202C185.064 67.202 185.839 67.4307 186.445 67.888C187.061 68.3453 187.467 68.98 187.663 69.792H186.291C186.161 69.3253 185.904 68.9567 185.521 68.686C185.148 68.4153 184.681 68.28 184.121 68.28C183.393 68.28 182.805 68.532 182.357 69.036C181.909 69.5307 181.685 70.2353 181.685 71.15C181.685 72.074 181.909 72.788 182.357 73.292C182.805 73.796 183.393 74.048 184.121 74.048C184.681 74.048 185.148 73.9173 185.521 73.656C185.895 73.3947 186.151 73.0213 186.291 72.536H187.663C187.458 73.32 187.047 73.95 186.431 74.426C185.815 74.8927 185.045 75.126 184.121 75.126C183.393 75.126 182.745 74.9627 182.175 74.636C181.615 74.3093 181.177 73.8473 180.859 73.25C180.542 72.6527 180.383 71.9527 180.383 71.15ZM190.637 67.328V75H189.363V67.328H190.637ZM191.365 65.158L188.383 66.754V65.802L191.365 64.052V65.158ZM192.332 71.15C192.332 70.3567 192.491 69.666 192.808 69.078C193.126 68.4807 193.564 68.0187 194.124 67.692C194.694 67.3653 195.342 67.202 196.07 67.202C197.013 67.202 197.788 67.4307 198.394 67.888C199.01 68.3453 199.416 68.98 199.612 69.792H198.24C198.11 69.3253 197.853 68.9567 197.47 68.686C197.097 68.4153 196.63 68.28 196.07 68.28C195.342 68.28 194.754 68.532 194.306 69.036C193.858 69.5307 193.634 70.2353 193.634 71.15C193.634 72.074 193.858 72.788 194.306 73.292C194.754 73.796 195.342 74.048 196.07 74.048C196.63 74.048 197.097 73.9173 197.47 73.656C197.844 73.3947 198.1 73.0213 198.24 72.536H199.612C199.407 73.32 198.996 73.95 198.38 74.426C197.764 74.8927 196.994 75.126 196.07 75.126C195.342 75.126 194.694 74.9627 194.124 74.636C193.564 74.3093 193.126 73.8473 192.808 73.25C192.491 72.6527 192.332 71.9527 192.332 71.15ZM201.97 66.082C201.728 66.082 201.522 65.998 201.354 65.83C201.186 65.662 201.102 65.4567 201.102 65.214C201.102 64.9713 201.186 64.766 201.354 64.598C201.522 64.43 201.728 64.346 201.97 64.346C202.204 64.346 202.4 64.43 202.558 64.598C202.726 64.766 202.81 64.9713 202.81 65.214C202.81 65.4567 202.726 65.662 202.558 65.83C202.4 65.998 202.204 66.082 201.97 66.082ZM202.586 67.328V75H201.312V67.328H202.586ZM208.104 75.126C207.385 75.126 206.732 74.9627 206.144 74.636C205.565 74.3093 205.108 73.8473 204.772 73.25C204.445 72.6433 204.282 71.9433 204.282 71.15C204.282 70.366 204.45 69.6753 204.786 69.078C205.131 68.4713 205.598 68.0093 206.186 67.692C206.774 67.3653 207.432 67.202 208.16 67.202C208.888 67.202 209.546 67.3653 210.134 67.692C210.722 68.0093 211.184 68.4667 211.52 69.064C211.865 69.6613 212.038 70.3567 212.038 71.15C212.038 71.9433 211.86 72.6433 211.506 73.25C211.16 73.8473 210.689 74.3093 210.092 74.636C209.494 74.9627 208.832 75.126 208.104 75.126ZM208.104 74.006C208.561 74.006 208.99 73.8987 209.392 73.684C209.793 73.4693 210.115 73.1473 210.358 72.718C210.61 72.2887 210.736 71.766 210.736 71.15C210.736 70.534 210.614 70.0113 210.372 69.582C210.129 69.1527 209.812 68.8353 209.42 68.63C209.028 68.4153 208.603 68.308 208.146 68.308C207.679 68.308 207.25 68.4153 206.858 68.63C206.475 68.8353 206.167 69.1527 205.934 69.582C205.7 70.0113 205.584 70.534 205.584 71.15C205.584 71.7753 205.696 72.3027 205.92 72.732C206.153 73.1613 206.461 73.4833 206.844 73.698C207.226 73.9033 207.646 74.006 208.104 74.006ZM216.429 75.126C215.841 75.126 215.313 75.028 214.847 74.832C214.38 74.6267 214.011 74.3467 213.741 73.992C213.47 73.628 213.321 73.2127 213.293 72.746H214.609C214.646 73.1287 214.823 73.4413 215.141 73.684C215.467 73.9267 215.892 74.048 216.415 74.048C216.9 74.048 217.283 73.9407 217.563 73.726C217.843 73.5113 217.983 73.2407 217.983 72.914C217.983 72.578 217.833 72.3307 217.535 72.172C217.236 72.004 216.774 71.8407 216.149 71.682C215.579 71.5327 215.113 71.3833 214.749 71.234C214.394 71.0753 214.086 70.8467 213.825 70.548C213.573 70.24 213.447 69.8387 213.447 69.344C213.447 68.952 213.563 68.5927 213.797 68.266C214.03 67.9393 214.361 67.6827 214.791 67.496C215.22 67.3 215.71 67.202 216.261 67.202C217.11 67.202 217.796 67.4167 218.319 67.846C218.841 68.2753 219.121 68.8633 219.159 69.61H217.885C217.857 69.2087 217.693 68.8867 217.395 68.644C217.105 68.4013 216.713 68.28 216.219 68.28C215.761 68.28 215.397 68.378 215.127 68.574C214.856 68.77 214.721 69.0267 214.721 69.344C214.721 69.596 214.8 69.806 214.959 69.974C215.127 70.1327 215.332 70.2633 215.575 70.366C215.827 70.4593 216.172 70.5667 216.611 70.688C217.161 70.8373 217.609 70.9867 217.955 71.136C218.3 71.276 218.594 71.4907 218.837 71.78C219.089 72.0693 219.219 72.4473 219.229 72.914C219.229 73.334 219.112 73.712 218.879 74.048C218.645 74.384 218.314 74.65 217.885 74.846C217.465 75.0327 216.979 75.126 216.429 75.126ZM226.034 68.574C226.258 68.1353 226.575 67.7947 226.986 67.552C227.406 67.3093 227.914 67.188 228.512 67.188V68.504H228.176C226.748 68.504 226.034 69.2787 226.034 70.828V75H224.76V67.328H226.034V68.574ZM236.982 70.87C236.982 71.1127 236.968 71.3693 236.94 71.64H230.808C230.855 72.396 231.112 72.9887 231.578 73.418C232.054 73.838 232.628 74.048 233.3 74.048C233.851 74.048 234.308 73.922 234.672 73.67C235.046 73.4087 235.307 73.0633 235.456 72.634H236.828C236.623 73.3713 236.212 73.9733 235.596 74.44C234.98 74.8973 234.215 75.126 233.3 75.126C232.572 75.126 231.919 74.9627 231.34 74.636C230.771 74.3093 230.323 73.8473 229.996 73.25C229.67 72.6433 229.506 71.9433 229.506 71.15C229.506 70.3567 229.665 69.6613 229.982 69.064C230.3 68.4667 230.743 68.0093 231.312 67.692C231.891 67.3653 232.554 67.202 233.3 67.202C234.028 67.202 234.672 67.3607 235.232 67.678C235.792 67.9953 236.222 68.434 236.52 68.994C236.828 69.5447 236.982 70.17 236.982 70.87ZM235.666 70.604C235.666 70.1187 235.559 69.7033 235.344 69.358C235.13 69.0033 234.836 68.7373 234.462 68.56C234.098 68.3733 233.692 68.28 233.244 68.28C232.6 68.28 232.05 68.4853 231.592 68.896C231.144 69.3067 230.888 69.876 230.822 70.604H235.666ZM241.38 75.126C240.792 75.126 240.265 75.028 239.798 74.832C239.331 74.6267 238.963 74.3467 238.692 73.992C238.421 73.628 238.272 73.2127 238.244 72.746H239.56C239.597 73.1287 239.775 73.4413 240.092 73.684C240.419 73.9267 240.843 74.048 241.366 74.048C241.851 74.048 242.234 73.9407 242.514 73.726C242.794 73.5113 242.934 73.2407 242.934 72.914C242.934 72.578 242.785 72.3307 242.486 72.172C242.187 72.004 241.725 71.8407 241.1 71.682C240.531 71.5327 240.064 71.3833 239.7 71.234C239.345 71.0753 239.037 70.8467 238.776 70.548C238.524 70.24 238.398 69.8387 238.398 69.344C238.398 68.952 238.515 68.5927 238.748 68.266C238.981 67.9393 239.313 67.6827 239.742 67.496C240.171 67.3 240.661 67.202 241.212 67.202C242.061 67.202 242.747 67.4167 243.27 67.846C243.793 68.2753 244.073 68.8633 244.11 69.61H242.836C242.808 69.2087 242.645 68.8867 242.346 68.644C242.057 68.4013 241.665 68.28 241.17 68.28C240.713 68.28 240.349 68.378 240.078 68.574C239.807 68.77 239.672 69.0267 239.672 69.344C239.672 69.596 239.751 69.806 239.91 69.974C240.078 70.1327 240.283 70.2633 240.526 70.366C240.778 70.4593 241.123 70.5667 241.562 70.688C242.113 70.8373 242.561 70.9867 242.906 71.136C243.251 71.276 243.545 71.4907 243.788 71.78C244.04 72.0693 244.171 72.4473 244.18 72.914C244.18 73.334 244.063 73.712 243.83 74.048C243.597 74.384 243.265 74.65 242.836 74.846C242.416 75.0327 241.931 75.126 241.38 75.126ZM249.324 75.126C248.606 75.126 247.952 74.9627 247.364 74.636C246.786 74.3093 246.328 73.8473 245.992 73.25C245.666 72.6433 245.502 71.9433 245.502 71.15C245.502 70.366 245.67 69.6753 246.006 69.078C246.352 68.4713 246.818 68.0093 247.406 67.692C247.994 67.3653 248.652 67.202 249.38 67.202C250.108 67.202 250.766 67.3653 251.354 67.692C251.942 68.0093 252.404 68.4667 252.74 69.064C253.086 69.6613 253.258 70.3567 253.258 71.15C253.258 71.9433 253.081 72.6433 252.726 73.25C252.381 73.8473 251.91 74.3093 251.312 74.636C250.715 74.9627 250.052 75.126 249.324 75.126ZM249.324 74.006C249.782 74.006 250.211 73.8987 250.612 73.684C251.014 73.4693 251.336 73.1473 251.578 72.718C251.83 72.2887 251.956 71.766 251.956 71.15C251.956 70.534 251.835 70.0113 251.592 69.582C251.35 69.1527 251.032 68.8353 250.64 68.63C250.248 68.4153 249.824 68.308 249.366 68.308C248.9 68.308 248.47 68.4153 248.078 68.63C247.696 68.8353 247.388 69.1527 247.154 69.582C246.921 70.0113 246.804 70.534 246.804 71.15C246.804 71.7753 246.916 72.3027 247.14 72.732C247.374 73.1613 247.682 73.4833 248.064 73.698C248.447 73.9033 248.867 74.006 249.324 74.006ZM256.207 64.64V75H254.933V64.64H256.207ZM261.235 73.824L263.615 67.328H264.973L261.963 75H260.479L257.469 67.328H258.841L261.235 73.824ZM266.884 66.082C266.642 66.082 266.436 65.998 266.268 65.83C266.1 65.662 266.016 65.4567 266.016 65.214C266.016 64.9713 266.1 64.766 266.268 64.598C266.436 64.43 266.642 64.346 266.884 64.346C267.118 64.346 267.314 64.43 267.472 64.598C267.64 64.766 267.724 64.9713 267.724 65.214C267.724 65.4567 267.64 65.662 267.472 65.83C267.314 65.998 267.118 66.082 266.884 66.082ZM267.5 67.328V75H266.226V67.328H267.5ZM269.196 71.136C269.196 70.352 269.354 69.666 269.672 69.078C269.989 68.4807 270.423 68.0187 270.974 67.692C271.534 67.3653 272.159 67.202 272.85 67.202C273.447 67.202 274.002 67.342 274.516 67.622C275.029 67.8927 275.421 68.252 275.692 68.7V64.64H276.98V75H275.692V73.558C275.44 74.0153 275.066 74.3933 274.572 74.692C274.077 74.9813 273.498 75.126 272.836 75.126C272.154 75.126 271.534 74.958 270.974 74.622C270.423 74.286 269.989 73.8147 269.672 73.208C269.354 72.6013 269.196 71.9107 269.196 71.136ZM275.692 71.15C275.692 70.5713 275.575 70.0673 275.342 69.638C275.108 69.2087 274.791 68.882 274.39 68.658C273.998 68.4247 273.564 68.308 273.088 68.308C272.612 68.308 272.178 68.42 271.786 68.644C271.394 68.868 271.081 69.1947 270.848 69.624C270.614 70.0533 270.498 70.5573 270.498 71.136C270.498 71.724 270.614 72.2373 270.848 72.676C271.081 73.1053 271.394 73.4367 271.786 73.67C272.178 73.894 272.612 74.006 273.088 74.006C273.564 74.006 273.998 73.894 274.39 73.67C274.791 73.4367 275.108 73.1053 275.342 72.676C275.575 72.2373 275.692 71.7287 275.692 71.15ZM282.479 75.126C281.76 75.126 281.107 74.9627 280.519 74.636C279.94 74.3093 279.483 73.8473 279.147 73.25C278.82 72.6433 278.657 71.9433 278.657 71.15C278.657 70.366 278.825 69.6753 279.161 69.078C279.506 68.4713 279.973 68.0093 280.561 67.692C281.149 67.3653 281.807 67.202 282.535 67.202C283.263 67.202 283.921 67.3653 284.509 67.692C285.097 68.0093 285.559 68.4667 285.895 69.064C286.24 69.6613 286.413 70.3567 286.413 71.15C286.413 71.9433 286.235 72.6433 285.881 73.25C285.535 73.8473 285.064 74.3093 284.467 74.636C283.869 74.9627 283.207 75.126 282.479 75.126ZM282.479 74.006C282.936 74.006 283.365 73.8987 283.767 73.684C284.168 73.4693 284.49 73.1473 284.733 72.718C284.985 72.2887 285.111 71.766 285.111 71.15C285.111 70.534 284.989 70.0113 284.747 69.582C284.504 69.1527 284.187 68.8353 283.795 68.63C283.403 68.4153 282.978 68.308 282.521 68.308C282.054 68.308 281.625 68.4153 281.233 68.63C280.85 68.8353 280.542 69.1527 280.309 69.582C280.075 70.0113 279.959 70.534 279.959 71.15C279.959 71.7753 280.071 72.3027 280.295 72.732C280.528 73.1613 280.836 73.4833 281.219 73.698C281.601 73.9033 282.021 74.006 282.479 74.006ZM290.804 75.126C290.216 75.126 289.688 75.028 289.222 74.832C288.755 74.6267 288.386 74.3467 288.116 73.992C287.845 73.628 287.696 73.2127 287.668 72.746H288.984C289.021 73.1287 289.198 73.4413 289.516 73.684C289.842 73.9267 290.267 74.048 290.79 74.048C291.275 74.048 291.658 73.9407 291.938 73.726C292.218 73.5113 292.358 73.2407 292.358 72.914C292.358 72.578 292.208 72.3307 291.91 72.172C291.611 72.004 291.149 71.8407 290.524 71.682C289.954 71.5327 289.488 71.3833 289.124 71.234C288.769 71.0753 288.461 70.8467 288.2 70.548C287.948 70.24 287.822 69.8387 287.822 69.344C287.822 68.952 287.938 68.5927 288.172 68.266C288.405 67.9393 288.736 67.6827 289.166 67.496C289.595 67.3 290.085 67.202 290.636 67.202C291.485 67.202 292.171 67.4167 292.694 67.846C293.216 68.2753 293.496 68.8633 293.534 69.61H292.26C292.232 69.2087 292.068 68.8867 291.77 68.644C291.48 68.4013 291.088 68.28 290.594 68.28C290.136 68.28 289.772 68.378 289.502 68.574C289.231 68.77 289.096 69.0267 289.096 69.344C289.096 69.596 289.175 69.806 289.334 69.974C289.502 70.1327 289.707 70.2633 289.95 70.366C290.202 70.4593 290.547 70.5667 290.986 70.688C291.536 70.8373 291.984 70.9867 292.33 71.136C292.675 71.276 292.969 71.4907 293.212 71.78C293.464 72.0693 293.594 72.4473 293.604 72.914C293.604 73.334 293.487 73.712 293.254 74.048C293.02 74.384 292.689 74.65 292.26 74.846C291.84 75.0327 291.354 75.126 290.804 75.126ZM298.659 71.136C298.659 70.352 298.817 69.666 299.135 69.078C299.452 68.4807 299.886 68.0187 300.437 67.692C300.997 67.3653 301.622 67.202 302.313 67.202C302.91 67.202 303.465 67.342 303.979 67.622C304.492 67.8927 304.884 68.252 305.155 68.7V64.64H306.443V75H305.155V73.558C304.903 74.0153 304.529 74.3933 304.035 74.692C303.54 74.9813 302.961 75.126 302.299 75.126C301.617 75.126 300.997 74.958 300.437 74.622C299.886 74.286 299.452 73.8147 299.135 73.208C298.817 72.6013 298.659 71.9107 298.659 71.136ZM305.155 71.15C305.155 70.5713 305.038 70.0673 304.805 69.638C304.571 69.2087 304.254 68.882 303.853 68.658C303.461 68.4247 303.027 68.308 302.551 68.308C302.075 68.308 301.641 68.42 301.249 68.644C300.857 68.868 300.544 69.1947 300.311 69.624C300.077 70.0533 299.961 70.5573 299.961 71.136C299.961 71.724 300.077 72.2373 300.311 72.676C300.544 73.1053 300.857 73.4367 301.249 73.67C301.641 73.894 302.075 74.006 302.551 74.006C303.027 74.006 303.461 73.894 303.853 73.67C304.254 73.4367 304.571 73.1053 304.805 72.676C305.038 72.2373 305.155 71.7287 305.155 71.15ZM315.4 67.328V75H314.126V73.866C313.883 74.258 313.542 74.566 313.104 74.79C312.674 75.0047 312.198 75.112 311.676 75.112C311.078 75.112 310.542 74.9907 310.066 74.748C309.59 74.496 309.212 74.1227 308.932 73.628C308.661 73.1333 308.526 72.5313 308.526 71.822V67.328H309.786V71.654C309.786 72.41 309.977 72.9933 310.36 73.404C310.742 73.8053 311.265 74.006 311.928 74.006C312.609 74.006 313.146 73.796 313.538 73.376C313.93 72.956 314.126 72.3447 314.126 71.542V67.328H315.4ZM318.825 68.574C319.049 68.1353 319.366 67.7947 319.777 67.552C320.197 67.3093 320.705 67.188 321.303 67.188V68.504H320.967C319.539 68.504 318.825 69.2787 318.825 70.828V75H317.551V67.328H318.825V68.574ZM322.297 71.136C322.297 70.352 322.456 69.666 322.773 69.078C323.091 68.4807 323.525 68.0187 324.075 67.692C324.635 67.3653 325.256 67.202 325.937 67.202C326.609 67.202 327.193 67.3467 327.687 67.636C328.182 67.9253 328.551 68.2893 328.793 68.728V67.328H330.081V75H328.793V73.572C328.541 74.02 328.163 74.3933 327.659 74.692C327.165 74.9813 326.586 75.126 325.923 75.126C325.242 75.126 324.626 74.958 324.075 74.622C323.525 74.286 323.091 73.8147 322.773 73.208C322.456 72.6013 322.297 71.9107 322.297 71.136ZM328.793 71.15C328.793 70.5713 328.677 70.0673 328.443 69.638C328.21 69.2087 327.893 68.882 327.491 68.658C327.099 68.4247 326.665 68.308 326.189 68.308C325.713 68.308 325.279 68.42 324.887 68.644C324.495 68.868 324.183 69.1947 323.949 69.624C323.716 70.0533 323.599 70.5573 323.599 71.136C323.599 71.724 323.716 72.2373 323.949 72.676C324.183 73.1053 324.495 73.4367 324.887 73.67C325.279 73.894 325.713 74.006 326.189 74.006C326.665 74.006 327.099 73.894 327.491 73.67C327.893 73.4367 328.21 73.1053 328.443 72.676C328.677 72.2373 328.793 71.7287 328.793 71.15ZM335.972 67.188C336.906 67.188 337.662 67.4727 338.24 68.042C338.819 68.602 339.108 69.414 339.108 70.478V75H337.848V70.66C337.848 69.8947 337.657 69.3113 337.274 68.91C336.892 68.4993 336.369 68.294 335.706 68.294C335.034 68.294 334.498 68.504 334.096 68.924C333.704 69.344 333.508 69.9553 333.508 70.758V75H332.234V67.328H333.508V68.42C333.76 68.028 334.101 67.7247 334.53 67.51C334.969 67.2953 335.45 67.188 335.972 67.188ZM342.743 68.378V72.9C342.743 73.2733 342.823 73.5393 342.981 73.698C343.14 73.8473 343.415 73.922 343.807 73.922H344.745V75H343.597C342.888 75 342.356 74.8367 342.001 74.51C341.647 74.1833 341.469 73.6467 341.469 72.9V68.378H340.475V67.328H341.469V65.396H342.743V67.328H344.745V68.378H342.743ZM353.289 70.87C353.289 71.1127 353.275 71.3693 353.247 71.64H347.115C347.162 72.396 347.418 72.9887 347.885 73.418C348.361 73.838 348.935 74.048 349.607 74.048C350.158 74.048 350.615 73.922 350.979 73.67C351.352 73.4087 351.614 73.0633 351.763 72.634H353.135C352.93 73.3713 352.519 73.9733 351.903 74.44C351.287 74.8973 350.522 75.126 349.607 75.126C348.879 75.126 348.226 74.9627 347.647 74.636C347.078 74.3093 346.63 73.8473 346.303 73.25C345.976 72.6433 345.813 71.9433 345.813 71.15C345.813 70.3567 345.972 69.6613 346.289 69.064C346.606 68.4667 347.05 68.0093 347.619 67.692C348.198 67.3653 348.86 67.202 349.607 67.202C350.335 67.202 350.979 67.3607 351.539 67.678C352.099 67.9953 352.528 68.434 352.827 68.994C353.135 69.5447 353.289 70.17 353.289 70.87ZM351.973 70.604C351.973 70.1187 351.866 69.7033 351.651 69.358C351.436 69.0033 351.142 68.7373 350.769 68.56C350.405 68.3733 349.999 68.28 349.551 68.28C348.907 68.28 348.356 68.4853 347.899 68.896C347.451 69.3067 347.194 69.876 347.129 70.604H351.973ZM362.049 75.126C361.33 75.126 360.677 74.9627 360.089 74.636C359.51 74.3093 359.053 73.8473 358.717 73.25C358.39 72.6433 358.227 71.9433 358.227 71.15C358.227 70.366 358.395 69.6753 358.731 69.078C359.076 68.4713 359.543 68.0093 360.131 67.692C360.719 67.3653 361.377 67.202 362.105 67.202C362.833 67.202 363.491 67.3653 364.079 67.692C364.667 68.0093 365.129 68.4667 365.465 69.064C365.81 69.6613 365.983 70.3567 365.983 71.15C365.983 71.9433 365.806 72.6433 365.451 73.25C365.106 73.8473 364.634 74.3093 364.037 74.636C363.44 74.9627 362.777 75.126 362.049 75.126ZM362.049 74.006C362.506 74.006 362.936 73.8987 363.337 73.684C363.738 73.4693 364.06 73.1473 364.303 72.718C364.555 72.2887 364.681 71.766 364.681 71.15C364.681 70.534 364.56 70.0113 364.317 69.582C364.074 69.1527 363.757 68.8353 363.365 68.63C362.973 68.4153 362.548 68.308 362.091 68.308C361.624 68.308 361.195 68.4153 360.803 68.63C360.42 68.8353 360.112 69.1527 359.879 69.582C359.646 70.0113 359.529 70.534 359.529 71.15C359.529 71.7753 359.641 72.3027 359.865 72.732C360.098 73.1613 360.406 73.4833 360.789 73.698C361.172 73.9033 361.592 74.006 362.049 74.006ZM380.617 67.188C381.214 67.188 381.746 67.314 382.213 67.566C382.679 67.8087 383.048 68.1773 383.319 68.672C383.589 69.1667 383.725 69.7687 383.725 70.478V75H382.465V70.66C382.465 69.8947 382.273 69.3113 381.891 68.91C381.517 68.4993 381.009 68.294 380.365 68.294C379.702 68.294 379.175 68.5087 378.783 68.938C378.391 69.358 378.195 69.9693 378.195 70.772V75H376.935V70.66C376.935 69.8947 376.743 69.3113 376.361 68.91C375.987 68.4993 375.479 68.294 374.835 68.294C374.172 68.294 373.645 68.5087 373.253 68.938C372.861 69.358 372.665 69.9693 372.665 70.772V75H371.391V67.328H372.665V68.434C372.917 68.0327 373.253 67.7247 373.673 67.51C374.102 67.2953 374.573 67.188 375.087 67.188C375.731 67.188 376.3 67.3327 376.795 67.622C377.289 67.9113 377.658 68.336 377.901 68.896C378.115 68.3547 378.47 67.9347 378.965 67.636C379.459 67.3373 380.01 67.188 380.617 67.188ZM389.16 75.126C388.442 75.126 387.788 74.9627 387.2 74.636C386.622 74.3093 386.164 73.8473 385.828 73.25C385.502 72.6433 385.338 71.9433 385.338 71.15C385.338 70.366 385.506 69.6753 385.842 69.078C386.188 68.4713 386.654 68.0093 387.242 67.692C387.83 67.3653 388.488 67.202 389.216 67.202C389.944 67.202 390.602 67.3653 391.19 67.692C391.778 68.0093 392.24 68.4667 392.576 69.064C392.922 69.6613 393.094 70.3567 393.094 71.15C393.094 71.9433 392.917 72.6433 392.562 73.25C392.217 73.8473 391.746 74.3093 391.148 74.636C390.551 74.9627 389.888 75.126 389.16 75.126ZM389.16 74.006C389.618 74.006 390.047 73.8987 390.448 73.684C390.85 73.4693 391.172 73.1473 391.414 72.718C391.666 72.2887 391.792 71.766 391.792 71.15C391.792 70.534 391.671 70.0113 391.428 69.582C391.186 69.1527 390.868 68.8353 390.476 68.63C390.084 68.4153 389.66 68.308 389.202 68.308C388.736 68.308 388.306 68.4153 387.914 68.63C387.532 68.8353 387.224 69.1527 386.99 69.582C386.757 70.0113 386.64 70.534 386.64 71.15C386.64 71.7753 386.752 72.3027 386.976 72.732C387.21 73.1613 387.518 73.4833 387.9 73.698C388.283 73.9033 388.703 74.006 389.16 74.006ZM390.588 65.06L387.606 66.656V65.704L390.588 63.954V65.06ZM394.293 71.136C394.293 70.352 394.452 69.666 394.769 69.078C395.087 68.4807 395.521 68.0187 396.071 67.692C396.631 67.3653 397.257 67.202 397.947 67.202C398.545 67.202 399.1 67.342 399.613 67.622C400.127 67.8927 400.519 68.252 400.789 68.7V64.64H402.077V75H400.789V73.558C400.537 74.0153 400.164 74.3933 399.669 74.692C399.175 74.9813 398.596 75.126 397.933 75.126C397.252 75.126 396.631 74.958 396.071 74.622C395.521 74.286 395.087 73.8147 394.769 73.208C394.452 72.6013 394.293 71.9107 394.293 71.136ZM400.789 71.15C400.789 70.5713 400.673 70.0673 400.439 69.638C400.206 69.2087 399.889 68.882 399.487 68.658C399.095 68.4247 398.661 68.308 398.185 68.308C397.709 68.308 397.275 68.42 396.883 68.644C396.491 68.868 396.179 69.1947 395.945 69.624C395.712 70.0533 395.595 70.5573 395.595 71.136C395.595 71.724 395.712 72.2373 395.945 72.676C396.179 73.1053 396.491 73.4367 396.883 73.67C397.275 73.894 397.709 74.006 398.185 74.006C398.661 74.006 399.095 73.894 399.487 73.67C399.889 73.4367 400.206 73.1053 400.439 72.676C400.673 72.2373 400.789 71.7287 400.789 71.15ZM411.034 67.328V75H409.76V73.866C409.518 74.258 409.177 74.566 408.738 74.79C408.309 75.0047 407.833 75.112 407.31 75.112C406.713 75.112 406.176 74.9907 405.7 74.748C405.224 74.496 404.846 74.1227 404.566 73.628C404.296 73.1333 404.16 72.5313 404.16 71.822V67.328H405.42V71.654C405.42 72.41 405.612 72.9933 405.994 73.404C406.377 73.8053 406.9 74.006 407.562 74.006C408.244 74.006 408.78 73.796 409.172 73.376C409.564 72.956 409.76 72.3447 409.76 71.542V67.328H411.034ZM414.459 64.64V75H413.185V64.64H414.459ZM419.977 75.126C419.258 75.126 418.605 74.9627 418.017 74.636C417.438 74.3093 416.981 73.8473 416.645 73.25C416.318 72.6433 416.155 71.9433 416.155 71.15C416.155 70.366 416.323 69.6753 416.659 69.078C417.004 68.4713 417.471 68.0093 418.059 67.692C418.647 67.3653 419.305 67.202 420.033 67.202C420.761 67.202 421.419 67.3653 422.007 67.692C422.595 68.0093 423.057 68.4667 423.393 69.064C423.738 69.6613 423.911 70.3567 423.911 71.15C423.911 71.9433 423.733 72.6433 423.379 73.25C423.033 73.8473 422.562 74.3093 421.965 74.636C421.367 74.9627 420.705 75.126 419.977 75.126ZM419.977 74.006C420.434 74.006 420.863 73.8987 421.265 73.684C421.666 73.4693 421.988 73.1473 422.231 72.718C422.483 72.2887 422.609 71.766 422.609 71.15C422.609 70.534 422.487 70.0113 422.245 69.582C422.002 69.1527 421.685 68.8353 421.293 68.63C420.901 68.4153 420.476 68.308 420.019 68.308C419.552 68.308 419.123 68.4153 418.731 68.63C418.348 68.8353 418.04 69.1527 417.807 69.582C417.573 70.0113 417.457 70.534 417.457 71.15C417.457 71.7753 417.569 72.3027 417.793 72.732C418.026 73.1613 418.334 73.4833 418.717 73.698C419.099 73.9033 419.519 74.006 419.977 74.006ZM428.842 71.136C428.842 70.352 429.001 69.666 429.318 69.078C429.636 68.4807 430.07 68.0187 430.62 67.692C431.18 67.3653 431.806 67.202 432.496 67.202C433.094 67.202 433.649 67.342 434.162 67.622C434.676 67.8927 435.068 68.252 435.338 68.7V64.64H436.626V75H435.338V73.558C435.086 74.0153 434.713 74.3933 434.218 74.692C433.724 74.9813 433.145 75.126 432.482 75.126C431.801 75.126 431.18 74.958 430.62 74.622C430.07 74.286 429.636 73.8147 429.318 73.208C429.001 72.6013 428.842 71.9107 428.842 71.136ZM435.338 71.15C435.338 70.5713 435.222 70.0673 434.988 69.638C434.755 69.2087 434.438 68.882 434.036 68.658C433.644 68.4247 433.21 68.308 432.734 68.308C432.258 68.308 431.824 68.42 431.432 68.644C431.04 68.868 430.728 69.1947 430.494 69.624C430.261 70.0533 430.144 70.5573 430.144 71.136C430.144 71.724 430.261 72.2373 430.494 72.676C430.728 73.1053 431.04 73.4367 431.432 73.67C431.824 73.894 432.258 74.006 432.734 74.006C433.21 74.006 433.644 73.894 434.036 73.67C434.438 73.4367 434.755 73.1053 434.988 72.676C435.222 72.2373 435.338 71.7287 435.338 71.15ZM445.779 70.87C445.779 71.1127 445.765 71.3693 445.737 71.64H439.605C439.652 72.396 439.909 72.9887 440.375 73.418C440.851 73.838 441.425 74.048 442.097 74.048C442.648 74.048 443.105 73.922 443.469 73.67C443.843 73.4087 444.104 73.0633 444.253 72.634H445.625C445.42 73.3713 445.009 73.9733 444.393 74.44C443.777 74.8973 443.012 75.126 442.097 75.126C441.369 75.126 440.716 74.9627 440.137 74.636C439.568 74.3093 439.12 73.8473 438.793 73.25C438.467 72.6433 438.303 71.9433 438.303 71.15C438.303 70.3567 438.462 69.6613 438.779 69.064C439.097 68.4667 439.54 68.0093 440.109 67.692C440.688 67.3653 441.351 67.202 442.097 67.202C442.825 67.202 443.469 67.3607 444.029 67.678C444.589 67.9953 445.019 68.434 445.317 68.994C445.625 69.5447 445.779 70.17 445.779 70.87ZM444.463 70.604C444.463 70.1187 444.356 69.7033 444.141 69.358C443.927 69.0033 443.633 68.7373 443.259 68.56C442.895 68.3733 442.489 68.28 442.041 68.28C441.397 68.28 440.847 68.4853 440.389 68.896C439.941 69.3067 439.685 69.876 439.619 70.604H444.463ZM450.717 71.15C450.717 70.3567 450.876 69.666 451.193 69.078C451.511 68.4807 451.949 68.0187 452.509 67.692C453.079 67.3653 453.727 67.202 454.455 67.202C455.398 67.202 456.173 67.4307 456.779 67.888C457.395 68.3453 457.801 68.98 457.997 69.792H456.625C456.495 69.3253 456.238 68.9567 455.855 68.686C455.482 68.4153 455.015 68.28 454.455 68.28C453.727 68.28 453.139 68.532 452.691 69.036C452.243 69.5307 452.019 70.2353 452.019 71.15C452.019 72.074 452.243 72.788 452.691 73.292C453.139 73.796 453.727 74.048 454.455 74.048C455.015 74.048 455.482 73.9173 455.855 73.656C456.229 73.3947 456.485 73.0213 456.625 72.536H457.997C457.792 73.32 457.381 73.95 456.765 74.426C456.149 74.8927 455.379 75.126 454.455 75.126C453.727 75.126 453.079 74.9627 452.509 74.636C451.949 74.3093 451.511 73.8473 451.193 73.25C450.876 72.6527 450.717 71.9527 450.717 71.15ZM460.355 66.082C460.112 66.082 459.907 65.998 459.739 65.83C459.571 65.662 459.487 65.4567 459.487 65.214C459.487 64.9713 459.571 64.766 459.739 64.598C459.907 64.43 460.112 64.346 460.355 64.346C460.588 64.346 460.784 64.43 460.943 64.598C461.111 64.766 461.195 64.9713 461.195 65.214C461.195 65.4567 461.111 65.662 460.943 65.83C460.784 65.998 460.588 66.082 460.355 66.082ZM460.971 67.328V75H459.697V67.328H460.971ZM470.142 70.87C470.142 71.1127 470.128 71.3693 470.1 71.64H463.968C464.015 72.396 464.272 72.9887 464.738 73.418C465.214 73.838 465.788 74.048 466.46 74.048C467.011 74.048 467.468 73.922 467.832 73.67C468.206 73.4087 468.467 73.0633 468.616 72.634H469.988C469.783 73.3713 469.372 73.9733 468.756 74.44C468.14 74.8973 467.375 75.126 466.46 75.126C465.732 75.126 465.079 74.9627 464.5 74.636C463.931 74.3093 463.483 73.8473 463.156 73.25C462.83 72.6433 462.666 71.9433 462.666 71.15C462.666 70.3567 462.825 69.6613 463.142 69.064C463.46 68.4667 463.903 68.0093 464.472 67.692C465.051 67.3653 465.714 67.202 466.46 67.202C467.188 67.202 467.832 67.3607 468.392 67.678C468.952 67.9953 469.382 68.434 469.68 68.994C469.988 69.5447 470.142 70.17 470.142 70.87ZM468.826 70.604C468.826 70.1187 468.719 69.7033 468.504 69.358C468.29 69.0033 467.996 68.7373 467.622 68.56C467.258 68.3733 466.852 68.28 466.404 68.28C465.76 68.28 465.21 68.4853 464.752 68.896C464.304 69.3067 464.048 69.876 463.982 70.604H468.826ZM466.418 65.452L464.472 66.642V65.634L466.418 64.472L468.35 65.634V66.642L466.418 65.452ZM475.562 67.188C476.495 67.188 477.251 67.4727 477.83 68.042C478.409 68.602 478.698 69.414 478.698 70.478V75H477.438V70.66C477.438 69.8947 477.247 69.3113 476.864 68.91C476.481 68.4993 475.959 68.294 475.296 68.294C474.624 68.294 474.087 68.504 473.686 68.924C473.294 69.344 473.098 69.9553 473.098 70.758V75H471.824V67.328H473.098V68.42C473.35 68.028 473.691 67.7247 474.12 67.51C474.559 67.2953 475.039 67.188 475.562 67.188ZM480.303 71.15C480.303 70.3567 480.462 69.666 480.779 69.078C481.097 68.4807 481.535 68.0187 482.095 67.692C482.665 67.3653 483.313 67.202 484.041 67.202C484.984 67.202 485.759 67.4307 486.365 67.888C486.981 68.3453 487.387 68.98 487.583 69.792H486.211C486.081 69.3253 485.824 68.9567 485.441 68.686C485.068 68.4153 484.601 68.28 484.041 68.28C483.313 68.28 482.725 68.532 482.277 69.036C481.829 69.5307 481.605 70.2353 481.605 71.15C481.605 72.074 481.829 72.788 482.277 73.292C482.725 73.796 483.313 74.048 484.041 74.048C484.601 74.048 485.068 73.9173 485.441 73.656C485.815 73.3947 486.071 73.0213 486.211 72.536H487.583C487.378 73.32 486.967 73.95 486.351 74.426C485.735 74.8927 484.965 75.126 484.041 75.126C483.313 75.126 482.665 74.9627 482.095 74.636C481.535 74.3093 481.097 73.8473 480.779 73.25C480.462 72.6527 480.303 71.9527 480.303 71.15ZM489.941 66.082C489.698 66.082 489.493 65.998 489.325 65.83C489.157 65.662 489.073 65.4567 489.073 65.214C489.073 64.9713 489.157 64.766 489.325 64.598C489.493 64.43 489.698 64.346 489.941 64.346C490.174 64.346 490.37 64.43 490.529 64.598C490.697 64.766 490.781 64.9713 490.781 65.214C490.781 65.4567 490.697 65.662 490.529 65.83C490.37 65.998 490.174 66.082 489.941 66.082ZM490.557 67.328V75H489.283V67.328H490.557ZM492.252 71.136C492.252 70.352 492.411 69.666 492.728 69.078C493.046 68.4807 493.48 68.0187 494.03 67.692C494.59 67.3653 495.211 67.202 495.892 67.202C496.564 67.202 497.148 67.3467 497.642 67.636C498.137 67.9253 498.506 68.2893 498.748 68.728V67.328H500.036V75H498.748V73.572C498.496 74.02 498.118 74.3933 497.614 74.692C497.12 74.9813 496.541 75.126 495.878 75.126C495.197 75.126 494.581 74.958 494.03 74.622C493.48 74.286 493.046 73.8147 492.728 73.208C492.411 72.6013 492.252 71.9107 492.252 71.136ZM498.748 71.15C498.748 70.5713 498.632 70.0673 498.398 69.638C498.165 69.2087 497.848 68.882 497.446 68.658C497.054 68.4247 496.62 68.308 496.144 68.308C495.668 68.308 495.234 68.42 494.842 68.644C494.45 68.868 494.138 69.1947 493.904 69.624C493.671 70.0533 493.554 70.5573 493.554 71.136C493.554 71.724 493.671 72.2373 493.904 72.676C494.138 73.1053 494.45 73.4367 494.842 73.67C495.234 73.894 495.668 74.006 496.144 74.006C496.62 74.006 497.054 73.894 497.446 73.67C497.848 73.4367 498.165 73.1053 498.398 72.676C498.632 72.2373 498.748 71.7287 498.748 71.15ZM505.446 71.136C505.446 70.352 505.604 69.666 505.922 69.078C506.239 68.4807 506.673 68.0187 507.224 67.692C507.784 67.3653 508.409 67.202 509.1 67.202C509.697 67.202 510.252 67.342 510.766 67.622C511.279 67.8927 511.671 68.252 511.942 68.7V64.64H513.23V75H511.942V73.558C511.69 74.0153 511.316 74.3933 510.822 74.692C510.327 74.9813 509.748 75.126 509.086 75.126C508.404 75.126 507.784 74.958 507.224 74.622C506.673 74.286 506.239 73.8147 505.922 73.208C505.604 72.6013 505.446 71.9107 505.446 71.136ZM511.942 71.15C511.942 70.5713 511.825 70.0673 511.592 69.638C511.358 69.2087 511.041 68.882 510.64 68.658C510.248 68.4247 509.814 68.308 509.338 68.308C508.862 68.308 508.428 68.42 508.036 68.644C507.644 68.868 507.331 69.1947 507.098 69.624C506.864 70.0533 506.748 70.5573 506.748 71.136C506.748 71.724 506.864 72.2373 507.098 72.676C507.331 73.1053 507.644 73.4367 508.036 73.67C508.428 73.894 508.862 74.006 509.338 74.006C509.814 74.006 510.248 73.894 510.64 73.67C511.041 73.4367 511.358 73.1053 511.592 72.676C511.825 72.2373 511.942 71.7287 511.942 71.15ZM514.907 71.136C514.907 70.352 515.065 69.666 515.383 69.078C515.7 68.4807 516.134 68.0187 516.685 67.692C517.245 67.3653 517.865 67.202 518.547 67.202C519.219 67.202 519.802 67.3467 520.297 67.636C520.791 67.9253 521.16 68.2893 521.403 68.728V67.328H522.691V75H521.403V73.572C521.151 74.02 520.773 74.3933 520.269 74.692C519.774 74.9813 519.195 75.126 518.533 75.126C517.851 75.126 517.235 74.958 516.685 74.622C516.134 74.286 515.7 73.8147 515.383 73.208C515.065 72.6013 514.907 71.9107 514.907 71.136ZM521.403 71.15C521.403 70.5713 521.286 70.0673 521.053 69.638C520.819 69.2087 520.502 68.882 520.101 68.658C519.709 68.4247 519.275 68.308 518.799 68.308C518.323 68.308 517.889 68.42 517.497 68.644C517.105 68.868 516.792 69.1947 516.559 69.624C516.325 70.0533 516.209 70.5573 516.209 71.136C516.209 71.724 516.325 72.2373 516.559 72.676C516.792 73.1053 517.105 73.4367 517.497 73.67C517.889 73.894 518.323 74.006 518.799 74.006C519.275 74.006 519.709 73.894 520.101 73.67C520.502 73.4367 520.819 73.1053 521.053 72.676C521.286 72.2373 521.403 71.7287 521.403 71.15ZM528.1 71.15C528.1 70.3567 528.259 69.666 528.576 69.078C528.893 68.4807 529.332 68.0187 529.892 67.692C530.461 67.3653 531.11 67.202 531.838 67.202C532.781 67.202 533.555 67.4307 534.162 67.888C534.778 68.3453 535.184 68.98 535.38 69.792H534.008C533.877 69.3253 533.621 68.9567 533.238 68.686C532.865 68.4153 532.398 68.28 531.838 68.28C531.11 68.28 530.522 68.532 530.074 69.036C529.626 69.5307 529.402 70.2353 529.402 71.15C529.402 72.074 529.626 72.788 530.074 73.292C530.522 73.796 531.11 74.048 531.838 74.048C532.398 74.048 532.865 73.9173 533.238 73.656C533.611 73.3947 533.868 73.0213 534.008 72.536H535.38C535.175 73.32 534.764 73.95 534.148 74.426C533.532 74.8927 532.762 75.126 531.838 75.126C531.11 75.126 530.461 74.9627 529.892 74.636C529.332 74.3093 528.893 73.8473 528.576 73.25C528.259 72.6527 528.1 71.9527 528.1 71.15ZM540.426 75.126C539.707 75.126 539.054 74.9627 538.466 74.636C537.887 74.3093 537.43 73.8473 537.094 73.25C536.767 72.6433 536.604 71.9433 536.604 71.15C536.604 70.366 536.772 69.6753 537.108 69.078C537.453 68.4713 537.92 68.0093 538.508 67.692C539.096 67.3653 539.754 67.202 540.482 67.202C541.21 67.202 541.868 67.3653 542.456 67.692C543.044 68.0093 543.506 68.4667 543.842 69.064C544.187 69.6613 544.36 70.3567 544.36 71.15C544.36 71.9433 544.183 72.6433 543.828 73.25C543.483 73.8473 543.011 74.3093 542.414 74.636C541.817 74.9627 541.154 75.126 540.426 75.126ZM540.426 74.006C540.883 74.006 541.313 73.8987 541.714 73.684C542.115 73.4693 542.437 73.1473 542.68 72.718C542.932 72.2887 543.058 71.766 543.058 71.15C543.058 70.534 542.937 70.0113 542.694 69.582C542.451 69.1527 542.134 68.8353 541.742 68.63C541.35 68.4153 540.925 68.308 540.468 68.308C540.001 68.308 539.572 68.4153 539.18 68.63C538.797 68.8353 538.489 69.1527 538.256 69.582C538.023 70.0113 537.906 70.534 537.906 71.15C537.906 71.7753 538.018 72.3027 538.242 72.732C538.475 73.1613 538.783 73.4833 539.166 73.698C539.549 73.9033 539.969 74.006 540.426 74.006ZM555.261 67.188C555.858 67.188 556.39 67.314 556.857 67.566C557.324 67.8087 557.692 68.1773 557.963 68.672C558.234 69.1667 558.369 69.7687 558.369 70.478V75H557.109V70.66C557.109 69.8947 556.918 69.3113 556.535 68.91C556.162 68.4993 555.653 68.294 555.009 68.294C554.346 68.294 553.819 68.5087 553.427 68.938C553.035 69.358 552.839 69.9693 552.839 70.772V75H551.579V70.66C551.579 69.8947 551.388 69.3113 551.005 68.91C550.632 68.4993 550.123 68.294 549.479 68.294C548.816 68.294 548.289 68.5087 547.897 68.938C547.505 69.358 547.309 69.9693 547.309 70.772V75H546.035V67.328H547.309V68.434C547.561 68.0327 547.897 67.7247 548.317 67.51C548.746 67.2953 549.218 67.188 549.731 67.188C550.375 67.188 550.944 67.3327 551.439 67.622C551.934 67.9113 552.302 68.336 552.545 68.896C552.76 68.3547 553.114 67.9347 553.609 67.636C554.104 67.3373 554.654 67.188 555.261 67.188ZM561.733 68.742C561.985 68.3033 562.358 67.9393 562.853 67.65C563.357 67.3513 563.94 67.202 564.603 67.202C565.284 67.202 565.9 67.3653 566.451 67.692C567.011 68.0187 567.45 68.4807 567.767 69.078C568.084 69.666 568.243 70.352 568.243 71.136C568.243 71.9107 568.084 72.6013 567.767 73.208C567.45 73.8147 567.011 74.286 566.451 74.622C565.9 74.958 565.284 75.126 564.603 75.126C563.95 75.126 563.371 74.9813 562.867 74.692C562.372 74.3933 561.994 74.0247 561.733 73.586V78.64H560.459V67.328H561.733V68.742ZM566.941 71.136C566.941 70.5573 566.824 70.0533 566.591 69.624C566.358 69.1947 566.04 68.868 565.639 68.644C565.247 68.42 564.813 68.308 564.337 68.308C563.87 68.308 563.436 68.4247 563.035 68.658C562.643 68.882 562.326 69.2133 562.083 69.652C561.85 70.0813 561.733 70.5807 561.733 71.15C561.733 71.7287 561.85 72.2373 562.083 72.676C562.326 73.1053 562.643 73.4367 563.035 73.67C563.436 73.894 563.87 74.006 564.337 74.006C564.813 74.006 565.247 73.894 565.639 73.67C566.04 73.4367 566.358 73.1053 566.591 72.676C566.824 72.2373 566.941 71.724 566.941 71.136ZM576.724 67.328V75H575.45V73.866C575.207 74.258 574.866 74.566 574.428 74.79C573.998 75.0047 573.522 75.112 573 75.112C572.402 75.112 571.866 74.9907 571.39 74.748C570.914 74.496 570.536 74.1227 570.256 73.628C569.985 73.1333 569.85 72.5313 569.85 71.822V67.328H571.11V71.654C571.11 72.41 571.301 72.9933 571.684 73.404C572.066 73.8053 572.589 74.006 573.252 74.006C573.933 74.006 574.47 73.796 574.862 73.376C575.254 72.956 575.45 72.3447 575.45 71.542V67.328H576.724ZM580.429 68.378V72.9C580.429 73.2733 580.508 73.5393 580.667 73.698C580.826 73.8473 581.101 73.922 581.493 73.922H582.431V75H581.283C580.574 75 580.042 74.8367 579.687 74.51C579.332 74.1833 579.155 73.6467 579.155 72.9V68.378H578.161V67.328H579.155V65.396H580.429V67.328H582.431V68.378H580.429ZM583.498 71.136C583.498 70.352 583.657 69.666 583.974 69.078C584.292 68.4807 584.726 68.0187 585.276 67.692C585.836 67.3653 586.457 67.202 587.138 67.202C587.81 67.202 588.394 67.3467 588.888 67.636C589.383 67.9253 589.752 68.2893 589.994 68.728V67.328H591.282V75H589.994V73.572C589.742 74.02 589.364 74.3933 588.86 74.692C588.366 74.9813 587.787 75.126 587.124 75.126C586.443 75.126 585.827 74.958 585.276 74.622C584.726 74.286 584.292 73.8147 583.974 73.208C583.657 72.6013 583.498 71.9107 583.498 71.136ZM589.994 71.15C589.994 70.5713 589.878 70.0673 589.644 69.638C589.411 69.2087 589.094 68.882 588.692 68.658C588.3 68.4247 587.866 68.308 587.39 68.308C586.914 68.308 586.48 68.42 586.088 68.644C585.696 68.868 585.384 69.1947 585.15 69.624C584.917 70.0533 584.8 70.5573 584.8 71.136C584.8 71.724 584.917 72.2373 585.15 72.676C585.384 73.1053 585.696 73.4367 586.088 73.67C586.48 73.894 586.914 74.006 587.39 74.006C587.866 74.006 588.3 73.894 588.692 73.67C589.094 73.4367 589.411 73.1053 589.644 72.676C589.878 72.2373 589.994 71.7287 589.994 71.15ZM596.697 74.048C597.257 74.048 597.724 73.9173 598.097 73.656C598.471 73.3947 598.727 73.0213 598.867 72.536H600.239C600.053 73.264 599.684 73.8613 599.133 74.328C598.592 74.7853 597.911 75.0467 597.089 75.112V75.812C597.64 75.8027 598.079 75.9193 598.405 76.162C598.732 76.4047 598.895 76.75 598.895 77.198C598.895 77.6367 598.737 77.9867 598.419 78.248C598.102 78.5093 597.691 78.64 597.187 78.64H595.577V77.814H596.935C597.243 77.814 597.467 77.7673 597.607 77.674C597.757 77.5807 597.831 77.422 597.831 77.198C597.831 76.9833 597.757 76.8293 597.607 76.736C597.467 76.6427 597.243 76.596 596.935 76.596H596.235V75.098C595.591 75.0327 595.022 74.832 594.527 74.496C594.033 74.1507 593.645 73.6933 593.365 73.124C593.095 72.5453 592.959 71.8873 592.959 71.15C592.959 70.3567 593.118 69.666 593.435 69.078C593.753 68.4807 594.191 68.0187 594.751 67.692C595.321 67.3653 595.969 67.202 596.697 67.202C597.64 67.202 598.415 67.4307 599.021 67.888C599.637 68.3453 600.043 68.98 600.239 69.792H598.867C598.737 69.3253 598.48 68.9567 598.097 68.686C597.724 68.4153 597.257 68.28 596.697 68.28C595.969 68.28 595.381 68.532 594.933 69.036C594.485 69.5307 594.261 70.2353 594.261 71.15C594.261 72.074 594.485 72.788 594.933 73.292C595.381 73.796 595.969 74.048 596.697 74.048ZM601.463 71.136C601.463 70.352 601.622 69.666 601.939 69.078C602.257 68.4807 602.691 68.0187 603.241 67.692C603.801 67.3653 604.422 67.202 605.103 67.202C605.775 67.202 606.359 67.3467 606.853 67.636C607.348 67.9253 607.717 68.2893 607.959 68.728V67.328H609.247V75H607.959V73.572C607.707 74.02 607.329 74.3933 606.825 74.692C606.331 74.9813 605.752 75.126 605.089 75.126C604.408 75.126 603.792 74.958 603.241 74.622C602.691 74.286 602.257 73.8147 601.939 73.208C601.622 72.6013 601.463 71.9107 601.463 71.136ZM607.959 71.15C607.959 70.5713 607.843 70.0673 607.609 69.638C607.376 69.2087 607.059 68.882 606.657 68.658C606.265 68.4247 605.831 68.308 605.355 68.308C604.879 68.308 604.445 68.42 604.053 68.644C603.661 68.868 603.349 69.1947 603.115 69.624C602.882 70.0533 602.765 70.5573 602.765 71.136C602.765 71.724 602.882 72.2373 603.115 72.676C603.349 73.1053 603.661 73.4367 604.053 73.67C604.445 73.894 604.879 74.006 605.355 74.006C605.831 74.006 606.265 73.894 606.657 73.67C607.059 73.4367 607.376 73.1053 607.609 72.676C607.843 72.2373 607.959 71.7287 607.959 71.15ZM603.549 66.502C603.615 66.026 603.769 65.662 604.011 65.41C604.263 65.158 604.576 65.032 604.949 65.032C605.127 65.032 605.276 65.0647 605.397 65.13C605.528 65.186 605.682 65.27 605.859 65.382C605.99 65.4753 606.107 65.55 606.209 65.606C606.312 65.6527 606.424 65.676 606.545 65.676C606.704 65.676 606.839 65.6247 606.951 65.522C607.063 65.4193 607.133 65.27 607.161 65.074H607.889C607.833 65.5407 607.679 65.9 607.427 66.152C607.175 66.404 606.863 66.53 606.489 66.53C606.312 66.53 606.153 66.502 606.013 66.446C605.883 66.3807 605.733 66.2873 605.565 66.166C605.416 66.0727 605.295 66.0027 605.201 65.956C605.117 65.9093 605.015 65.886 604.893 65.886C604.735 65.886 604.599 65.9373 604.487 66.04C604.385 66.1427 604.319 66.2967 604.291 66.502H603.549ZM614.746 75.126C614.028 75.126 613.374 74.9627 612.786 74.636C612.208 74.3093 611.75 73.8473 611.414 73.25C611.088 72.6433 610.924 71.9433 610.924 71.15C610.924 70.366 611.092 69.6753 611.428 69.078C611.774 68.4713 612.24 68.0093 612.828 67.692C613.416 67.3653 614.074 67.202 614.802 67.202C615.53 67.202 616.188 67.3653 616.776 67.692C617.364 68.0093 617.826 68.4667 618.162 69.064C618.508 69.6613 618.68 70.3567 618.68 71.15C618.68 71.9433 618.503 72.6433 618.148 73.25C617.803 73.8473 617.332 74.3093 616.734 74.636C616.137 74.9627 615.474 75.126 614.746 75.126ZM614.746 74.006C615.204 74.006 615.633 73.8987 616.034 73.684C616.436 73.4693 616.758 73.1473 617 72.718C617.252 72.2887 617.378 71.766 617.378 71.15C617.378 70.534 617.257 70.0113 617.014 69.582C616.772 69.1527 616.454 68.8353 616.062 68.63C615.67 68.4153 615.246 68.308 614.788 68.308C614.322 68.308 613.892 68.4153 613.5 68.63C613.118 68.8353 612.81 69.1527 612.576 69.582C612.343 70.0113 612.226 70.534 612.226 71.15C612.226 71.7753 612.338 72.3027 612.562 72.732C612.796 73.1613 613.104 73.4833 613.486 73.698C613.869 73.9033 614.289 74.006 614.746 74.006ZM621.671 73.236L620.103 77.002H619.249L620.271 73.236H621.671ZM159.882 88.328V96H158.608V94.866C158.365 95.258 158.025 95.566 157.586 95.79C157.157 96.0047 156.681 96.112 156.158 96.112C155.561 96.112 155.024 95.9907 154.548 95.748C154.072 95.496 153.694 95.1227 153.414 94.628C153.143 94.1333 153.008 93.5313 153.008 92.822V88.328H154.268V92.654C154.268 93.41 154.459 93.9933 154.842 94.404C155.225 94.8053 155.747 95.006 156.41 95.006C157.091 95.006 157.628 94.796 158.02 94.376C158.412 93.956 158.608 93.3447 158.608 92.542V88.328H159.882ZM163.587 89.378V93.9C163.587 94.2733 163.666 94.5393 163.825 94.698C163.984 94.8473 164.259 94.922 164.651 94.922H165.589V96H164.441C163.732 96 163.2 95.8367 162.845 95.51C162.49 95.1833 162.313 94.6467 162.313 93.9V89.378H161.319V88.328H162.313V86.396H163.587V88.328H165.589V89.378H163.587ZM167.791 87.082C167.548 87.082 167.343 86.998 167.175 86.83C167.007 86.662 166.923 86.4567 166.923 86.214C166.923 85.9713 167.007 85.766 167.175 85.598C167.343 85.43 167.548 85.346 167.791 85.346C168.024 85.346 168.22 85.43 168.379 85.598C168.547 85.766 168.631 85.9713 168.631 86.214C168.631 86.4567 168.547 86.662 168.379 86.83C168.22 86.998 168.024 87.082 167.791 87.082ZM168.407 88.328V96H167.133V88.328H168.407ZM171.852 85.64V96H170.578V85.64H171.852ZM174.681 87.082C174.439 87.082 174.233 86.998 174.065 86.83C173.897 86.662 173.813 86.4567 173.813 86.214C173.813 85.9713 173.897 85.766 174.065 85.598C174.233 85.43 174.439 85.346 174.681 85.346C174.915 85.346 175.111 85.43 175.269 85.598C175.437 85.766 175.521 85.9713 175.521 86.214C175.521 86.4567 175.437 86.662 175.269 86.83C175.111 86.998 174.915 87.082 174.681 87.082ZM175.297 88.328V96H174.023V88.328H175.297ZM178.421 94.95H182.187V96H176.965V94.95L180.689 89.364H176.993V88.328H182.159V89.364L178.421 94.95ZM183.364 92.136C183.364 91.352 183.522 90.666 183.84 90.078C184.157 89.4807 184.591 89.0187 185.142 88.692C185.702 88.3653 186.322 88.202 187.004 88.202C187.676 88.202 188.259 88.3467 188.754 88.636C189.248 88.9253 189.617 89.2893 189.86 89.728V88.328H191.148V96H189.86V94.572C189.608 95.02 189.23 95.3933 188.726 95.692C188.231 95.9813 187.652 96.126 186.99 96.126C186.308 96.126 185.692 95.958 185.142 95.622C184.591 95.286 184.157 94.8147 183.84 94.208C183.522 93.6013 183.364 92.9107 183.364 92.136ZM189.86 92.15C189.86 91.5713 189.743 91.0673 189.51 90.638C189.276 90.2087 188.959 89.882 188.558 89.658C188.166 89.4247 187.732 89.308 187.256 89.308C186.78 89.308 186.346 89.42 185.954 89.644C185.562 89.868 185.249 90.1947 185.016 90.624C184.782 91.0533 184.666 91.5573 184.666 92.136C184.666 92.724 184.782 93.2373 185.016 93.676C185.249 94.1053 185.562 94.4367 185.954 94.67C186.346 94.894 186.78 95.006 187.256 95.006C187.732 95.006 188.166 94.894 188.558 94.67C188.959 94.4367 189.276 94.1053 189.51 93.676C189.743 93.2373 189.86 92.7287 189.86 92.15ZM197.039 88.188C197.972 88.188 198.728 88.4727 199.307 89.042C199.885 89.602 200.175 90.414 200.175 91.478V96H198.915V91.66C198.915 90.8947 198.723 90.3113 198.341 89.91C197.958 89.4993 197.435 89.294 196.773 89.294C196.101 89.294 195.564 89.504 195.163 89.924C194.771 90.344 194.575 90.9553 194.575 91.758V96H193.301V88.328H194.575V89.42C194.827 89.028 195.167 88.7247 195.597 88.51C196.035 88.2953 196.516 88.188 197.039 88.188ZM201.78 92.136C201.78 91.352 201.938 90.666 202.256 90.078C202.573 89.4807 203.007 89.0187 203.558 88.692C204.118 88.3653 204.743 88.202 205.434 88.202C206.031 88.202 206.586 88.342 207.1 88.622C207.613 88.8927 208.005 89.252 208.276 89.7V85.64H209.564V96H208.276V94.558C208.024 95.0153 207.65 95.3933 207.156 95.692C206.661 95.9813 206.082 96.126 205.42 96.126C204.738 96.126 204.118 95.958 203.558 95.622C203.007 95.286 202.573 94.8147 202.256 94.208C201.938 93.6013 201.78 92.9107 201.78 92.136ZM208.276 92.15C208.276 91.5713 208.159 91.0673 207.926 90.638C207.692 90.2087 207.375 89.882 206.974 89.658C206.582 89.4247 206.148 89.308 205.672 89.308C205.196 89.308 204.762 89.42 204.37 89.644C203.978 89.868 203.665 90.1947 203.432 90.624C203.198 91.0533 203.082 91.5573 203.082 92.136C203.082 92.724 203.198 93.2373 203.432 93.676C203.665 94.1053 203.978 94.4367 204.37 94.67C204.762 94.894 205.196 95.006 205.672 95.006C206.148 95.006 206.582 94.894 206.974 94.67C207.375 94.4367 207.692 94.1053 207.926 93.676C208.159 93.2373 208.276 92.7287 208.276 92.15ZM215.063 96.126C214.344 96.126 213.691 95.9627 213.103 95.636C212.524 95.3093 212.067 94.8473 211.731 94.25C211.404 93.6433 211.241 92.9433 211.241 92.15C211.241 91.366 211.409 90.6753 211.745 90.078C212.09 89.4713 212.557 89.0093 213.145 88.692C213.733 88.3653 214.391 88.202 215.119 88.202C215.847 88.202 216.505 88.3653 217.093 88.692C217.681 89.0093 218.143 89.4667 218.479 90.064C218.824 90.6613 218.997 91.3567 218.997 92.15C218.997 92.9433 218.819 93.6433 218.465 94.25C218.119 94.8473 217.648 95.3093 217.051 95.636C216.453 95.9627 215.791 96.126 215.063 96.126ZM215.063 95.006C215.52 95.006 215.949 94.8987 216.351 94.684C216.752 94.4693 217.074 94.1473 217.317 93.718C217.569 93.2887 217.695 92.766 217.695 92.15C217.695 91.534 217.573 91.0113 217.331 90.582C217.088 90.1527 216.771 89.8353 216.379 89.63C215.987 89.4153 215.562 89.308 215.105 89.308C214.638 89.308 214.209 89.4153 213.817 89.63C213.434 89.8353 213.126 90.1527 212.893 90.582C212.659 91.0113 212.543 91.534 212.543 92.15C212.543 92.7753 212.655 93.3027 212.879 93.732C213.112 94.1613 213.42 94.4833 213.803 94.698C214.185 94.9033 214.605 95.006 215.063 95.006ZM225.678 89.742C225.93 89.3033 226.304 88.9393 226.798 88.65C227.302 88.3513 227.886 88.202 228.548 88.202C229.23 88.202 229.846 88.3653 230.396 88.692C230.956 89.0187 231.395 89.4807 231.712 90.078C232.03 90.666 232.188 91.352 232.188 92.136C232.188 92.9107 232.03 93.6013 231.712 94.208C231.395 94.8147 230.956 95.286 230.396 95.622C229.846 95.958 229.23 96.126 228.548 96.126C227.895 96.126 227.316 95.9813 226.812 95.692C226.318 95.3933 225.94 95.0247 225.678 94.586V99.64H224.404V88.328H225.678V89.742ZM230.886 92.136C230.886 91.5573 230.77 91.0533 230.536 90.624C230.303 90.1947 229.986 89.868 229.584 89.644C229.192 89.42 228.758 89.308 228.282 89.308C227.816 89.308 227.382 89.4247 226.98 89.658C226.588 89.882 226.271 90.2133 226.028 90.652C225.795 91.0813 225.678 91.5807 225.678 92.15C225.678 92.7287 225.795 93.2373 226.028 93.676C226.271 94.1053 226.588 94.4367 226.98 94.67C227.382 94.894 227.816 95.006 228.282 95.006C228.758 95.006 229.192 94.894 229.584 94.67C229.986 94.4367 230.303 94.1053 230.536 93.676C230.77 93.2373 230.886 92.724 230.886 92.136ZM240.473 88.328L235.853 99.612H234.537L236.049 95.916L232.955 88.328H234.369L236.777 94.544L239.157 88.328H240.473ZM243.308 89.378V93.9C243.308 94.2733 243.387 94.5393 243.546 94.698C243.704 94.8473 243.98 94.922 244.372 94.922H245.31V96H244.162C243.452 96 242.92 95.8367 242.566 95.51C242.211 95.1833 242.034 94.6467 242.034 93.9V89.378H241.04V88.328H242.034V86.396H243.308V88.328H245.31V89.378H243.308ZM250.661 88.188C251.24 88.188 251.763 88.314 252.229 88.566C252.696 88.8087 253.06 89.1773 253.321 89.672C253.592 90.1667 253.727 90.7687 253.727 91.478V96H252.467V91.66C252.467 90.8947 252.276 90.3113 251.893 89.91C251.511 89.4993 250.988 89.294 250.325 89.294C249.653 89.294 249.117 89.504 248.715 89.924C248.323 90.344 248.127 90.9553 248.127 91.758V96H246.853V85.64H248.127V89.42C248.379 89.028 248.725 88.7247 249.163 88.51C249.611 88.2953 250.111 88.188 250.661 88.188ZM259.154 96.126C258.436 96.126 257.782 95.9627 257.194 95.636C256.616 95.3093 256.158 94.8473 255.822 94.25C255.496 93.6433 255.332 92.9433 255.332 92.15C255.332 91.366 255.5 90.6753 255.836 90.078C256.182 89.4713 256.648 89.0093 257.236 88.692C257.824 88.3653 258.482 88.202 259.21 88.202C259.938 88.202 260.596 88.3653 261.184 88.692C261.772 89.0093 262.234 89.4667 262.57 90.064C262.916 90.6613 263.088 91.3567 263.088 92.15C263.088 92.9433 262.911 93.6433 262.556 94.25C262.211 94.8473 261.74 95.3093 261.142 95.636C260.545 95.9627 259.882 96.126 259.154 96.126ZM259.154 95.006C259.612 95.006 260.041 94.8987 260.442 94.684C260.844 94.4693 261.166 94.1473 261.408 93.718C261.66 93.2887 261.786 92.766 261.786 92.15C261.786 91.534 261.665 91.0113 261.422 90.582C261.18 90.1527 260.862 89.8353 260.47 89.63C260.078 89.4153 259.654 89.308 259.196 89.308C258.73 89.308 258.3 89.4153 257.908 89.63C257.526 89.8353 257.218 90.1527 256.984 90.582C256.751 91.0113 256.634 91.534 256.634 92.15C256.634 92.7753 256.746 93.3027 256.97 93.732C257.204 94.1613 257.512 94.4833 257.894 94.698C258.277 94.9033 258.697 95.006 259.154 95.006ZM268.502 88.188C269.435 88.188 270.191 88.4727 270.77 89.042C271.348 89.602 271.638 90.414 271.638 91.478V96H270.378V91.66C270.378 90.8947 270.186 90.3113 269.804 89.91C269.421 89.4993 268.898 89.294 268.236 89.294C267.564 89.294 267.027 89.504 266.626 89.924C266.234 90.344 266.038 90.9553 266.038 91.758V96H264.764V88.328H266.038V89.42C266.29 89.028 266.63 88.7247 267.06 88.51C267.498 88.2953 267.979 88.188 268.502 88.188ZM274.125 96.084C273.882 96.084 273.677 96 273.509 95.832C273.341 95.664 273.257 95.4587 273.257 95.216C273.257 94.9733 273.341 94.768 273.509 94.6C273.677 94.432 273.882 94.348 274.125 94.348C274.358 94.348 274.554 94.432 274.713 94.6C274.881 94.768 274.965 94.9733 274.965 95.216C274.965 95.4587 274.881 95.664 274.713 95.832C274.554 96 274.358 96.084 274.125 96.084Z" fill="#A3A5AE"/>
<defs>
<filter id="filter0_ddi" x="5" y="10" width="820" height="125" filterUnits="userSpaceOnUse" color-interpolation-filters="sRGB">
<feFlood flood-opacity="0" result="BackgroundImageFix"/>
<feColorMatrix in="SourceAlpha" type="matrix" values="0 0 0 0 0 0 0 0 0 0 0 0 0 0 0 0 0 0 127 0"/>
<feMorphology radius="10" operator="erode" in="SourceAlpha" result="effect1_dropShadow"/>
<feOffset dy="15"/>
<feGaussianBlur stdDeviation="10"/>
<feColorMatrix type="matrix" values="0 0 0 0 1 0 0 0 0 1 0 0 0 0 1 0 0 0 0.5 0"/>
<feBlend mode="normal" in2="BackgroundImageFix" result="effect1_dropShadow"/>
<feColorMatrix in="SourceAlpha" type="matrix" values="0 0 0 0 0 0 0 0 0 0 0 0 0 0 0 0 0 0 127 0"/>
<feMorphology radius="10" operator="erode" in="SourceAlpha" result="effect2_dropShadow"/>
<feOffset dy="15"/>
<feGaussianBlur stdDeviation="10"/>
<feColorMatrix type="matrix" values="0 0 0 0 0 0 0 0 0 0 0 0 0 0 0 0 0 0 0.25 0"/>
<feBlend mode="normal" in2="effect1_dropShadow" result="effect2_dropShadow"/>
<feBlend mode="normal" in="SourceGraphic" in2="effect2_dropShadow" result="shape"/>
<feColorMatrix in="SourceAlpha" type="matrix" values="0 0 0 0 0 0 0 0 0 0 0 0 0 0 0 0 0 0 127 0" result="hardAlpha"/>
<feOffset dy="3"/>
<feComposite in2="hardAlpha" operator="arithmetic" k2="-1" k3="1"/>
<feColorMatrix type="matrix" values="0 0 0 0 0.988235 0 0 0 0 0.686275 0 0 0 0 0.290196 0 0 0 1 0"/>
<feBlend mode="normal" in2="shape" result="effect3_innerShadow"/>
</filter>
</defs>
</svg>
