<?xml version="1.0" encoding="UTF-8" standalone="no"?>
<!-- Created with Inkscape (http://www.inkscape.org/) -->

<svg
   version="1.1"
   id="svg2"
   width="512"
   height="512"
   viewBox="0 0 512 512"
   xmlns="http://www.w3.org/2000/svg"
   xmlns:svg="http://www.w3.org/2000/svg">
  <defs
     id="defs6" />
  <g
     id="g8">
    <path
       style="fill:#000000"
       d="m 203.18856,509.96104 c -1.20371,-1.12142 -2.26241,-2.13392 -2.35266,-2.25 -0.0903,-0.11607 -0.43251,-11.01104 -0.76057,-24.21104 -0.59361,-23.88516 -0.61001,-24.02582 -3.42724,-29.39701 -1.72261,-3.28424 -6.12743,-8.54248 -11.25199,-13.43202 -9.47287,-9.03844 -13.4779,-14.68906 -16.37071,-23.09716 C 166.74337,410.941 154.85421,302.21679 154.91097,288.5 c 0.0706,-17.07182 4.91541,-26.48048 23.18504,-45.02596 l 13.81734,-14.02596 0.31496,-61.97404 c 0.35829,-70.499898 -0.0269,-67.15659 8.85768,-76.877746 6.54407,-7.16026 12.95014,-9.96183 22.91978,-10.023528 9.43616,-0.0584 16.83718,3.231864 23.19684,10.312592 8.05283,8.965864 7.80793,6.56891 7.80234,76.364642 -0.003,33.9625 0.17091,61.75 0.38585,61.75 0.21493,0 2.35243,-0.89012 4.75,-1.97804 3.09483,-1.40431 6.56073,-1.98441 11.94948,-2 6.50834,-0.0188 8.47209,0.41869 13.77656,3.06937 3.66486,1.83134 7.64455,4.83586 9.76409,7.37151 l 3.57779,4.28018 6.4683,-3.37151 C 311.4022,233.38735 313.03773,233 319.91294,233 c 6.66569,0 8.63732,0.4346 13.89827,3.06352 3.4885,1.74323 7.82647,4.99009 10.06553,7.53378 l 3.93488,4.47027 3.71268,-2.5195 c 2.04198,-1.38572 5.34687,-2.97342 7.3442,-3.52821 5.41116,-1.50304 15.15758,-1.23031 20.44756,0.57217 6.37702,2.17286 13.96747,9.24885 17.38358,16.20536 L 399.5,264.5 399.8099,323 c 0.32476,61.30676 -0.14345,71.3418 -3.90192,83.62874 -1.15602,3.77919 -5.43751,13.86686 -9.51442,22.41704 -9.73688,20.4204 -10.35444,23.56015 -10.3762,52.75388 -0.0138,18.4671 -0.3208,23.88645 -1.48037,26.12882 -2.39168,4.625 -6.61678,5.3698 -10.98221,1.93595 l -2.71494,-2.13557 0.40998,-28.11443 c 0.48568,-33.30597 0.7273,-34.46191 12.25175,-58.61443 11.63174,-24.37739 10.82303,-17.97516 11.23892,-88.97404 0.32131,-54.85238 0.18537,-61.93157 -1.26204,-65.72157 -3.8316,-10.03289 -15.67301,-13.80959 -24.71753,-7.88339 -5.2759,3.4569 -6.18086,6.10487 -6.74092,19.72441 C 351.41472,292.86469 350.38621,295 343.90172,295 c -6.1881,0 -6.89794,-1.94512 -6.92368,-18.97251 -0.0181,-11.97462 -0.34748,-15.24421 -1.87437,-18.60609 -4.3171,-9.50532 -15.57757,-12.74357 -24.34275,-7.0004 -5.32091,3.48639 -6.22018,6.10288 -6.79008,19.75623 C 303.3557,284.91433 302.3553,287 295.90172,287 c -6.11826,0 -6.90073,-2.03595 -6.9073,-17.97251 -0.006,-15.71457 -0.99762,-20.23069 -5.4079,-24.64097 -5.93044,-5.93044 -15.37527,-6.48693 -21.97595,-1.29483 -4.79828,3.77432 -5.94016,7.41347 -6.40365,20.40831 -0.49059,13.75478 -1.30206,15.5 -7.20692,15.5 -7.42089,0 -6.91246,6.16319 -7.22237,-87.5482 -0.25708,-77.73641 -0.40711,-84.18859 -2.02658,-87.15011 -3.84834,-7.037472 -12.80452,-10.759265 -20.09849,-8.35204 -4.41342,1.456562 -9.20712,6.78454 -10.59243,11.77302 -0.70014,2.52117 -1.05083,37.57776 -1.05455,105.41655 -0.005,97.2818 -0.0846,101.73685 -1.84975,103.91666 -2.43435,3.0063 -7.49663,3.04722 -10.46139,0.0846 -2.1456,-2.14409 -2.20557,-2.90726 -2.69444,-34.29141 l -0.5,-32.09851 -7.84659,8.21488 c -8.68693,9.09465 -12.3707,15.79934 -13.63955,24.82479 -0.61762,4.3932 0.6577,19.60885 5.53077,65.9868 7.51501,71.52188 6.20494,66.52013 21.27408,81.223 10.20502,9.95699 14.86626,17.31856 17.096,27 0.57002,2.475 1.0474,14.70484 1.06084,27.17742 l 0.0245,22.67742 -2.63486,2.07258 c -3.33462,2.62301 -6.3852,2.63419 -9.17658,0.0336 z M 165,206.26004 c -0.825,-0.32013 -3.975,-2.39713 -7,-4.61555 C 126.24818,178.35893 108.66751,138.73505 112.96852,100.15114 118.46611,50.832939 153.76091,12.505657 203.5,1.8413311 c 7.72743,-1.65680258 33.22007,-1.66442288 41,-0.012256 46.00073,9.7688399 79.41011,43.0477539 89.01853,88.6709249 2.35872,11.19976 2.19109,32.11892 -0.35257,44 -5.98331,27.94709 -22.85713,53.35856 -45.52991,68.56667 -6.70223,4.49561 -8.33055,4.74808 -12.00119,1.86075 -1.86824,-1.46956 -2.6304,-2.99706 -2.61955,-5.25 0.0199,-4.12427 0.15221,-4.28382 9.08538,-10.95429 27.06492,-20.2096 41.83134,-54.27478 37.88047,-87.38782 C 317.2141,78.144039 307.48433,58.450655 290.85914,42.391341 273.57738,25.697804 253.40025,16.812472 229.42564,15.338098 c -27.51723,-1.692235 -53.82116,8.303261 -73.51536,27.935837 -36.72811,36.613202 -38.23644,94.805435 -3.45934,133.463335 2.59133,2.8805 8.72496,8.40317 13.63028,12.27259 8.10122,6.39042 8.91878,7.34744 8.91878,10.44015 0,5.19539 -5.14016,8.69586 -10,6.81003 z m -1.67909,-57.74782 c -2.54127,-1.77997 -7.61537,-13.6554 -9.40532,-22.01222 -0.70683,-3.3 -1.27273,-10.275 -1.25756,-15.5 0.0949,-32.689388 22.76606,-61.002181 55.34197,-69.113663 7.76822,-1.934305 25.91848,-1.665964 34,0.502672 31.51479,8.456841 53.06528,36.523698 53.06528,69.110991 0,14.11515 -4.66181,31.09653 -10.00308,36.4378 -2.67749,2.67749 -7.46278,2.66162 -10.15809,-0.0337 -2.62801,-2.62801 -2.22579,-6.89518 1.46497,-15.54202 8.53426,-19.99434 3.62525,-44.140912 -12.2607,-60.308355 -21.96652,-22.355759 -57.859,-22.452691 -79.9806,-0.215998 -10.02117,10.073306 -15.26391,21.372999 -16.64674,35.878743 -0.77656,8.14599 1.48273,20.30511 5.09885,27.44118 1.33106,2.62672 2.42011,6.12328 2.42011,7.77014 0,5.77799 -6.7766,9.01826 -11.67909,5.58442 z"
       id="path128" />
  </g>
</svg>
