<svg width="830" height="140" viewBox="0 0 830 140" fill="none" xmlns="http://www.w3.org/2000/svg">
<g filter="url(#filter0_ddi)">
<rect x="15" y="10" width="800" height="100" rx="5" fill="#FAFAFA"/>
</g>
<path d="M94 42.454V84.242H30V42.454L33.75 38.667H90.25L94 42.454Z" fill="#EFEFF4"/>
<path d="M94 42.454V84.242H62V38.667H90.25L94 42.454Z" fill="#DADAE5"/>
<path d="M30 28H94V43.515H30V28Z" fill="#474F54"/>
<path d="M62 28H94V43.515H62V28Z" fill="#32393F"/>
<path d="M37.758 33.818H41.443V37.697H37.758V33.818ZM45.128 33.818H48.813V37.697H45.128V33.818ZM52.497 33.818H56.182V37.697H52.497V33.818Z" fill="#FF637B"/>
<path d="M75.576 70.245V92H64.355V88.29H60.615V92H49.394V70.245L60.764 60.97H63.869L75.576 70.245Z" fill="#FF637B"/>
<path d="M41.636 50.303H83.333V54.182H41.636V50.303Z" fill="#DADAE5"/>
<path d="M62 50.303H82.364V54.182H62V50.303Z" fill="#C9C9D3"/>
<path d="M75.576 70.245V92H63.939V88.29H62V60.97H63.435L75.576 70.245Z" fill="#E63950"/>
<path d="M60.061 73.576H63.939V77.455H60.061V73.576Z" fill="#EFEFF4"/>
<path d="M62 73.576H63.939V77.455H62V73.576Z" fill="#DADAE5"/>
<path d="M80.424 73.779L77.972 76.485L62.485 62.959L46.997 76.485L44.545 73.779L62.485 58.061L80.424 73.779Z" fill="#676E74"/>
<path d="M62 58.061L80.424 73.779L77.906 76.485L62 62.959V58.061Z" fill="#474F54"/>
<path d="M159.512 33.248C161.272 33.248 162.816 33.592 164.144 34.28C165.488 34.968 166.52 35.952 167.24 37.232C167.976 38.496 168.344 39.968 168.344 41.648C168.344 43.328 167.976 44.8 167.24 46.064C166.52 47.312 165.488 48.28 164.144 48.968C162.816 49.656 161.272 50 159.512 50H153.656V33.248H159.512ZM159.392 47.144C161.152 47.144 162.512 46.664 163.472 45.704C164.432 44.744 164.912 43.392 164.912 41.648C164.912 39.904 164.432 38.544 163.472 37.568C162.512 36.576 161.152 36.08 159.392 36.08H157.016V47.144H159.392ZM183.219 43.064C183.219 43.544 183.187 43.976 183.123 44.36H173.403C173.483 45.32 173.819 46.072 174.411 46.616C175.003 47.16 175.731 47.432 176.595 47.432C177.843 47.432 178.731 46.896 179.259 45.824H182.883C182.499 47.104 181.763 48.16 180.675 48.992C179.587 49.808 178.251 50.216 176.667 50.216C175.387 50.216 174.235 49.936 173.211 49.376C172.203 48.8 171.411 47.992 170.835 46.952C170.275 45.912 169.995 44.712 169.995 43.352C169.995 41.976 170.275 40.768 170.835 39.728C171.395 38.688 172.179 37.888 173.187 37.328C174.195 36.768 175.355 36.488 176.667 36.488C177.931 36.488 179.059 36.76 180.051 37.304C181.059 37.848 181.835 38.624 182.379 39.632C182.939 40.624 183.219 41.768 183.219 43.064ZM179.739 42.104C179.723 41.24 179.411 40.552 178.803 40.04C178.195 39.512 177.451 39.248 176.571 39.248C175.739 39.248 175.035 39.504 174.459 40.016C173.899 40.512 173.555 41.208 173.427 42.104H179.739ZM190.76 50.216C189.672 50.216 188.696 50.024 187.832 49.64C186.968 49.24 186.28 48.704 185.768 48.032C185.272 47.36 185 46.616 184.952 45.8H188.336C188.4 46.312 188.648 46.736 189.08 47.072C189.528 47.408 190.08 47.576 190.736 47.576C191.376 47.576 191.872 47.448 192.224 47.192C192.592 46.936 192.776 46.608 192.776 46.208C192.776 45.776 192.552 45.456 192.104 45.248C191.672 45.024 190.976 44.784 190.016 44.528C189.024 44.288 188.208 44.04 187.568 43.784C186.944 43.528 186.4 43.136 185.936 42.608C185.488 42.08 185.264 41.368 185.264 40.472C185.264 39.736 185.472 39.064 185.888 38.456C186.32 37.848 186.928 37.368 187.712 37.016C188.512 36.664 189.448 36.488 190.52 36.488C192.104 36.488 193.368 36.888 194.312 37.688C195.256 38.472 195.776 39.536 195.872 40.88H192.656C192.608 40.352 192.384 39.936 191.984 39.632C191.6 39.312 191.08 39.152 190.424 39.152C189.816 39.152 189.344 39.264 189.008 39.488C188.688 39.712 188.528 40.024 188.528 40.424C188.528 40.872 188.752 41.216 189.2 41.456C189.648 41.68 190.344 41.912 191.288 42.152C192.248 42.392 193.04 42.64 193.664 42.896C194.288 43.152 194.824 43.552 195.272 44.096C195.736 44.624 195.976 45.328 195.992 46.208C195.992 46.976 195.776 47.664 195.344 48.272C194.928 48.88 194.32 49.36 193.52 49.712C192.736 50.048 191.816 50.216 190.76 50.216ZM211.11 43.064C211.11 43.544 211.078 43.976 211.014 44.36H201.294C201.374 45.32 201.71 46.072 202.302 46.616C202.894 47.16 203.622 47.432 204.486 47.432C205.734 47.432 206.622 46.896 207.15 45.824H210.774C210.39 47.104 209.654 48.16 208.566 48.992C207.478 49.808 206.142 50.216 204.558 50.216C203.278 50.216 202.126 49.936 201.102 49.376C200.094 48.8 199.302 47.992 198.726 46.952C198.166 45.912 197.886 44.712 197.886 43.352C197.886 41.976 198.166 40.768 198.726 39.728C199.286 38.688 200.07 37.888 201.078 37.328C202.086 36.768 203.246 36.488 204.558 36.488C205.822 36.488 206.95 36.76 207.942 37.304C208.95 37.848 209.726 38.624 210.27 39.632C210.83 40.624 211.11 41.768 211.11 43.064ZM207.63 42.104C207.614 41.24 207.302 40.552 206.694 40.04C206.086 39.512 205.342 39.248 204.462 39.248C203.63 39.248 202.926 39.504 202.35 40.016C201.79 40.512 201.446 41.208 201.318 42.104H207.63ZM220.93 36.512C222.514 36.512 223.794 37.016 224.77 38.024C225.746 39.016 226.234 40.408 226.234 42.2V50H222.874V42.656C222.874 41.6 222.61 40.792 222.082 40.232C221.554 39.656 220.834 39.368 219.922 39.368C218.994 39.368 218.258 39.656 217.714 40.232C217.186 40.792 216.922 41.6 216.922 42.656V50H213.562V36.704H216.922V38.36C217.37 37.784 217.938 37.336 218.626 37.016C219.33 36.68 220.098 36.512 220.93 36.512ZM234.973 46.904L238.333 36.704H241.909L236.989 50H232.909L228.013 36.704H231.613L234.973 46.904ZM249.701 50.216C248.421 50.216 247.269 49.936 246.245 49.376C245.221 48.8 244.413 47.992 243.821 46.952C243.245 45.912 242.957 44.712 242.957 43.352C242.957 41.992 243.253 40.792 243.845 39.752C244.453 38.712 245.277 37.912 246.317 37.352C247.357 36.776 248.517 36.488 249.797 36.488C251.077 36.488 252.237 36.776 253.277 37.352C254.317 37.912 255.133 38.712 255.725 39.752C256.333 40.792 256.637 41.992 256.637 43.352C256.637 44.712 256.325 45.912 255.701 46.952C255.093 47.992 254.261 48.8 253.205 49.376C252.165 49.936 250.997 50.216 249.701 50.216ZM249.701 47.288C250.309 47.288 250.877 47.144 251.405 46.856C251.949 46.552 252.381 46.104 252.701 45.512C253.021 44.92 253.181 44.2 253.181 43.352C253.181 42.088 252.845 41.12 252.173 40.448C251.517 39.76 250.709 39.416 249.749 39.416C248.789 39.416 247.981 39.76 247.325 40.448C246.685 41.12 246.365 42.088 246.365 43.352C246.365 44.616 246.677 45.592 247.301 46.28C247.941 46.952 248.741 47.288 249.701 47.288ZM262.461 32.24V50H259.101V32.24H262.461ZM271.325 46.904L274.685 36.704H278.261L273.341 50H269.261L264.365 36.704H267.965L271.325 46.904ZM281.852 35.12C281.26 35.12 280.764 34.936 280.364 34.568C279.98 34.184 279.788 33.712 279.788 33.152C279.788 32.592 279.98 32.128 280.364 31.76C280.764 31.376 281.26 31.184 281.852 31.184C282.444 31.184 282.932 31.376 283.316 31.76C283.716 32.128 283.916 32.592 283.916 33.152C283.916 33.712 283.716 34.184 283.316 34.568C282.932 34.936 282.444 35.12 281.852 35.12ZM283.508 36.704V50H280.148V36.704H283.508ZM303.34 36.512C304.972 36.512 306.284 37.016 307.276 38.024C308.284 39.016 308.788 40.408 308.788 42.2V50H305.428V42.656C305.428 41.616 305.164 40.824 304.636 40.28C304.108 39.72 303.388 39.44 302.476 39.44C301.564 39.44 300.836 39.72 300.292 40.28C299.764 40.824 299.5 41.616 299.5 42.656V50H296.14V42.656C296.14 41.616 295.876 40.824 295.348 40.28C294.82 39.72 294.1 39.44 293.188 39.44C292.26 39.44 291.524 39.72 290.98 40.28C290.452 40.824 290.188 41.616 290.188 42.656V50H286.828V36.704H290.188V38.312C290.62 37.752 291.172 37.312 291.844 36.992C292.532 36.672 293.284 36.512 294.1 36.512C295.14 36.512 296.068 36.736 296.884 37.184C297.7 37.616 298.332 38.24 298.78 39.056C299.212 38.288 299.836 37.672 300.652 37.208C301.484 36.744 302.38 36.512 303.34 36.512ZM324.336 43.064C324.336 43.544 324.304 43.976 324.24 44.36H314.52C314.6 45.32 314.936 46.072 315.528 46.616C316.12 47.16 316.848 47.432 317.712 47.432C318.96 47.432 319.848 46.896 320.376 45.824H324C323.616 47.104 322.88 48.16 321.792 48.992C320.704 49.808 319.368 50.216 317.784 50.216C316.504 50.216 315.352 49.936 314.328 49.376C313.32 48.8 312.528 47.992 311.952 46.952C311.392 45.912 311.112 44.712 311.112 43.352C311.112 41.976 311.392 40.768 311.952 39.728C312.512 38.688 313.296 37.888 314.304 37.328C315.312 36.768 316.472 36.488 317.784 36.488C319.048 36.488 320.176 36.76 321.168 37.304C322.176 37.848 322.952 38.624 323.496 39.632C324.056 40.624 324.336 41.768 324.336 43.064ZM320.856 42.104C320.84 41.24 320.528 40.552 319.92 40.04C319.312 39.512 318.568 39.248 317.688 39.248C316.856 39.248 316.152 39.504 315.576 40.016C315.016 40.512 314.672 41.208 314.544 42.104H320.856ZM334.157 36.512C335.741 36.512 337.021 37.016 337.997 38.024C338.973 39.016 339.461 40.408 339.461 42.2V50H336.101V42.656C336.101 41.6 335.837 40.792 335.309 40.232C334.781 39.656 334.061 39.368 333.149 39.368C332.221 39.368 331.485 39.656 330.941 40.232C330.413 40.792 330.149 41.6 330.149 42.656V50H326.789V36.704H330.149V38.36C330.597 37.784 331.165 37.336 331.853 37.016C332.557 36.68 333.325 36.512 334.157 36.512ZM346.568 39.464V45.896C346.568 46.344 346.672 46.672 346.88 46.88C347.104 47.072 347.472 47.168 347.984 47.168H349.544V50H347.432C344.6 50 343.184 48.624 343.184 45.872V39.464H341.6V36.704H343.184V33.416H346.568V36.704H349.544V39.464H346.568ZM357.865 50.216C356.585 50.216 355.433 49.936 354.409 49.376C353.385 48.8 352.577 47.992 351.985 46.952C351.409 45.912 351.121 44.712 351.121 43.352C351.121 41.992 351.417 40.792 352.009 39.752C352.617 38.712 353.441 37.912 354.481 37.352C355.521 36.776 356.681 36.488 357.961 36.488C359.241 36.488 360.401 36.776 361.441 37.352C362.481 37.912 363.297 38.712 363.889 39.752C364.497 40.792 364.801 41.992 364.801 43.352C364.801 44.712 364.489 45.912 363.865 46.952C363.257 47.992 362.425 48.8 361.369 49.376C360.329 49.936 359.161 50.216 357.865 50.216ZM357.865 47.288C358.473 47.288 359.041 47.144 359.569 46.856C360.113 46.552 360.545 46.104 360.865 45.512C361.185 44.92 361.345 44.2 361.345 43.352C361.345 42.088 361.009 41.12 360.337 40.448C359.681 39.76 358.873 39.416 357.913 39.416C356.953 39.416 356.145 39.76 355.489 40.448C354.849 41.12 354.529 42.088 354.529 43.352C354.529 44.616 354.841 45.592 355.465 46.28C356.105 46.952 356.905 47.288 357.865 47.288ZM379.08 39.464H376.752V50H373.344V39.464H371.832V36.704H373.344V36.032C373.344 34.4 373.808 33.2 374.736 32.432C375.664 31.664 377.064 31.304 378.936 31.352V34.184C378.12 34.168 377.552 34.304 377.232 34.592C376.912 34.88 376.752 35.4 376.752 36.152V36.704H379.08V39.464ZM384.618 38.768C385.05 38.064 385.61 37.512 386.298 37.112C387.002 36.712 387.802 36.512 388.698 36.512V40.04H387.81C386.754 40.04 385.954 40.288 385.41 40.784C384.882 41.28 384.618 42.144 384.618 43.376V50H381.258V36.704H384.618V38.768ZM396.865 50.216C395.585 50.216 394.433 49.936 393.409 49.376C392.385 48.8 391.577 47.992 390.985 46.952C390.409 45.912 390.121 44.712 390.121 43.352C390.121 41.992 390.417 40.792 391.009 39.752C391.617 38.712 392.441 37.912 393.481 37.352C394.521 36.776 395.681 36.488 396.961 36.488C398.241 36.488 399.401 36.776 400.441 37.352C401.481 37.912 402.297 38.712 402.889 39.752C403.497 40.792 403.801 41.992 403.801 43.352C403.801 44.712 403.489 45.912 402.865 46.952C402.257 47.992 401.425 48.8 400.369 49.376C399.329 49.936 398.161 50.216 396.865 50.216ZM396.865 47.288C397.473 47.288 398.041 47.144 398.569 46.856C399.113 46.552 399.545 46.104 399.865 45.512C400.185 44.92 400.345 44.2 400.345 43.352C400.345 42.088 400.009 41.12 399.337 40.448C398.681 39.76 397.873 39.416 396.913 39.416C395.953 39.416 395.145 39.76 394.489 40.448C393.849 41.12 393.529 42.088 393.529 43.352C393.529 44.616 393.841 45.592 394.465 46.28C395.105 46.952 395.905 47.288 396.865 47.288ZM413.633 36.512C415.217 36.512 416.497 37.016 417.473 38.024C418.449 39.016 418.937 40.408 418.937 42.2V50H415.577V42.656C415.577 41.6 415.313 40.792 414.785 40.232C414.257 39.656 413.537 39.368 412.625 39.368C411.697 39.368 410.961 39.656 410.417 40.232C409.889 40.792 409.625 41.6 409.625 42.656V50H406.265V36.704H409.625V38.36C410.073 37.784 410.641 37.336 411.329 37.016C412.033 36.68 412.801 36.512 413.633 36.512ZM426.045 39.464V45.896C426.045 46.344 426.149 46.672 426.357 46.88C426.581 47.072 426.949 47.168 427.461 47.168H429.021V50H426.909C424.077 50 422.661 48.624 422.661 45.872V39.464H421.077V36.704H422.661V33.416H426.045V36.704H429.021V39.464H426.045ZM441.661 40.016V42.848H431.485V40.016H441.661ZM457.789 43.064C457.789 43.544 457.757 43.976 457.693 44.36H447.973C448.053 45.32 448.389 46.072 448.981 46.616C449.573 47.16 450.301 47.432 451.165 47.432C452.413 47.432 453.301 46.896 453.829 45.824H457.453C457.069 47.104 456.333 48.16 455.245 48.992C454.157 49.808 452.821 50.216 451.237 50.216C449.957 50.216 448.805 49.936 447.781 49.376C446.773 48.8 445.981 47.992 445.405 46.952C444.845 45.912 444.565 44.712 444.565 43.352C444.565 41.976 444.845 40.768 445.405 39.728C445.965 38.688 446.749 37.888 447.757 37.328C448.765 36.768 449.925 36.488 451.237 36.488C452.501 36.488 453.629 36.76 454.621 37.304C455.629 37.848 456.405 38.624 456.949 39.632C457.509 40.624 457.789 41.768 457.789 43.064ZM454.309 42.104C454.293 41.24 453.981 40.552 453.373 40.04C452.765 39.512 452.021 39.248 451.141 39.248C450.309 39.248 449.605 39.504 449.029 40.016C448.469 40.512 448.125 41.208 447.997 42.104H454.309ZM467.61 36.512C469.194 36.512 470.474 37.016 471.45 38.024C472.426 39.016 472.914 40.408 472.914 42.2V50H469.554V42.656C469.554 41.6 469.29 40.792 468.762 40.232C468.234 39.656 467.514 39.368 466.602 39.368C465.674 39.368 464.938 39.656 464.394 40.232C463.866 40.792 463.602 41.6 463.602 42.656V50H460.242V36.704H463.602V38.36C464.05 37.784 464.618 37.336 465.306 37.016C466.01 36.68 466.778 36.512 467.61 36.512ZM475.245 43.304C475.245 41.96 475.509 40.768 476.037 39.728C476.581 38.688 477.317 37.888 478.245 37.328C479.173 36.768 480.205 36.488 481.341 36.488C482.205 36.488 483.029 36.68 483.813 37.064C484.597 37.432 485.221 37.928 485.685 38.552V32.24H489.093V50H485.685V48.032C485.269 48.688 484.685 49.216 483.933 49.616C483.181 50.016 482.309 50.216 481.317 50.216C480.197 50.216 479.173 49.928 478.245 49.352C477.317 48.776 476.581 47.968 476.037 46.928C475.509 45.872 475.245 44.664 475.245 43.304ZM485.709 43.352C485.709 42.536 485.549 41.84 485.229 41.264C484.909 40.672 484.477 40.224 483.933 39.92C483.389 39.6 482.805 39.44 482.181 39.44C481.557 39.44 480.981 39.592 480.453 39.896C479.925 40.2 479.493 40.648 479.157 41.24C478.837 41.816 478.677 42.504 478.677 43.304C478.677 44.104 478.837 44.808 479.157 45.416C479.493 46.008 479.925 46.464 480.453 46.784C480.997 47.104 481.573 47.264 482.181 47.264C482.805 47.264 483.389 47.112 483.933 46.808C484.477 46.488 484.909 46.04 485.229 45.464C485.549 44.872 485.709 44.168 485.709 43.352Z" fill="#4C4E61"/>
<path d="M154.352 66.278V69.54H157.908V70.59H154.352V73.95H158.328V75H153.078V65.228H158.328V66.278H154.352ZM164.26 75L162.44 72.144L160.69 75H159.36L161.838 71.192L159.36 67.328H160.802L162.622 70.17L164.358 67.328H165.688L163.224 71.122L165.702 75H164.26ZM173.955 70.87C173.955 71.1127 173.941 71.3693 173.913 71.64H167.781C167.828 72.396 168.084 72.9887 168.551 73.418C169.027 73.838 169.601 74.048 170.273 74.048C170.824 74.048 171.281 73.922 171.645 73.67C172.018 73.4087 172.28 73.0633 172.429 72.634H173.801C173.596 73.3713 173.185 73.9733 172.569 74.44C171.953 74.8973 171.188 75.126 170.273 75.126C169.545 75.126 168.892 74.9627 168.313 74.636C167.744 74.3093 167.296 73.8473 166.969 73.25C166.642 72.6433 166.479 71.9433 166.479 71.15C166.479 70.3567 166.638 69.6613 166.955 69.064C167.272 68.4667 167.716 68.0093 168.285 67.692C168.864 67.3653 169.526 67.202 170.273 67.202C171.001 67.202 171.645 67.3607 172.205 67.678C172.765 67.9953 173.194 68.434 173.493 68.994C173.801 69.5447 173.955 70.17 173.955 70.87ZM172.639 70.604C172.639 70.1187 172.532 69.7033 172.317 69.358C172.102 69.0033 171.808 68.7373 171.435 68.56C171.071 68.3733 170.665 68.28 170.217 68.28C169.573 68.28 169.022 68.4853 168.565 68.896C168.117 69.3067 167.86 69.876 167.795 70.604H172.639ZM176.911 68.574C177.135 68.1353 177.452 67.7947 177.863 67.552C178.283 67.3093 178.791 67.188 179.389 67.188V68.504H179.053C177.625 68.504 176.911 69.2787 176.911 70.828V75H175.637V67.328H176.911V68.574ZM180.383 71.15C180.383 70.3567 180.542 69.666 180.859 69.078C181.177 68.4807 181.615 68.0187 182.175 67.692C182.745 67.3653 183.393 67.202 184.121 67.202C185.064 67.202 185.839 67.4307 186.445 67.888C187.061 68.3453 187.467 68.98 187.663 69.792H186.291C186.161 69.3253 185.904 68.9567 185.521 68.686C185.148 68.4153 184.681 68.28 184.121 68.28C183.393 68.28 182.805 68.532 182.357 69.036C181.909 69.5307 181.685 70.2353 181.685 71.15C181.685 72.074 181.909 72.788 182.357 73.292C182.805 73.796 183.393 74.048 184.121 74.048C184.681 74.048 185.148 73.9173 185.521 73.656C185.895 73.3947 186.151 73.0213 186.291 72.536H187.663C187.458 73.32 187.047 73.95 186.431 74.426C185.815 74.8927 185.045 75.126 184.121 75.126C183.393 75.126 182.745 74.9627 182.175 74.636C181.615 74.3093 181.177 73.8473 180.859 73.25C180.542 72.6527 180.383 71.9527 180.383 71.15ZM190.637 67.328V75H189.363V67.328H190.637ZM191.365 65.158L188.383 66.754V65.802L191.365 64.052V65.158ZM192.332 71.15C192.332 70.3567 192.491 69.666 192.808 69.078C193.126 68.4807 193.564 68.0187 194.124 67.692C194.694 67.3653 195.342 67.202 196.07 67.202C197.013 67.202 197.788 67.4307 198.394 67.888C199.01 68.3453 199.416 68.98 199.612 69.792H198.24C198.11 69.3253 197.853 68.9567 197.47 68.686C197.097 68.4153 196.63 68.28 196.07 68.28C195.342 68.28 194.754 68.532 194.306 69.036C193.858 69.5307 193.634 70.2353 193.634 71.15C193.634 72.074 193.858 72.788 194.306 73.292C194.754 73.796 195.342 74.048 196.07 74.048C196.63 74.048 197.097 73.9173 197.47 73.656C197.844 73.3947 198.1 73.0213 198.24 72.536H199.612C199.407 73.32 198.996 73.95 198.38 74.426C197.764 74.8927 196.994 75.126 196.07 75.126C195.342 75.126 194.694 74.9627 194.124 74.636C193.564 74.3093 193.126 73.8473 192.808 73.25C192.491 72.6527 192.332 71.9527 192.332 71.15ZM201.97 66.082C201.728 66.082 201.522 65.998 201.354 65.83C201.186 65.662 201.102 65.4567 201.102 65.214C201.102 64.9713 201.186 64.766 201.354 64.598C201.522 64.43 201.728 64.346 201.97 64.346C202.204 64.346 202.4 64.43 202.558 64.598C202.726 64.766 202.81 64.9713 202.81 65.214C202.81 65.4567 202.726 65.662 202.558 65.83C202.4 65.998 202.204 66.082 201.97 66.082ZM202.586 67.328V75H201.312V67.328H202.586ZM208.104 75.126C207.385 75.126 206.732 74.9627 206.144 74.636C205.565 74.3093 205.108 73.8473 204.772 73.25C204.445 72.6433 204.282 71.9433 204.282 71.15C204.282 70.366 204.45 69.6753 204.786 69.078C205.131 68.4713 205.598 68.0093 206.186 67.692C206.774 67.3653 207.432 67.202 208.16 67.202C208.888 67.202 209.546 67.3653 210.134 67.692C210.722 68.0093 211.184 68.4667 211.52 69.064C211.865 69.6613 212.038 70.3567 212.038 71.15C212.038 71.9433 211.86 72.6433 211.506 73.25C211.16 73.8473 210.689 74.3093 210.092 74.636C209.494 74.9627 208.832 75.126 208.104 75.126ZM208.104 74.006C208.561 74.006 208.99 73.8987 209.392 73.684C209.793 73.4693 210.115 73.1473 210.358 72.718C210.61 72.2887 210.736 71.766 210.736 71.15C210.736 70.534 210.614 70.0113 210.372 69.582C210.129 69.1527 209.812 68.8353 209.42 68.63C209.028 68.4153 208.603 68.308 208.146 68.308C207.679 68.308 207.25 68.4153 206.858 68.63C206.475 68.8353 206.167 69.1527 205.934 69.582C205.7 70.0113 205.584 70.534 205.584 71.15C205.584 71.7753 205.696 72.3027 205.92 72.732C206.153 73.1613 206.461 73.4833 206.844 73.698C207.226 73.9033 207.646 74.006 208.104 74.006ZM216.429 75.126C215.841 75.126 215.313 75.028 214.847 74.832C214.38 74.6267 214.011 74.3467 213.741 73.992C213.47 73.628 213.321 73.2127 213.293 72.746H214.609C214.646 73.1287 214.823 73.4413 215.141 73.684C215.467 73.9267 215.892 74.048 216.415 74.048C216.9 74.048 217.283 73.9407 217.563 73.726C217.843 73.5113 217.983 73.2407 217.983 72.914C217.983 72.578 217.833 72.3307 217.535 72.172C217.236 72.004 216.774 71.8407 216.149 71.682C215.579 71.5327 215.113 71.3833 214.749 71.234C214.394 71.0753 214.086 70.8467 213.825 70.548C213.573 70.24 213.447 69.8387 213.447 69.344C213.447 68.952 213.563 68.5927 213.797 68.266C214.03 67.9393 214.361 67.6827 214.791 67.496C215.22 67.3 215.71 67.202 216.261 67.202C217.11 67.202 217.796 67.4167 218.319 67.846C218.841 68.2753 219.121 68.8633 219.159 69.61H217.885C217.857 69.2087 217.693 68.8867 217.395 68.644C217.105 68.4013 216.713 68.28 216.219 68.28C215.761 68.28 215.397 68.378 215.127 68.574C214.856 68.77 214.721 69.0267 214.721 69.344C214.721 69.596 214.8 69.806 214.959 69.974C215.127 70.1327 215.332 70.2633 215.575 70.366C215.827 70.4593 216.172 70.5667 216.611 70.688C217.161 70.8373 217.609 70.9867 217.955 71.136C218.3 71.276 218.594 71.4907 218.837 71.78C219.089 72.0693 219.219 72.4473 219.229 72.914C219.229 73.334 219.112 73.712 218.879 74.048C218.645 74.384 218.314 74.65 217.885 74.846C217.465 75.0327 216.979 75.126 216.429 75.126ZM226.034 68.574C226.258 68.1353 226.575 67.7947 226.986 67.552C227.406 67.3093 227.914 67.188 228.512 67.188V68.504H228.176C226.748 68.504 226.034 69.2787 226.034 70.828V75H224.76V67.328H226.034V68.574ZM236.982 70.87C236.982 71.1127 236.968 71.3693 236.94 71.64H230.808C230.855 72.396 231.112 72.9887 231.578 73.418C232.054 73.838 232.628 74.048 233.3 74.048C233.851 74.048 234.308 73.922 234.672 73.67C235.046 73.4087 235.307 73.0633 235.456 72.634H236.828C236.623 73.3713 236.212 73.9733 235.596 74.44C234.98 74.8973 234.215 75.126 233.3 75.126C232.572 75.126 231.919 74.9627 231.34 74.636C230.771 74.3093 230.323 73.8473 229.996 73.25C229.67 72.6433 229.506 71.9433 229.506 71.15C229.506 70.3567 229.665 69.6613 229.982 69.064C230.3 68.4667 230.743 68.0093 231.312 67.692C231.891 67.3653 232.554 67.202 233.3 67.202C234.028 67.202 234.672 67.3607 235.232 67.678C235.792 67.9953 236.222 68.434 236.52 68.994C236.828 69.5447 236.982 70.17 236.982 70.87ZM235.666 70.604C235.666 70.1187 235.559 69.7033 235.344 69.358C235.13 69.0033 234.836 68.7373 234.462 68.56C234.098 68.3733 233.692 68.28 233.244 68.28C232.6 68.28 232.05 68.4853 231.592 68.896C231.144 69.3067 230.888 69.876 230.822 70.604H235.666ZM241.38 75.126C240.792 75.126 240.265 75.028 239.798 74.832C239.331 74.6267 238.963 74.3467 238.692 73.992C238.421 73.628 238.272 73.2127 238.244 72.746H239.56C239.597 73.1287 239.775 73.4413 240.092 73.684C240.419 73.9267 240.843 74.048 241.366 74.048C241.851 74.048 242.234 73.9407 242.514 73.726C242.794 73.5113 242.934 73.2407 242.934 72.914C242.934 72.578 242.785 72.3307 242.486 72.172C242.187 72.004 241.725 71.8407 241.1 71.682C240.531 71.5327 240.064 71.3833 239.7 71.234C239.345 71.0753 239.037 70.8467 238.776 70.548C238.524 70.24 238.398 69.8387 238.398 69.344C238.398 68.952 238.515 68.5927 238.748 68.266C238.981 67.9393 239.313 67.6827 239.742 67.496C240.171 67.3 240.661 67.202 241.212 67.202C242.061 67.202 242.747 67.4167 243.27 67.846C243.793 68.2753 244.073 68.8633 244.11 69.61H242.836C242.808 69.2087 242.645 68.8867 242.346 68.644C242.057 68.4013 241.665 68.28 241.17 68.28C240.713 68.28 240.349 68.378 240.078 68.574C239.807 68.77 239.672 69.0267 239.672 69.344C239.672 69.596 239.751 69.806 239.91 69.974C240.078 70.1327 240.283 70.2633 240.526 70.366C240.778 70.4593 241.123 70.5667 241.562 70.688C242.113 70.8373 242.561 70.9867 242.906 71.136C243.251 71.276 243.545 71.4907 243.788 71.78C244.04 72.0693 244.171 72.4473 244.18 72.914C244.18 73.334 244.063 73.712 243.83 74.048C243.597 74.384 243.265 74.65 242.836 74.846C242.416 75.0327 241.931 75.126 241.38 75.126ZM249.324 75.126C248.606 75.126 247.952 74.9627 247.364 74.636C246.786 74.3093 246.328 73.8473 245.992 73.25C245.666 72.6433 245.502 71.9433 245.502 71.15C245.502 70.366 245.67 69.6753 246.006 69.078C246.352 68.4713 246.818 68.0093 247.406 67.692C247.994 67.3653 248.652 67.202 249.38 67.202C250.108 67.202 250.766 67.3653 251.354 67.692C251.942 68.0093 252.404 68.4667 252.74 69.064C253.086 69.6613 253.258 70.3567 253.258 71.15C253.258 71.9433 253.081 72.6433 252.726 73.25C252.381 73.8473 251.91 74.3093 251.312 74.636C250.715 74.9627 250.052 75.126 249.324 75.126ZM249.324 74.006C249.782 74.006 250.211 73.8987 250.612 73.684C251.014 73.4693 251.336 73.1473 251.578 72.718C251.83 72.2887 251.956 71.766 251.956 71.15C251.956 70.534 251.835 70.0113 251.592 69.582C251.35 69.1527 251.032 68.8353 250.64 68.63C250.248 68.4153 249.824 68.308 249.366 68.308C248.9 68.308 248.47 68.4153 248.078 68.63C247.696 68.8353 247.388 69.1527 247.154 69.582C246.921 70.0113 246.804 70.534 246.804 71.15C246.804 71.7753 246.916 72.3027 247.14 72.732C247.374 73.1613 247.682 73.4833 248.064 73.698C248.447 73.9033 248.867 74.006 249.324 74.006ZM256.207 64.64V75H254.933V64.64H256.207ZM261.235 73.824L263.615 67.328H264.973L261.963 75H260.479L257.469 67.328H258.841L261.235 73.824ZM266.884 66.082C266.642 66.082 266.436 65.998 266.268 65.83C266.1 65.662 266.016 65.4567 266.016 65.214C266.016 64.9713 266.1 64.766 266.268 64.598C266.436 64.43 266.642 64.346 266.884 64.346C267.118 64.346 267.314 64.43 267.472 64.598C267.64 64.766 267.724 64.9713 267.724 65.214C267.724 65.4567 267.64 65.662 267.472 65.83C267.314 65.998 267.118 66.082 266.884 66.082ZM267.5 67.328V75H266.226V67.328H267.5ZM269.196 71.136C269.196 70.352 269.354 69.666 269.672 69.078C269.989 68.4807 270.423 68.0187 270.974 67.692C271.534 67.3653 272.159 67.202 272.85 67.202C273.447 67.202 274.002 67.342 274.516 67.622C275.029 67.8927 275.421 68.252 275.692 68.7V64.64H276.98V75H275.692V73.558C275.44 74.0153 275.066 74.3933 274.572 74.692C274.077 74.9813 273.498 75.126 272.836 75.126C272.154 75.126 271.534 74.958 270.974 74.622C270.423 74.286 269.989 73.8147 269.672 73.208C269.354 72.6013 269.196 71.9107 269.196 71.136ZM275.692 71.15C275.692 70.5713 275.575 70.0673 275.342 69.638C275.108 69.2087 274.791 68.882 274.39 68.658C273.998 68.4247 273.564 68.308 273.088 68.308C272.612 68.308 272.178 68.42 271.786 68.644C271.394 68.868 271.081 69.1947 270.848 69.624C270.614 70.0533 270.498 70.5573 270.498 71.136C270.498 71.724 270.614 72.2373 270.848 72.676C271.081 73.1053 271.394 73.4367 271.786 73.67C272.178 73.894 272.612 74.006 273.088 74.006C273.564 74.006 273.998 73.894 274.39 73.67C274.791 73.4367 275.108 73.1053 275.342 72.676C275.575 72.2373 275.692 71.7287 275.692 71.15ZM282.479 75.126C281.76 75.126 281.107 74.9627 280.519 74.636C279.94 74.3093 279.483 73.8473 279.147 73.25C278.82 72.6433 278.657 71.9433 278.657 71.15C278.657 70.366 278.825 69.6753 279.161 69.078C279.506 68.4713 279.973 68.0093 280.561 67.692C281.149 67.3653 281.807 67.202 282.535 67.202C283.263 67.202 283.921 67.3653 284.509 67.692C285.097 68.0093 285.559 68.4667 285.895 69.064C286.24 69.6613 286.413 70.3567 286.413 71.15C286.413 71.9433 286.235 72.6433 285.881 73.25C285.535 73.8473 285.064 74.3093 284.467 74.636C283.869 74.9627 283.207 75.126 282.479 75.126ZM282.479 74.006C282.936 74.006 283.365 73.8987 283.767 73.684C284.168 73.4693 284.49 73.1473 284.733 72.718C284.985 72.2887 285.111 71.766 285.111 71.15C285.111 70.534 284.989 70.0113 284.747 69.582C284.504 69.1527 284.187 68.8353 283.795 68.63C283.403 68.4153 282.978 68.308 282.521 68.308C282.054 68.308 281.625 68.4153 281.233 68.63C280.85 68.8353 280.542 69.1527 280.309 69.582C280.075 70.0113 279.959 70.534 279.959 71.15C279.959 71.7753 280.071 72.3027 280.295 72.732C280.528 73.1613 280.836 73.4833 281.219 73.698C281.601 73.9033 282.021 74.006 282.479 74.006ZM290.804 75.126C290.216 75.126 289.688 75.028 289.222 74.832C288.755 74.6267 288.386 74.3467 288.116 73.992C287.845 73.628 287.696 73.2127 287.668 72.746H288.984C289.021 73.1287 289.198 73.4413 289.516 73.684C289.842 73.9267 290.267 74.048 290.79 74.048C291.275 74.048 291.658 73.9407 291.938 73.726C292.218 73.5113 292.358 73.2407 292.358 72.914C292.358 72.578 292.208 72.3307 291.91 72.172C291.611 72.004 291.149 71.8407 290.524 71.682C289.954 71.5327 289.488 71.3833 289.124 71.234C288.769 71.0753 288.461 70.8467 288.2 70.548C287.948 70.24 287.822 69.8387 287.822 69.344C287.822 68.952 287.938 68.5927 288.172 68.266C288.405 67.9393 288.736 67.6827 289.166 67.496C289.595 67.3 290.085 67.202 290.636 67.202C291.485 67.202 292.171 67.4167 292.694 67.846C293.216 68.2753 293.496 68.8633 293.534 69.61H292.26C292.232 69.2087 292.068 68.8867 291.77 68.644C291.48 68.4013 291.088 68.28 290.594 68.28C290.136 68.28 289.772 68.378 289.502 68.574C289.231 68.77 289.096 69.0267 289.096 69.344C289.096 69.596 289.175 69.806 289.334 69.974C289.502 70.1327 289.707 70.2633 289.95 70.366C290.202 70.4593 290.547 70.5667 290.986 70.688C291.536 70.8373 291.984 70.9867 292.33 71.136C292.675 71.276 292.969 71.4907 293.212 71.78C293.464 72.0693 293.594 72.4473 293.604 72.914C293.604 73.334 293.487 73.712 293.254 74.048C293.02 74.384 292.689 74.65 292.26 74.846C291.84 75.0327 291.354 75.126 290.804 75.126ZM298.659 71.136C298.659 70.352 298.817 69.666 299.135 69.078C299.452 68.4807 299.886 68.0187 300.437 67.692C300.997 67.3653 301.622 67.202 302.313 67.202C302.91 67.202 303.465 67.342 303.979 67.622C304.492 67.8927 304.884 68.252 305.155 68.7V64.64H306.443V75H305.155V73.558C304.903 74.0153 304.529 74.3933 304.035 74.692C303.54 74.9813 302.961 75.126 302.299 75.126C301.617 75.126 300.997 74.958 300.437 74.622C299.886 74.286 299.452 73.8147 299.135 73.208C298.817 72.6013 298.659 71.9107 298.659 71.136ZM305.155 71.15C305.155 70.5713 305.038 70.0673 304.805 69.638C304.571 69.2087 304.254 68.882 303.853 68.658C303.461 68.4247 303.027 68.308 302.551 68.308C302.075 68.308 301.641 68.42 301.249 68.644C300.857 68.868 300.544 69.1947 300.311 69.624C300.077 70.0533 299.961 70.5573 299.961 71.136C299.961 71.724 300.077 72.2373 300.311 72.676C300.544 73.1053 300.857 73.4367 301.249 73.67C301.641 73.894 302.075 74.006 302.551 74.006C303.027 74.006 303.461 73.894 303.853 73.67C304.254 73.4367 304.571 73.1053 304.805 72.676C305.038 72.2373 305.155 71.7287 305.155 71.15ZM315.4 67.328V75H314.126V73.866C313.883 74.258 313.542 74.566 313.104 74.79C312.674 75.0047 312.198 75.112 311.676 75.112C311.078 75.112 310.542 74.9907 310.066 74.748C309.59 74.496 309.212 74.1227 308.932 73.628C308.661 73.1333 308.526 72.5313 308.526 71.822V67.328H309.786V71.654C309.786 72.41 309.977 72.9933 310.36 73.404C310.742 73.8053 311.265 74.006 311.928 74.006C312.609 74.006 313.146 73.796 313.538 73.376C313.93 72.956 314.126 72.3447 314.126 71.542V67.328H315.4ZM318.825 68.574C319.049 68.1353 319.366 67.7947 319.777 67.552C320.197 67.3093 320.705 67.188 321.303 67.188V68.504H320.967C319.539 68.504 318.825 69.2787 318.825 70.828V75H317.551V67.328H318.825V68.574ZM322.297 71.136C322.297 70.352 322.456 69.666 322.773 69.078C323.091 68.4807 323.525 68.0187 324.075 67.692C324.635 67.3653 325.256 67.202 325.937 67.202C326.609 67.202 327.193 67.3467 327.687 67.636C328.182 67.9253 328.551 68.2893 328.793 68.728V67.328H330.081V75H328.793V73.572C328.541 74.02 328.163 74.3933 327.659 74.692C327.165 74.9813 326.586 75.126 325.923 75.126C325.242 75.126 324.626 74.958 324.075 74.622C323.525 74.286 323.091 73.8147 322.773 73.208C322.456 72.6013 322.297 71.9107 322.297 71.136ZM328.793 71.15C328.793 70.5713 328.677 70.0673 328.443 69.638C328.21 69.2087 327.893 68.882 327.491 68.658C327.099 68.4247 326.665 68.308 326.189 68.308C325.713 68.308 325.279 68.42 324.887 68.644C324.495 68.868 324.183 69.1947 323.949 69.624C323.716 70.0533 323.599 70.5573 323.599 71.136C323.599 71.724 323.716 72.2373 323.949 72.676C324.183 73.1053 324.495 73.4367 324.887 73.67C325.279 73.894 325.713 74.006 326.189 74.006C326.665 74.006 327.099 73.894 327.491 73.67C327.893 73.4367 328.21 73.1053 328.443 72.676C328.677 72.2373 328.793 71.7287 328.793 71.15ZM335.972 67.188C336.906 67.188 337.662 67.4727 338.24 68.042C338.819 68.602 339.108 69.414 339.108 70.478V75H337.848V70.66C337.848 69.8947 337.657 69.3113 337.274 68.91C336.892 68.4993 336.369 68.294 335.706 68.294C335.034 68.294 334.498 68.504 334.096 68.924C333.704 69.344 333.508 69.9553 333.508 70.758V75H332.234V67.328H333.508V68.42C333.76 68.028 334.101 67.7247 334.53 67.51C334.969 67.2953 335.45 67.188 335.972 67.188ZM342.743 68.378V72.9C342.743 73.2733 342.823 73.5393 342.981 73.698C343.14 73.8473 343.415 73.922 343.807 73.922H344.745V75H343.597C342.888 75 342.356 74.8367 342.001 74.51C341.647 74.1833 341.469 73.6467 341.469 72.9V68.378H340.475V67.328H341.469V65.396H342.743V67.328H344.745V68.378H342.743ZM353.289 70.87C353.289 71.1127 353.275 71.3693 353.247 71.64H347.115C347.162 72.396 347.418 72.9887 347.885 73.418C348.361 73.838 348.935 74.048 349.607 74.048C350.158 74.048 350.615 73.922 350.979 73.67C351.352 73.4087 351.614 73.0633 351.763 72.634H353.135C352.93 73.3713 352.519 73.9733 351.903 74.44C351.287 74.8973 350.522 75.126 349.607 75.126C348.879 75.126 348.226 74.9627 347.647 74.636C347.078 74.3093 346.63 73.8473 346.303 73.25C345.976 72.6433 345.813 71.9433 345.813 71.15C345.813 70.3567 345.972 69.6613 346.289 69.064C346.606 68.4667 347.05 68.0093 347.619 67.692C348.198 67.3653 348.86 67.202 349.607 67.202C350.335 67.202 350.979 67.3607 351.539 67.678C352.099 67.9953 352.528 68.434 352.827 68.994C353.135 69.5447 353.289 70.17 353.289 70.87ZM351.973 70.604C351.973 70.1187 351.866 69.7033 351.651 69.358C351.436 69.0033 351.142 68.7373 350.769 68.56C350.405 68.3733 349.999 68.28 349.551 68.28C348.907 68.28 348.356 68.4853 347.899 68.896C347.451 69.3067 347.194 69.876 347.129 70.604H351.973ZM362.049 75.126C361.33 75.126 360.677 74.9627 360.089 74.636C359.51 74.3093 359.053 73.8473 358.717 73.25C358.39 72.6433 358.227 71.9433 358.227 71.15C358.227 70.366 358.395 69.6753 358.731 69.078C359.076 68.4713 359.543 68.0093 360.131 67.692C360.719 67.3653 361.377 67.202 362.105 67.202C362.833 67.202 363.491 67.3653 364.079 67.692C364.667 68.0093 365.129 68.4667 365.465 69.064C365.81 69.6613 365.983 70.3567 365.983 71.15C365.983 71.9433 365.806 72.6433 365.451 73.25C365.106 73.8473 364.634 74.3093 364.037 74.636C363.44 74.9627 362.777 75.126 362.049 75.126ZM362.049 74.006C362.506 74.006 362.936 73.8987 363.337 73.684C363.738 73.4693 364.06 73.1473 364.303 72.718C364.555 72.2887 364.681 71.766 364.681 71.15C364.681 70.534 364.56 70.0113 364.317 69.582C364.074 69.1527 363.757 68.8353 363.365 68.63C362.973 68.4153 362.548 68.308 362.091 68.308C361.624 68.308 361.195 68.4153 360.803 68.63C360.42 68.8353 360.112 69.1527 359.879 69.582C359.646 70.0113 359.529 70.534 359.529 71.15C359.529 71.7753 359.641 72.3027 359.865 72.732C360.098 73.1613 360.406 73.4833 360.789 73.698C361.172 73.9033 361.592 74.006 362.049 74.006ZM380.617 67.188C381.214 67.188 381.746 67.314 382.213 67.566C382.679 67.8087 383.048 68.1773 383.319 68.672C383.589 69.1667 383.725 69.7687 383.725 70.478V75H382.465V70.66C382.465 69.8947 382.273 69.3113 381.891 68.91C381.517 68.4993 381.009 68.294 380.365 68.294C379.702 68.294 379.175 68.5087 378.783 68.938C378.391 69.358 378.195 69.9693 378.195 70.772V75H376.935V70.66C376.935 69.8947 376.743 69.3113 376.361 68.91C375.987 68.4993 375.479 68.294 374.835 68.294C374.172 68.294 373.645 68.5087 373.253 68.938C372.861 69.358 372.665 69.9693 372.665 70.772V75H371.391V67.328H372.665V68.434C372.917 68.0327 373.253 67.7247 373.673 67.51C374.102 67.2953 374.573 67.188 375.087 67.188C375.731 67.188 376.3 67.3327 376.795 67.622C377.289 67.9113 377.658 68.336 377.901 68.896C378.115 68.3547 378.47 67.9347 378.965 67.636C379.459 67.3373 380.01 67.188 380.617 67.188ZM389.16 75.126C388.442 75.126 387.788 74.9627 387.2 74.636C386.622 74.3093 386.164 73.8473 385.828 73.25C385.502 72.6433 385.338 71.9433 385.338 71.15C385.338 70.366 385.506 69.6753 385.842 69.078C386.188 68.4713 386.654 68.0093 387.242 67.692C387.83 67.3653 388.488 67.202 389.216 67.202C389.944 67.202 390.602 67.3653 391.19 67.692C391.778 68.0093 392.24 68.4667 392.576 69.064C392.922 69.6613 393.094 70.3567 393.094 71.15C393.094 71.9433 392.917 72.6433 392.562 73.25C392.217 73.8473 391.746 74.3093 391.148 74.636C390.551 74.9627 389.888 75.126 389.16 75.126ZM389.16 74.006C389.618 74.006 390.047 73.8987 390.448 73.684C390.85 73.4693 391.172 73.1473 391.414 72.718C391.666 72.2887 391.792 71.766 391.792 71.15C391.792 70.534 391.671 70.0113 391.428 69.582C391.186 69.1527 390.868 68.8353 390.476 68.63C390.084 68.4153 389.66 68.308 389.202 68.308C388.736 68.308 388.306 68.4153 387.914 68.63C387.532 68.8353 387.224 69.1527 386.99 69.582C386.757 70.0113 386.64 70.534 386.64 71.15C386.64 71.7753 386.752 72.3027 386.976 72.732C387.21 73.1613 387.518 73.4833 387.9 73.698C388.283 73.9033 388.703 74.006 389.16 74.006ZM390.588 65.06L387.606 66.656V65.704L390.588 63.954V65.06ZM394.293 71.136C394.293 70.352 394.452 69.666 394.769 69.078C395.087 68.4807 395.521 68.0187 396.071 67.692C396.631 67.3653 397.257 67.202 397.947 67.202C398.545 67.202 399.1 67.342 399.613 67.622C400.127 67.8927 400.519 68.252 400.789 68.7V64.64H402.077V75H400.789V73.558C400.537 74.0153 400.164 74.3933 399.669 74.692C399.175 74.9813 398.596 75.126 397.933 75.126C397.252 75.126 396.631 74.958 396.071 74.622C395.521 74.286 395.087 73.8147 394.769 73.208C394.452 72.6013 394.293 71.9107 394.293 71.136ZM400.789 71.15C400.789 70.5713 400.673 70.0673 400.439 69.638C400.206 69.2087 399.889 68.882 399.487 68.658C399.095 68.4247 398.661 68.308 398.185 68.308C397.709 68.308 397.275 68.42 396.883 68.644C396.491 68.868 396.179 69.1947 395.945 69.624C395.712 70.0533 395.595 70.5573 395.595 71.136C395.595 71.724 395.712 72.2373 395.945 72.676C396.179 73.1053 396.491 73.4367 396.883 73.67C397.275 73.894 397.709 74.006 398.185 74.006C398.661 74.006 399.095 73.894 399.487 73.67C399.889 73.4367 400.206 73.1053 400.439 72.676C400.673 72.2373 400.789 71.7287 400.789 71.15ZM411.034 67.328V75H409.76V73.866C409.518 74.258 409.177 74.566 408.738 74.79C408.309 75.0047 407.833 75.112 407.31 75.112C406.713 75.112 406.176 74.9907 405.7 74.748C405.224 74.496 404.846 74.1227 404.566 73.628C404.296 73.1333 404.16 72.5313 404.16 71.822V67.328H405.42V71.654C405.42 72.41 405.612 72.9933 405.994 73.404C406.377 73.8053 406.9 74.006 407.562 74.006C408.244 74.006 408.78 73.796 409.172 73.376C409.564 72.956 409.76 72.3447 409.76 71.542V67.328H411.034ZM414.459 64.64V75H413.185V64.64H414.459ZM419.977 75.126C419.258 75.126 418.605 74.9627 418.017 74.636C417.438 74.3093 416.981 73.8473 416.645 73.25C416.318 72.6433 416.155 71.9433 416.155 71.15C416.155 70.366 416.323 69.6753 416.659 69.078C417.004 68.4713 417.471 68.0093 418.059 67.692C418.647 67.3653 419.305 67.202 420.033 67.202C420.761 67.202 421.419 67.3653 422.007 67.692C422.595 68.0093 423.057 68.4667 423.393 69.064C423.738 69.6613 423.911 70.3567 423.911 71.15C423.911 71.9433 423.733 72.6433 423.379 73.25C423.033 73.8473 422.562 74.3093 421.965 74.636C421.367 74.9627 420.705 75.126 419.977 75.126ZM419.977 74.006C420.434 74.006 420.863 73.8987 421.265 73.684C421.666 73.4693 421.988 73.1473 422.231 72.718C422.483 72.2887 422.609 71.766 422.609 71.15C422.609 70.534 422.487 70.0113 422.245 69.582C422.002 69.1527 421.685 68.8353 421.293 68.63C420.901 68.4153 420.476 68.308 420.019 68.308C419.552 68.308 419.123 68.4153 418.731 68.63C418.348 68.8353 418.04 69.1527 417.807 69.582C417.573 70.0113 417.457 70.534 417.457 71.15C417.457 71.7753 417.569 72.3027 417.793 72.732C418.026 73.1613 418.334 73.4833 418.717 73.698C419.099 73.9033 419.519 74.006 419.977 74.006ZM428.842 71.136C428.842 70.352 429.001 69.666 429.318 69.078C429.636 68.4807 430.07 68.0187 430.62 67.692C431.18 67.3653 431.806 67.202 432.496 67.202C433.094 67.202 433.649 67.342 434.162 67.622C434.676 67.8927 435.068 68.252 435.338 68.7V64.64H436.626V75H435.338V73.558C435.086 74.0153 434.713 74.3933 434.218 74.692C433.724 74.9813 433.145 75.126 432.482 75.126C431.801 75.126 431.18 74.958 430.62 74.622C430.07 74.286 429.636 73.8147 429.318 73.208C429.001 72.6013 428.842 71.9107 428.842 71.136ZM435.338 71.15C435.338 70.5713 435.222 70.0673 434.988 69.638C434.755 69.2087 434.438 68.882 434.036 68.658C433.644 68.4247 433.21 68.308 432.734 68.308C432.258 68.308 431.824 68.42 431.432 68.644C431.04 68.868 430.728 69.1947 430.494 69.624C430.261 70.0533 430.144 70.5573 430.144 71.136C430.144 71.724 430.261 72.2373 430.494 72.676C430.728 73.1053 431.04 73.4367 431.432 73.67C431.824 73.894 432.258 74.006 432.734 74.006C433.21 74.006 433.644 73.894 434.036 73.67C434.438 73.4367 434.755 73.1053 434.988 72.676C435.222 72.2373 435.338 71.7287 435.338 71.15ZM445.779 70.87C445.779 71.1127 445.765 71.3693 445.737 71.64H439.605C439.652 72.396 439.909 72.9887 440.375 73.418C440.851 73.838 441.425 74.048 442.097 74.048C442.648 74.048 443.105 73.922 443.469 73.67C443.843 73.4087 444.104 73.0633 444.253 72.634H445.625C445.42 73.3713 445.009 73.9733 444.393 74.44C443.777 74.8973 443.012 75.126 442.097 75.126C441.369 75.126 440.716 74.9627 440.137 74.636C439.568 74.3093 439.12 73.8473 438.793 73.25C438.467 72.6433 438.303 71.9433 438.303 71.15C438.303 70.3567 438.462 69.6613 438.779 69.064C439.097 68.4667 439.54 68.0093 440.109 67.692C440.688 67.3653 441.351 67.202 442.097 67.202C442.825 67.202 443.469 67.3607 444.029 67.678C444.589 67.9953 445.019 68.434 445.317 68.994C445.625 69.5447 445.779 70.17 445.779 70.87ZM444.463 70.604C444.463 70.1187 444.356 69.7033 444.141 69.358C443.927 69.0033 443.633 68.7373 443.259 68.56C442.895 68.3733 442.489 68.28 442.041 68.28C441.397 68.28 440.847 68.4853 440.389 68.896C439.941 69.3067 439.685 69.876 439.619 70.604H444.463ZM454.315 68.378H452.705V75H451.431V68.378H450.437V67.328H451.431V66.782C451.431 65.9233 451.651 65.298 452.089 64.906C452.537 64.5047 453.251 64.304 454.231 64.304V65.368C453.671 65.368 453.275 65.48 453.041 65.704C452.817 65.9187 452.705 66.278 452.705 66.782V67.328H454.315V68.378ZM457.075 68.574C457.299 68.1353 457.616 67.7947 458.027 67.552C458.447 67.3093 458.955 67.188 459.553 67.188V68.504H459.217C457.789 68.504 457.075 69.2787 457.075 70.828V75H455.801V67.328H457.075V68.574ZM464.369 75.126C463.651 75.126 462.997 74.9627 462.409 74.636C461.831 74.3093 461.373 73.8473 461.037 73.25C460.711 72.6433 460.547 71.9433 460.547 71.15C460.547 70.366 460.715 69.6753 461.051 69.078C461.397 68.4713 461.863 68.0093 462.451 67.692C463.039 67.3653 463.697 67.202 464.425 67.202C465.153 67.202 465.811 67.3653 466.399 67.692C466.987 68.0093 467.449 68.4667 467.785 69.064C468.131 69.6613 468.303 70.3567 468.303 71.15C468.303 71.9433 468.126 72.6433 467.771 73.25C467.426 73.8473 466.955 74.3093 466.357 74.636C465.76 74.9627 465.097 75.126 464.369 75.126ZM464.369 74.006C464.827 74.006 465.256 73.8987 465.657 73.684C466.059 73.4693 466.381 73.1473 466.623 72.718C466.875 72.2887 467.001 71.766 467.001 71.15C467.001 70.534 466.88 70.0113 466.637 69.582C466.395 69.1527 466.077 68.8353 465.685 68.63C465.293 68.4153 464.869 68.308 464.411 68.308C463.945 68.308 463.515 68.4153 463.123 68.63C462.741 68.8353 462.433 69.1527 462.199 69.582C461.966 70.0113 461.849 70.534 461.849 71.15C461.849 71.7753 461.961 72.3027 462.185 72.732C462.419 73.1613 462.727 73.4833 463.109 73.698C463.492 73.9033 463.912 74.006 464.369 74.006ZM473.716 67.188C474.65 67.188 475.406 67.4727 475.984 68.042C476.563 68.602 476.852 69.414 476.852 70.478V75H475.592V70.66C475.592 69.8947 475.401 69.3113 475.018 68.91C474.636 68.4993 474.113 68.294 473.45 68.294C472.778 68.294 472.242 68.504 471.84 68.924C471.448 69.344 471.252 69.9553 471.252 70.758V75H469.978V67.328H471.252V68.42C471.504 68.028 471.845 67.7247 472.274 67.51C472.713 67.2953 473.194 67.188 473.716 67.188ZM480.487 68.378V72.9C480.487 73.2733 480.567 73.5393 480.725 73.698C480.884 73.8473 481.159 73.922 481.551 73.922H482.489V75H481.341C480.632 75 480.1 74.8367 479.745 74.51C479.391 74.1833 479.213 73.6467 479.213 72.9V68.378H478.219V67.328H479.213V65.396H480.487V67.328H482.489V68.378H480.487ZM489.353 69.33V70.408H483.767V69.33H489.353ZM498.744 70.87C498.744 71.1127 498.73 71.3693 498.702 71.64H492.57C492.617 72.396 492.873 72.9887 493.34 73.418C493.816 73.838 494.39 74.048 495.062 74.048C495.613 74.048 496.07 73.922 496.434 73.67C496.807 73.4087 497.069 73.0633 497.218 72.634H498.59C498.385 73.3713 497.974 73.9733 497.358 74.44C496.742 74.8973 495.977 75.126 495.062 75.126C494.334 75.126 493.681 74.9627 493.102 74.636C492.533 74.3093 492.085 73.8473 491.758 73.25C491.431 72.6433 491.268 71.9433 491.268 71.15C491.268 70.3567 491.427 69.6613 491.744 69.064C492.061 68.4667 492.505 68.0093 493.074 67.692C493.653 67.3653 494.315 67.202 495.062 67.202C495.79 67.202 496.434 67.3607 496.994 67.678C497.554 67.9953 497.983 68.434 498.282 68.994C498.59 69.5447 498.744 70.17 498.744 70.87ZM497.428 70.604C497.428 70.1187 497.321 69.7033 497.106 69.358C496.891 69.0033 496.597 68.7373 496.224 68.56C495.86 68.3733 495.454 68.28 495.006 68.28C494.362 68.28 493.811 68.4853 493.354 68.896C492.906 69.3067 492.649 69.876 492.584 70.604H497.428ZM504.164 67.188C505.097 67.188 505.853 67.4727 506.432 68.042C507.01 68.602 507.3 69.414 507.3 70.478V75H506.04V70.66C506.04 69.8947 505.848 69.3113 505.466 68.91C505.083 68.4993 504.56 68.294 503.898 68.294C503.226 68.294 502.689 68.504 502.288 68.924C501.896 69.344 501.7 69.9553 501.7 70.758V75H500.426V67.328H501.7V68.42C501.952 68.028 502.292 67.7247 502.722 67.51C503.16 67.2953 503.641 67.188 504.164 67.188ZM508.905 71.136C508.905 70.352 509.063 69.666 509.381 69.078C509.698 68.4807 510.132 68.0187 510.683 67.692C511.243 67.3653 511.868 67.202 512.559 67.202C513.156 67.202 513.711 67.342 514.225 67.622C514.738 67.8927 515.13 68.252 515.401 68.7V64.64H516.689V75H515.401V73.558C515.149 74.0153 514.775 74.3933 514.281 74.692C513.786 74.9813 513.207 75.126 512.545 75.126C511.863 75.126 511.243 74.958 510.683 74.622C510.132 74.286 509.698 73.8147 509.381 73.208C509.063 72.6013 508.905 71.9107 508.905 71.136ZM515.401 71.15C515.401 70.5713 515.284 70.0673 515.051 69.638C514.817 69.2087 514.5 68.882 514.099 68.658C513.707 68.4247 513.273 68.308 512.797 68.308C512.321 68.308 511.887 68.42 511.495 68.644C511.103 68.868 510.79 69.1947 510.557 69.624C510.323 70.0533 510.207 70.5573 510.207 71.136C510.207 71.724 510.323 72.2373 510.557 72.676C510.79 73.1053 511.103 73.4367 511.495 73.67C511.887 73.894 512.321 74.006 512.797 74.006C513.273 74.006 513.707 73.894 514.099 73.67C514.5 73.4367 514.817 73.1053 515.051 72.676C515.284 72.2373 515.401 71.7287 515.401 71.15ZM520.158 73.236L518.59 77.002H517.736L518.758 73.236H520.158ZM159.882 88.328V96H158.608V94.866C158.365 95.258 158.025 95.566 157.586 95.79C157.157 96.0047 156.681 96.112 156.158 96.112C155.561 96.112 155.024 95.9907 154.548 95.748C154.072 95.496 153.694 95.1227 153.414 94.628C153.143 94.1333 153.008 93.5313 153.008 92.822V88.328H154.268V92.654C154.268 93.41 154.459 93.9933 154.842 94.404C155.225 94.8053 155.747 95.006 156.41 95.006C157.091 95.006 157.628 94.796 158.02 94.376C158.412 93.956 158.608 93.3447 158.608 92.542V88.328H159.882ZM163.587 89.378V93.9C163.587 94.2733 163.666 94.5393 163.825 94.698C163.984 94.8473 164.259 94.922 164.651 94.922H165.589V96H164.441C163.732 96 163.2 95.8367 162.845 95.51C162.49 95.1833 162.313 94.6467 162.313 93.9V89.378H161.319V88.328H162.313V86.396H163.587V88.328H165.589V89.378H163.587ZM167.791 87.082C167.548 87.082 167.343 86.998 167.175 86.83C167.007 86.662 166.923 86.4567 166.923 86.214C166.923 85.9713 167.007 85.766 167.175 85.598C167.343 85.43 167.548 85.346 167.791 85.346C168.024 85.346 168.22 85.43 168.379 85.598C168.547 85.766 168.631 85.9713 168.631 86.214C168.631 86.4567 168.547 86.662 168.379 86.83C168.22 86.998 168.024 87.082 167.791 87.082ZM168.407 88.328V96H167.133V88.328H168.407ZM171.852 85.64V96H170.578V85.64H171.852ZM174.681 87.082C174.439 87.082 174.233 86.998 174.065 86.83C173.897 86.662 173.813 86.4567 173.813 86.214C173.813 85.9713 173.897 85.766 174.065 85.598C174.233 85.43 174.439 85.346 174.681 85.346C174.915 85.346 175.111 85.43 175.269 85.598C175.437 85.766 175.521 85.9713 175.521 86.214C175.521 86.4567 175.437 86.662 175.269 86.83C175.111 86.998 174.915 87.082 174.681 87.082ZM175.297 88.328V96H174.023V88.328H175.297ZM178.421 94.95H182.187V96H176.965V94.95L180.689 89.364H176.993V88.328H182.159V89.364L178.421 94.95ZM183.364 92.136C183.364 91.352 183.522 90.666 183.84 90.078C184.157 89.4807 184.591 89.0187 185.142 88.692C185.702 88.3653 186.322 88.202 187.004 88.202C187.676 88.202 188.259 88.3467 188.754 88.636C189.248 88.9253 189.617 89.2893 189.86 89.728V88.328H191.148V96H189.86V94.572C189.608 95.02 189.23 95.3933 188.726 95.692C188.231 95.9813 187.652 96.126 186.99 96.126C186.308 96.126 185.692 95.958 185.142 95.622C184.591 95.286 184.157 94.8147 183.84 94.208C183.522 93.6013 183.364 92.9107 183.364 92.136ZM189.86 92.15C189.86 91.5713 189.743 91.0673 189.51 90.638C189.276 90.2087 188.959 89.882 188.558 89.658C188.166 89.4247 187.732 89.308 187.256 89.308C186.78 89.308 186.346 89.42 185.954 89.644C185.562 89.868 185.249 90.1947 185.016 90.624C184.782 91.0533 184.666 91.5573 184.666 92.136C184.666 92.724 184.782 93.2373 185.016 93.676C185.249 94.1053 185.562 94.4367 185.954 94.67C186.346 94.894 186.78 95.006 187.256 95.006C187.732 95.006 188.166 94.894 188.558 94.67C188.959 94.4367 189.276 94.1053 189.51 93.676C189.743 93.2373 189.86 92.7287 189.86 92.15ZM197.039 88.188C197.972 88.188 198.728 88.4727 199.307 89.042C199.885 89.602 200.175 90.414 200.175 91.478V96H198.915V91.66C198.915 90.8947 198.723 90.3113 198.341 89.91C197.958 89.4993 197.435 89.294 196.773 89.294C196.101 89.294 195.564 89.504 195.163 89.924C194.771 90.344 194.575 90.9553 194.575 91.758V96H193.301V88.328H194.575V89.42C194.827 89.028 195.167 88.7247 195.597 88.51C196.035 88.2953 196.516 88.188 197.039 88.188ZM201.78 92.136C201.78 91.352 201.938 90.666 202.256 90.078C202.573 89.4807 203.007 89.0187 203.558 88.692C204.118 88.3653 204.743 88.202 205.434 88.202C206.031 88.202 206.586 88.342 207.1 88.622C207.613 88.8927 208.005 89.252 208.276 89.7V85.64H209.564V96H208.276V94.558C208.024 95.0153 207.65 95.3933 207.156 95.692C206.661 95.9813 206.082 96.126 205.42 96.126C204.738 96.126 204.118 95.958 203.558 95.622C203.007 95.286 202.573 94.8147 202.256 94.208C201.938 93.6013 201.78 92.9107 201.78 92.136ZM208.276 92.15C208.276 91.5713 208.159 91.0673 207.926 90.638C207.692 90.2087 207.375 89.882 206.974 89.658C206.582 89.4247 206.148 89.308 205.672 89.308C205.196 89.308 204.762 89.42 204.37 89.644C203.978 89.868 203.665 90.1947 203.432 90.624C203.198 91.0533 203.082 91.5573 203.082 92.136C203.082 92.724 203.198 93.2373 203.432 93.676C203.665 94.1053 203.978 94.4367 204.37 94.67C204.762 94.894 205.196 95.006 205.672 95.006C206.148 95.006 206.582 94.894 206.974 94.67C207.375 94.4367 207.692 94.1053 207.926 93.676C208.159 93.2373 208.276 92.7287 208.276 92.15ZM215.063 96.126C214.344 96.126 213.691 95.9627 213.103 95.636C212.524 95.3093 212.067 94.8473 211.731 94.25C211.404 93.6433 211.241 92.9433 211.241 92.15C211.241 91.366 211.409 90.6753 211.745 90.078C212.09 89.4713 212.557 89.0093 213.145 88.692C213.733 88.3653 214.391 88.202 215.119 88.202C215.847 88.202 216.505 88.3653 217.093 88.692C217.681 89.0093 218.143 89.4667 218.479 90.064C218.824 90.6613 218.997 91.3567 218.997 92.15C218.997 92.9433 218.819 93.6433 218.465 94.25C218.119 94.8473 217.648 95.3093 217.051 95.636C216.453 95.9627 215.791 96.126 215.063 96.126ZM215.063 95.006C215.52 95.006 215.949 94.8987 216.351 94.684C216.752 94.4693 217.074 94.1473 217.317 93.718C217.569 93.2887 217.695 92.766 217.695 92.15C217.695 91.534 217.573 91.0113 217.331 90.582C217.088 90.1527 216.771 89.8353 216.379 89.63C215.987 89.4153 215.562 89.308 215.105 89.308C214.638 89.308 214.209 89.4153 213.817 89.63C213.434 89.8353 213.126 90.1527 212.893 90.582C212.659 91.0113 212.543 91.534 212.543 92.15C212.543 92.7753 212.655 93.3027 212.879 93.732C213.112 94.1613 213.42 94.4833 213.803 94.698C214.185 94.9033 214.605 95.006 215.063 95.006ZM229.542 96L227.218 92.01H225.678V96H224.404V86.242H227.554C228.292 86.242 228.912 86.368 229.416 86.62C229.93 86.872 230.312 87.2127 230.564 87.642C230.816 88.0713 230.942 88.5613 230.942 89.112C230.942 89.784 230.746 90.3767 230.354 90.89C229.972 91.4033 229.393 91.744 228.618 91.912L231.068 96H229.542ZM225.678 90.988H227.554C228.245 90.988 228.763 90.82 229.108 90.484C229.454 90.1387 229.626 89.6813 229.626 89.112C229.626 88.5333 229.454 88.0853 229.108 87.768C228.772 87.4507 228.254 87.292 227.554 87.292H225.678V90.988ZM239.922 91.87C239.922 92.1127 239.908 92.3693 239.88 92.64H233.748C233.794 93.396 234.051 93.9887 234.518 94.418C234.994 94.838 235.568 95.048 236.24 95.048C236.79 95.048 237.248 94.922 237.612 94.67C237.985 94.4087 238.246 94.0633 238.396 93.634H239.768C239.562 94.3713 239.152 94.9733 238.536 95.44C237.92 95.8973 237.154 96.126 236.24 96.126C235.512 96.126 234.858 95.9627 234.28 95.636C233.71 95.3093 233.262 94.8473 232.936 94.25C232.609 93.6433 232.446 92.9433 232.446 92.15C232.446 91.3567 232.604 90.6613 232.922 90.064C233.239 89.4667 233.682 89.0093 234.252 88.692C234.83 88.3653 235.493 88.202 236.24 88.202C236.968 88.202 237.612 88.3607 238.172 88.678C238.732 88.9953 239.161 89.434 239.46 89.994C239.768 90.5447 239.922 91.17 239.922 91.87ZM238.606 91.604C238.606 91.1187 238.498 90.7033 238.284 90.358C238.069 90.0033 237.775 89.7373 237.402 89.56C237.038 89.3733 236.632 89.28 236.184 89.28C235.54 89.28 234.989 89.4853 234.532 89.896C234.084 90.3067 233.827 90.876 233.762 91.604H238.606ZM241.127 92.136C241.127 91.352 241.286 90.666 241.603 90.078C241.921 89.4807 242.355 89.0187 242.905 88.692C243.465 88.3653 244.086 88.202 244.767 88.202C245.439 88.202 246.023 88.3467 246.517 88.636C247.012 88.9253 247.381 89.2893 247.623 89.728V88.328H248.911V96H247.623V94.572C247.371 95.02 246.993 95.3933 246.489 95.692C245.995 95.9813 245.416 96.126 244.753 96.126C244.072 96.126 243.456 95.958 242.905 95.622C242.355 95.286 241.921 94.8147 241.603 94.208C241.286 93.6013 241.127 92.9107 241.127 92.136ZM247.623 92.15C247.623 91.5713 247.507 91.0673 247.273 90.638C247.04 90.2087 246.723 89.882 246.321 89.658C245.929 89.4247 245.495 89.308 245.019 89.308C244.543 89.308 244.109 89.42 243.717 89.644C243.325 89.868 243.013 90.1947 242.779 90.624C242.546 91.0533 242.429 91.5573 242.429 92.136C242.429 92.724 242.546 93.2373 242.779 93.676C243.013 94.1053 243.325 94.4367 243.717 94.67C244.109 94.894 244.543 95.006 245.019 95.006C245.495 95.006 245.929 94.894 246.321 94.67C246.723 94.4367 247.04 94.1053 247.273 93.676C247.507 93.2373 247.623 92.7287 247.623 92.15ZM250.588 92.15C250.588 91.3567 250.747 90.666 251.064 90.078C251.382 89.4807 251.82 89.0187 252.38 88.692C252.95 88.3653 253.598 88.202 254.326 88.202C255.269 88.202 256.044 88.4307 256.65 88.888C257.266 89.3453 257.672 89.98 257.868 90.792H256.496C256.366 90.3253 256.109 89.9567 255.726 89.686C255.353 89.4153 254.886 89.28 254.326 89.28C253.598 89.28 253.01 89.532 252.562 90.036C252.114 90.5307 251.89 91.2353 251.89 92.15C251.89 93.074 252.114 93.788 252.562 94.292C253.01 94.796 253.598 95.048 254.326 95.048C254.886 95.048 255.353 94.9173 255.726 94.656C256.1 94.3947 256.356 94.0213 256.496 93.536H257.868C257.663 94.32 257.252 94.95 256.636 95.426C256.02 95.8927 255.25 96.126 254.326 96.126C253.598 96.126 252.95 95.9627 252.38 95.636C251.82 95.3093 251.382 94.8473 251.064 94.25C250.747 93.6527 250.588 92.9527 250.588 92.15ZM261.122 89.378V93.9C261.122 94.2733 261.202 94.5393 261.36 94.698C261.519 94.8473 261.794 94.922 262.186 94.922H263.124V96H261.976C261.267 96 260.735 95.8367 260.38 95.51C260.026 95.1833 259.848 94.6467 259.848 93.9V89.378H258.854V88.328H259.848V86.396H261.122V88.328H263.124V89.378H261.122ZM265.984 94.236L264.416 98.002H263.562L264.584 94.236H265.984ZM276.314 96L273.99 92.01H272.45V96H271.176V86.242H274.326C275.063 86.242 275.684 86.368 276.188 86.62C276.701 86.872 277.084 87.2127 277.336 87.642C277.588 88.0713 277.714 88.5613 277.714 89.112C277.714 89.784 277.518 90.3767 277.126 90.89C276.743 91.4033 276.164 91.744 275.39 91.912L277.84 96H276.314ZM272.45 90.988H274.326C275.016 90.988 275.534 90.82 275.88 90.484C276.225 90.1387 276.398 89.6813 276.398 89.112C276.398 88.5333 276.225 88.0853 275.88 87.768C275.544 87.4507 275.026 87.292 274.326 87.292H272.45V90.988ZM286.693 91.87C286.693 92.1127 286.679 92.3693 286.651 92.64H280.519C280.566 93.396 280.823 93.9887 281.289 94.418C281.765 94.838 282.339 95.048 283.011 95.048C283.562 95.048 284.019 94.922 284.383 94.67C284.757 94.4087 285.018 94.0633 285.167 93.634H286.539C286.334 94.3713 285.923 94.9733 285.307 95.44C284.691 95.8973 283.926 96.126 283.011 96.126C282.283 96.126 281.63 95.9627 281.051 95.636C280.482 95.3093 280.034 94.8473 279.707 94.25C279.381 93.6433 279.217 92.9433 279.217 92.15C279.217 91.3567 279.376 90.6613 279.693 90.064C280.011 89.4667 280.454 89.0093 281.023 88.692C281.602 88.3653 282.265 88.202 283.011 88.202C283.739 88.202 284.383 88.3607 284.943 88.678C285.503 88.9953 285.933 89.434 286.231 89.994C286.539 90.5447 286.693 91.17 286.693 91.87ZM285.377 91.604C285.377 91.1187 285.27 90.7033 285.055 90.358C284.841 90.0033 284.547 89.7373 284.173 89.56C283.809 89.3733 283.403 89.28 282.955 89.28C282.311 89.28 281.761 89.4853 281.303 89.896C280.855 90.3067 280.599 90.876 280.533 91.604H285.377ZM287.899 92.136C287.899 91.352 288.058 90.666 288.375 90.078C288.692 89.4807 289.126 89.0187 289.677 88.692C290.237 88.3653 290.858 88.202 291.539 88.202C292.211 88.202 292.794 88.3467 293.289 88.636C293.784 88.9253 294.152 89.2893 294.395 89.728V88.328H295.683V96H294.395V94.572C294.143 95.02 293.765 95.3933 293.261 95.692C292.766 95.9813 292.188 96.126 291.525 96.126C290.844 96.126 290.228 95.958 289.677 95.622C289.126 95.286 288.692 94.8147 288.375 94.208C288.058 93.6013 287.899 92.9107 287.899 92.136ZM294.395 92.15C294.395 91.5713 294.278 91.0673 294.045 90.638C293.812 90.2087 293.494 89.882 293.093 89.658C292.701 89.4247 292.267 89.308 291.791 89.308C291.315 89.308 290.881 89.42 290.489 89.644C290.097 89.868 289.784 90.1947 289.551 90.624C289.318 91.0533 289.201 91.5573 289.201 92.136C289.201 92.724 289.318 93.2373 289.551 93.676C289.784 94.1053 290.097 94.4367 290.489 94.67C290.881 94.894 291.315 95.006 291.791 95.006C292.267 95.006 292.701 94.894 293.093 94.67C293.494 94.4367 293.812 94.1053 294.045 93.676C294.278 93.2373 294.395 92.7287 294.395 92.15ZM297.36 92.15C297.36 91.3567 297.518 90.666 297.836 90.078C298.153 89.4807 298.592 89.0187 299.152 88.692C299.721 88.3653 300.37 88.202 301.098 88.202C302.04 88.202 302.815 88.4307 303.422 88.888C304.038 89.3453 304.444 89.98 304.64 90.792H303.268C303.137 90.3253 302.88 89.9567 302.498 89.686C302.124 89.4153 301.658 89.28 301.098 89.28C300.37 89.28 299.782 89.532 299.334 90.036C298.886 90.5307 298.662 91.2353 298.662 92.15C298.662 93.074 298.886 93.788 299.334 94.292C299.782 94.796 300.37 95.048 301.098 95.048C301.658 95.048 302.124 94.9173 302.498 94.656C302.871 94.3947 303.128 94.0213 303.268 93.536H304.64C304.434 94.32 304.024 94.95 303.408 95.426C302.792 95.8927 302.022 96.126 301.098 96.126C300.37 96.126 299.721 95.9627 299.152 95.636C298.592 95.3093 298.153 94.8473 297.836 94.25C297.518 93.6527 297.36 92.9527 297.36 92.15ZM307.894 89.378V93.9C307.894 94.2733 307.973 94.5393 308.132 94.698C308.29 94.8473 308.566 94.922 308.958 94.922H309.896V96H308.748C308.038 96 307.506 95.8367 307.152 95.51C306.797 95.1833 306.62 94.6467 306.62 93.9V89.378H305.626V88.328H306.62V86.396H307.894V88.328H309.896V89.378H307.894ZM320.31 96L317.986 92.01H316.446V96H315.172V86.242H318.322C319.059 86.242 319.68 86.368 320.184 86.62C320.697 86.872 321.08 87.2127 321.332 87.642C321.584 88.0713 321.71 88.5613 321.71 89.112C321.71 89.784 321.514 90.3767 321.122 90.89C320.739 91.4033 320.16 91.744 319.386 91.912L321.836 96H320.31ZM316.446 90.988H318.322C319.012 90.988 319.53 90.82 319.876 90.484C320.221 90.1387 320.394 89.6813 320.394 89.112C320.394 88.5333 320.221 88.0853 319.876 87.768C319.54 87.4507 319.022 87.292 318.322 87.292H316.446V90.988ZM327.035 96.126C326.317 96.126 325.663 95.9627 325.075 95.636C324.497 95.3093 324.039 94.8473 323.703 94.25C323.377 93.6433 323.213 92.9433 323.213 92.15C323.213 91.366 323.381 90.6753 323.717 90.078C324.063 89.4713 324.529 89.0093 325.117 88.692C325.705 88.3653 326.363 88.202 327.091 88.202C327.819 88.202 328.477 88.3653 329.065 88.692C329.653 89.0093 330.115 89.4667 330.451 90.064C330.797 90.6613 330.969 91.3567 330.969 92.15C330.969 92.9433 330.792 93.6433 330.437 94.25C330.092 94.8473 329.621 95.3093 329.023 95.636C328.426 95.9627 327.763 96.126 327.035 96.126ZM327.035 95.006C327.493 95.006 327.922 94.8987 328.323 94.684C328.725 94.4693 329.047 94.1473 329.289 93.718C329.541 93.2887 329.667 92.766 329.667 92.15C329.667 91.534 329.546 91.0113 329.303 90.582C329.061 90.1527 328.743 89.8353 328.351 89.63C327.959 89.4153 327.535 89.308 327.077 89.308C326.611 89.308 326.181 89.4153 325.789 89.63C325.407 89.8353 325.099 90.1527 324.865 90.582C324.632 91.0113 324.515 91.534 324.515 92.15C324.515 92.7753 324.627 93.3027 324.851 93.732C325.085 94.1613 325.393 94.4833 325.775 94.698C326.158 94.9033 326.578 95.006 327.035 95.006ZM339.448 88.328V96H338.174V94.866C337.932 95.258 337.591 95.566 337.152 95.79C336.723 96.0047 336.247 96.112 335.724 96.112C335.127 96.112 334.59 95.9907 334.114 95.748C333.638 95.496 333.26 95.1227 332.98 94.628C332.71 94.1333 332.574 93.5313 332.574 92.822V88.328H333.834V92.654C333.834 93.41 334.026 93.9933 334.408 94.404C334.791 94.8053 335.314 95.006 335.976 95.006C336.658 95.006 337.194 94.796 337.586 94.376C337.978 93.956 338.174 93.3447 338.174 92.542V88.328H339.448ZM343.153 89.378V93.9C343.153 94.2733 343.233 94.5393 343.391 94.698C343.55 94.8473 343.825 94.922 344.217 94.922H345.155V96H344.007C343.298 96 342.766 95.8367 342.411 95.51C342.057 95.1833 341.879 94.6467 341.879 93.9V89.378H340.885V88.328H341.879V86.396H343.153V88.328H345.155V89.378H343.153ZM353.699 91.87C353.699 92.1127 353.685 92.3693 353.657 92.64H347.525C347.572 93.396 347.828 93.9887 348.295 94.418C348.771 94.838 349.345 95.048 350.017 95.048C350.568 95.048 351.025 94.922 351.389 94.67C351.762 94.4087 352.024 94.0633 352.173 93.634H353.545C353.34 94.3713 352.929 94.9733 352.313 95.44C351.697 95.8973 350.932 96.126 350.017 96.126C349.289 96.126 348.636 95.9627 348.057 95.636C347.488 95.3093 347.04 94.8473 346.713 94.25C346.386 93.6433 346.223 92.9433 346.223 92.15C346.223 91.3567 346.382 90.6613 346.699 90.064C347.016 89.4667 347.46 89.0093 348.029 88.692C348.608 88.3653 349.27 88.202 350.017 88.202C350.745 88.202 351.389 88.3607 351.949 88.678C352.509 88.9953 352.938 89.434 353.237 89.994C353.545 90.5447 353.699 91.17 353.699 91.87ZM352.383 91.604C352.383 91.1187 352.276 90.7033 352.061 90.358C351.846 90.0033 351.552 89.7373 351.179 89.56C350.815 89.3733 350.409 89.28 349.961 89.28C349.317 89.28 348.766 89.4853 348.309 89.896C347.861 90.3067 347.604 90.876 347.539 91.604H352.383ZM356.655 89.574C356.879 89.1353 357.196 88.7947 357.607 88.552C358.027 88.3093 358.535 88.188 359.133 88.188V89.504H358.797C357.369 89.504 356.655 90.2787 356.655 91.828V96H355.381V88.328H356.655V89.574ZM361.919 94.236L360.351 98.002H359.497L360.519 94.236H361.919ZM372.249 96L369.925 92.01H368.385V96H367.111V86.242H370.261C370.999 86.242 371.619 86.368 372.123 86.62C372.637 86.872 373.019 87.2127 373.271 87.642C373.523 88.0713 373.649 88.5613 373.649 89.112C373.649 89.784 373.453 90.3767 373.061 90.89C372.679 91.4033 372.1 91.744 371.325 91.912L373.775 96H372.249ZM368.385 90.988H370.261C370.952 90.988 371.47 90.82 371.815 90.484C372.161 90.1387 372.333 89.6813 372.333 89.112C372.333 88.5333 372.161 88.0853 371.815 87.768C371.479 87.4507 370.961 87.292 370.261 87.292H368.385V90.988ZM382.629 91.87C382.629 92.1127 382.615 92.3693 382.587 92.64H376.455C376.501 93.396 376.758 93.9887 377.225 94.418C377.701 94.838 378.275 95.048 378.947 95.048C379.497 95.048 379.955 94.922 380.319 94.67C380.692 94.4087 380.953 94.0633 381.103 93.634H382.475C382.269 94.3713 381.859 94.9733 381.243 95.44C380.627 95.8973 379.861 96.126 378.947 96.126C378.219 96.126 377.565 95.9627 376.987 95.636C376.417 95.3093 375.969 94.8473 375.643 94.25C375.316 93.6433 375.153 92.9433 375.153 92.15C375.153 91.3567 375.311 90.6613 375.629 90.064C375.946 89.4667 376.389 89.0093 376.959 88.692C377.537 88.3653 378.2 88.202 378.947 88.202C379.675 88.202 380.319 88.3607 380.879 88.678C381.439 88.9953 381.868 89.434 382.167 89.994C382.475 90.5447 382.629 91.17 382.629 91.87ZM381.313 91.604C381.313 91.1187 381.205 90.7033 380.991 90.358C380.776 90.0033 380.482 89.7373 380.109 89.56C379.745 89.3733 379.339 89.28 378.891 89.28C378.247 89.28 377.696 89.4853 377.239 89.896C376.791 90.3067 376.534 90.876 376.469 91.604H381.313ZM383.834 92.136C383.834 91.352 383.993 90.666 384.31 90.078C384.628 89.4807 385.062 89.0187 385.612 88.692C386.172 88.3653 386.798 88.202 387.488 88.202C388.086 88.202 388.641 88.342 389.154 88.622C389.668 88.8927 390.06 89.252 390.33 89.7V85.64H391.618V96H390.33V94.558C390.078 95.0153 389.705 95.3933 389.21 95.692C388.716 95.9813 388.137 96.126 387.474 96.126C386.793 96.126 386.172 95.958 385.612 95.622C385.062 95.286 384.628 94.8147 384.31 94.208C383.993 93.6013 383.834 92.9107 383.834 92.136ZM390.33 92.15C390.33 91.5713 390.214 91.0673 389.98 90.638C389.747 90.2087 389.43 89.882 389.028 89.658C388.636 89.4247 388.202 89.308 387.726 89.308C387.25 89.308 386.816 89.42 386.424 89.644C386.032 89.868 385.72 90.1947 385.486 90.624C385.253 91.0533 385.136 91.5573 385.136 92.136C385.136 92.724 385.253 93.2373 385.486 93.676C385.72 94.1053 386.032 94.4367 386.424 94.67C386.816 94.894 387.25 95.006 387.726 95.006C388.202 95.006 388.636 94.894 389.028 94.67C389.43 94.4367 389.747 94.1053 389.98 93.676C390.214 93.2373 390.33 92.7287 390.33 92.15ZM400.575 88.328V96H399.301V94.866C399.059 95.258 398.718 95.566 398.279 95.79C397.85 96.0047 397.374 96.112 396.851 96.112C396.254 96.112 395.717 95.9907 395.241 95.748C394.765 95.496 394.387 95.1227 394.107 94.628C393.837 94.1333 393.701 93.5313 393.701 92.822V88.328H394.961V92.654C394.961 93.41 395.153 93.9933 395.535 94.404C395.918 94.8053 396.441 95.006 397.103 95.006C397.785 95.006 398.321 94.796 398.713 94.376C399.105 93.956 399.301 93.3447 399.301 92.542V88.328H400.575ZM406.73 96L404.91 93.144L403.16 96H401.83L404.308 92.192L401.83 88.328H403.272L405.092 91.17L406.828 88.328H408.158L405.694 92.122L408.172 96H406.73ZM410.742 94.236L409.174 98.002H408.32L409.342 94.236H410.742ZM415.457 91.114C415.457 90.162 415.672 89.308 416.101 88.552C416.531 87.7867 417.114 87.1893 417.851 86.76C418.598 86.3307 419.424 86.116 420.329 86.116C421.393 86.116 422.322 86.3727 423.115 86.886C423.909 87.3993 424.487 88.1273 424.851 89.07H423.325C423.055 88.482 422.663 88.0293 422.149 87.712C421.645 87.3947 421.039 87.236 420.329 87.236C419.648 87.236 419.037 87.3947 418.495 87.712C417.954 88.0293 417.529 88.482 417.221 89.07C416.913 89.6487 416.759 90.33 416.759 91.114C416.759 91.8887 416.913 92.57 417.221 93.158C417.529 93.7367 417.954 94.1847 418.495 94.502C419.037 94.8193 419.648 94.978 420.329 94.978C421.039 94.978 421.645 94.824 422.149 94.516C422.663 94.1987 423.055 93.746 423.325 93.158H424.851C424.487 94.0913 423.909 94.8147 423.115 95.328C422.322 95.832 421.393 96.084 420.329 96.084C419.424 96.084 418.598 95.874 417.851 95.454C417.114 95.0247 416.531 94.432 416.101 93.676C415.672 92.92 415.457 92.066 415.457 91.114ZM430.094 96.126C429.375 96.126 428.722 95.9627 428.134 95.636C427.555 95.3093 427.098 94.8473 426.762 94.25C426.435 93.6433 426.272 92.9433 426.272 92.15C426.272 91.366 426.44 90.6753 426.776 90.078C427.121 89.4713 427.588 89.0093 428.176 88.692C428.764 88.3653 429.422 88.202 430.15 88.202C430.878 88.202 431.536 88.3653 432.124 88.692C432.712 89.0093 433.174 89.4667 433.51 90.064C433.855 90.6613 434.028 91.3567 434.028 92.15C434.028 92.9433 433.851 93.6433 433.496 94.25C433.151 94.8473 432.679 95.3093 432.082 95.636C431.485 95.9627 430.822 96.126 430.094 96.126ZM430.094 95.006C430.551 95.006 430.981 94.8987 431.382 94.684C431.783 94.4693 432.105 94.1473 432.348 93.718C432.6 93.2887 432.726 92.766 432.726 92.15C432.726 91.534 432.605 91.0113 432.362 90.582C432.119 90.1527 431.802 89.8353 431.41 89.63C431.018 89.4153 430.593 89.308 430.136 89.308C429.669 89.308 429.24 89.4153 428.848 89.63C428.465 89.8353 428.157 90.1527 427.924 90.582C427.691 91.0113 427.574 91.534 427.574 92.15C427.574 92.7753 427.686 93.3027 427.91 93.732C428.143 94.1613 428.451 94.4833 428.834 94.698C429.217 94.9033 429.637 95.006 430.094 95.006ZM439.441 88.188C440.374 88.188 441.13 88.4727 441.709 89.042C442.288 89.602 442.577 90.414 442.577 91.478V96H441.317V91.66C441.317 90.8947 441.126 90.3113 440.743 89.91C440.36 89.4993 439.838 89.294 439.175 89.294C438.503 89.294 437.966 89.504 437.565 89.924C437.173 90.344 436.977 90.9553 436.977 91.758V96H435.703V88.328H436.977V89.42C437.229 89.028 437.57 88.7247 437.999 88.51C438.438 88.2953 438.918 88.188 439.441 88.188ZM446.212 89.378V93.9C446.212 94.2733 446.291 94.5393 446.45 94.698C446.609 94.8473 446.884 94.922 447.276 94.922H448.214V96H447.066C446.357 96 445.825 95.8367 445.47 95.51C445.115 95.1833 444.938 94.6467 444.938 93.9V89.378H443.944V88.328H444.938V86.396H446.212V88.328H448.214V89.378H446.212ZM456.758 91.87C456.758 92.1127 456.744 92.3693 456.716 92.64H450.584C450.63 93.396 450.887 93.9887 451.354 94.418C451.83 94.838 452.404 95.048 453.076 95.048C453.626 95.048 454.084 94.922 454.448 94.67C454.821 94.4087 455.082 94.0633 455.232 93.634H456.604C456.398 94.3713 455.988 94.9733 455.372 95.44C454.756 95.8973 453.99 96.126 453.076 96.126C452.348 96.126 451.694 95.9627 451.116 95.636C450.546 95.3093 450.098 94.8473 449.772 94.25C449.445 93.6433 449.282 92.9433 449.282 92.15C449.282 91.3567 449.44 90.6613 449.758 90.064C450.075 89.4667 450.518 89.0093 451.088 88.692C451.666 88.3653 452.329 88.202 453.076 88.202C453.804 88.202 454.448 88.3607 455.008 88.678C455.568 88.9953 455.997 89.434 456.296 89.994C456.604 90.5447 456.758 91.17 456.758 91.87ZM455.442 91.604C455.442 91.1187 455.334 90.7033 455.12 90.358C454.905 90.0033 454.611 89.7373 454.238 89.56C453.874 89.3733 453.468 89.28 453.02 89.28C452.376 89.28 451.825 89.4853 451.368 89.896C450.92 90.3067 450.663 90.876 450.598 91.604H455.442ZM462.443 96L460.623 93.144L458.873 96H457.543L460.021 92.192L457.543 88.328H458.985L460.805 91.17L462.541 88.328H463.871L461.407 92.122L463.885 96H462.443ZM466.693 89.378V93.9C466.693 94.2733 466.772 94.5393 466.931 94.698C467.089 94.8473 467.365 94.922 467.757 94.922H468.695V96H467.547C466.837 96 466.305 95.8367 465.951 95.51C465.596 95.1833 465.419 94.6467 465.419 93.9V89.378H464.425V88.328H465.419V86.396H466.693V88.328H468.695V89.378H466.693ZM479.739 93.83H475.483L474.699 96H473.355L476.883 86.298H478.353L481.867 96H480.523L479.739 93.83ZM479.375 92.794L477.611 87.866L475.847 92.794H479.375ZM489.928 89.098C489.928 89.91 489.648 90.5867 489.088 91.128C488.538 91.66 487.693 91.926 486.554 91.926H484.678V96H483.404V86.242H486.554C487.656 86.242 488.491 86.508 489.06 87.04C489.639 87.572 489.928 88.258 489.928 89.098ZM486.554 90.876C487.264 90.876 487.786 90.722 488.122 90.414C488.458 90.106 488.626 89.6673 488.626 89.098C488.626 87.894 487.936 87.292 486.554 87.292H484.678V90.876H486.554ZM492.786 86.242V96H491.512V86.242H492.786ZM505.689 91.87C505.689 92.1127 505.675 92.3693 505.647 92.64H499.515C499.562 93.396 499.819 93.9887 500.285 94.418C500.761 94.838 501.335 95.048 502.007 95.048C502.558 95.048 503.015 94.922 503.379 94.67C503.753 94.4087 504.014 94.0633 504.163 93.634H505.535C505.33 94.3713 504.919 94.9733 504.303 95.44C503.687 95.8973 502.922 96.126 502.007 96.126C501.279 96.126 500.626 95.9627 500.047 95.636C499.478 95.3093 499.03 94.8473 498.703 94.25C498.377 93.6433 498.213 92.9433 498.213 92.15C498.213 91.3567 498.372 90.6613 498.689 90.064C499.007 89.4667 499.45 89.0093 500.019 88.692C500.598 88.3653 501.261 88.202 502.007 88.202C502.735 88.202 503.379 88.3607 503.939 88.678C504.499 88.9953 504.929 89.434 505.227 89.994C505.535 90.5447 505.689 91.17 505.689 91.87ZM504.373 91.604C504.373 91.1187 504.266 90.7033 504.051 90.358C503.837 90.0033 503.543 89.7373 503.169 89.56C502.805 89.3733 502.399 89.28 501.951 89.28C501.307 89.28 500.757 89.4853 500.299 89.896C499.851 90.3067 499.595 90.876 499.529 91.604H504.373ZM516.241 96L513.917 92.01H512.377V96H511.103V86.242H514.253C514.991 86.242 515.611 86.368 516.115 86.62C516.629 86.872 517.011 87.2127 517.263 87.642C517.515 88.0713 517.641 88.5613 517.641 89.112C517.641 89.784 517.445 90.3767 517.053 90.89C516.671 91.4033 516.092 91.744 515.317 91.912L517.767 96H516.241ZM512.377 90.988H514.253C514.944 90.988 515.462 90.82 515.807 90.484C516.153 90.1387 516.325 89.6813 516.325 89.112C516.325 88.5333 516.153 88.0853 515.807 87.768C515.471 87.4507 514.953 87.292 514.253 87.292H512.377V90.988ZM526.621 91.87C526.621 92.1127 526.607 92.3693 526.579 92.64H520.447C520.494 93.396 520.75 93.9887 521.217 94.418C521.693 94.838 522.267 95.048 522.939 95.048C523.49 95.048 523.947 94.922 524.311 94.67C524.684 94.4087 524.946 94.0633 525.095 93.634H526.467C526.262 94.3713 525.851 94.9733 525.235 95.44C524.619 95.8973 523.854 96.126 522.939 96.126C522.211 96.126 521.558 95.9627 520.979 95.636C520.41 95.3093 519.962 94.8473 519.635 94.25C519.308 93.6433 519.145 92.9433 519.145 92.15C519.145 91.3567 519.304 90.6613 519.621 90.064C519.938 89.4667 520.382 89.0093 520.951 88.692C521.53 88.3653 522.192 88.202 522.939 88.202C523.667 88.202 524.311 88.3607 524.871 88.678C525.431 88.9953 525.86 89.434 526.159 89.994C526.467 90.5447 526.621 91.17 526.621 91.87ZM525.305 91.604C525.305 91.1187 525.198 90.7033 524.983 90.358C524.768 90.0033 524.474 89.7373 524.101 89.56C523.737 89.3733 523.331 89.28 522.883 89.28C522.239 89.28 521.688 89.4853 521.231 89.896C520.783 90.3067 520.526 90.876 520.461 91.604H525.305ZM527.827 92.136C527.827 91.352 527.985 90.666 528.303 90.078C528.62 89.4807 529.054 89.0187 529.605 88.692C530.165 88.3653 530.785 88.202 531.467 88.202C532.139 88.202 532.722 88.3467 533.217 88.636C533.711 88.9253 534.08 89.2893 534.323 89.728V88.328H535.611V96H534.323V94.572C534.071 95.02 533.693 95.3933 533.189 95.692C532.694 95.9813 532.115 96.126 531.453 96.126C530.771 96.126 530.155 95.958 529.605 95.622C529.054 95.286 528.62 94.8147 528.303 94.208C527.985 93.6013 527.827 92.9107 527.827 92.136ZM534.323 92.15C534.323 91.5713 534.206 91.0673 533.973 90.638C533.739 90.2087 533.422 89.882 533.021 89.658C532.629 89.4247 532.195 89.308 531.719 89.308C531.243 89.308 530.809 89.42 530.417 89.644C530.025 89.868 529.712 90.1947 529.479 90.624C529.245 91.0533 529.129 91.5573 529.129 92.136C529.129 92.724 529.245 93.2373 529.479 93.676C529.712 94.1053 530.025 94.4367 530.417 94.67C530.809 94.894 531.243 95.006 531.719 95.006C532.195 95.006 532.629 94.894 533.021 94.67C533.422 94.4367 533.739 94.1053 533.973 93.676C534.206 93.2373 534.323 92.7287 534.323 92.15ZM537.288 92.15C537.288 91.3567 537.446 90.666 537.764 90.078C538.081 89.4807 538.52 89.0187 539.08 88.692C539.649 88.3653 540.298 88.202 541.026 88.202C541.968 88.202 542.743 88.4307 543.35 88.888C543.966 89.3453 544.372 89.98 544.568 90.792H543.196C543.065 90.3253 542.808 89.9567 542.426 89.686C542.052 89.4153 541.586 89.28 541.026 89.28C540.298 89.28 539.71 89.532 539.262 90.036C538.814 90.5307 538.59 91.2353 538.59 92.15C538.59 93.074 538.814 93.788 539.262 94.292C539.71 94.796 540.298 95.048 541.026 95.048C541.586 95.048 542.052 94.9173 542.426 94.656C542.799 94.3947 543.056 94.0213 543.196 93.536H544.568C544.362 94.32 543.952 94.95 543.336 95.426C542.72 95.8927 541.95 96.126 541.026 96.126C540.298 96.126 539.649 95.9627 539.08 95.636C538.52 95.3093 538.081 94.8473 537.764 94.25C537.446 93.6527 537.288 92.9527 537.288 92.15ZM547.821 89.378V93.9C547.821 94.2733 547.901 94.5393 548.059 94.698C548.218 94.8473 548.493 94.922 548.885 94.922H549.823V96H548.675C547.966 96 547.434 95.8367 547.079 95.51C546.725 95.1833 546.547 94.6467 546.547 93.9V89.378H545.553V88.328H546.547V86.396H547.821V88.328H549.823V89.378H547.821ZM561.105 86.242V87.278H558.445V96H557.171V87.278H554.497V86.242H561.105ZM569.674 91.87C569.674 92.1127 569.66 92.3693 569.632 92.64H563.5C563.546 93.396 563.803 93.9887 564.27 94.418C564.746 94.838 565.32 95.048 565.992 95.048C566.542 95.048 567 94.922 567.364 94.67C567.737 94.4087 567.998 94.0633 568.148 93.634H569.52C569.314 94.3713 568.904 94.9733 568.288 95.44C567.672 95.8973 566.906 96.126 565.992 96.126C565.264 96.126 564.61 95.9627 564.032 95.636C563.462 95.3093 563.014 94.8473 562.688 94.25C562.361 93.6433 562.198 92.9433 562.198 92.15C562.198 91.3567 562.356 90.6613 562.674 90.064C562.991 89.4667 563.434 89.0093 564.004 88.692C564.582 88.3653 565.245 88.202 565.992 88.202C566.72 88.202 567.364 88.3607 567.924 88.678C568.484 88.9953 568.913 89.434 569.212 89.994C569.52 90.5447 569.674 91.17 569.674 91.87ZM568.358 91.604C568.358 91.1187 568.25 90.7033 568.036 90.358C567.821 90.0033 567.527 89.7373 567.154 89.56C566.79 89.3733 566.384 89.28 565.936 89.28C565.292 89.28 564.741 89.4853 564.284 89.896C563.836 90.3067 563.579 90.876 563.514 91.604H568.358ZM574.071 96.126C573.483 96.126 572.956 96.028 572.489 95.832C572.023 95.6267 571.654 95.3467 571.383 94.992C571.113 94.628 570.963 94.2127 570.935 93.746H572.251C572.289 94.1287 572.466 94.4413 572.783 94.684C573.11 94.9267 573.535 95.048 574.057 95.048C574.543 95.048 574.925 94.9407 575.205 94.726C575.485 94.5113 575.625 94.2407 575.625 93.914C575.625 93.578 575.476 93.3307 575.177 93.172C574.879 93.004 574.417 92.8407 573.791 92.682C573.222 92.5327 572.755 92.3833 572.391 92.234C572.037 92.0753 571.729 91.8467 571.467 91.548C571.215 91.24 571.089 90.8387 571.089 90.344C571.089 89.952 571.206 89.5927 571.439 89.266C571.673 88.9393 572.004 88.6827 572.433 88.496C572.863 88.3 573.353 88.202 573.903 88.202C574.753 88.202 575.439 88.4167 575.961 88.846C576.484 89.2753 576.764 89.8633 576.801 90.61H575.527C575.499 90.2087 575.336 89.8867 575.037 89.644C574.748 89.4013 574.356 89.28 573.861 89.28C573.404 89.28 573.04 89.378 572.769 89.574C572.499 89.77 572.363 90.0267 572.363 90.344C572.363 90.596 572.443 90.806 572.601 90.974C572.769 91.1327 572.975 91.2633 573.217 91.366C573.469 91.4593 573.815 91.5667 574.253 91.688C574.804 91.8373 575.252 91.9867 575.597 92.136C575.943 92.276 576.237 92.4907 576.479 92.78C576.731 93.0693 576.862 93.4473 576.871 93.914C576.871 94.334 576.755 94.712 576.521 95.048C576.288 95.384 575.957 95.65 575.527 95.846C575.107 96.0327 574.622 96.126 574.071 96.126ZM580.224 89.378V93.9C580.224 94.2733 580.303 94.5393 580.462 94.698C580.62 94.8473 580.896 94.922 581.288 94.922H582.226V96H581.078C580.368 96 579.836 95.8367 579.482 95.51C579.127 95.1833 578.95 94.6467 578.95 93.9V89.378H577.956V88.328H578.95V86.396H580.224V88.328H582.226V89.378H580.224ZM584.427 87.082C584.185 87.082 583.979 86.998 583.811 86.83C583.643 86.662 583.559 86.4567 583.559 86.214C583.559 85.9713 583.643 85.766 583.811 85.598C583.979 85.43 584.185 85.346 584.427 85.346C584.661 85.346 584.857 85.43 585.015 85.598C585.183 85.766 585.267 85.9713 585.267 86.214C585.267 86.4567 585.183 86.662 585.015 86.83C584.857 86.998 584.661 87.082 584.427 87.082ZM585.043 88.328V96H583.769V88.328H585.043ZM590.953 88.188C591.886 88.188 592.642 88.4727 593.221 89.042C593.799 89.602 594.089 90.414 594.089 91.478V96H592.829V91.66C592.829 90.8947 592.637 90.3113 592.255 89.91C591.872 89.4993 591.349 89.294 590.687 89.294C590.015 89.294 589.478 89.504 589.077 89.924C588.685 90.344 588.489 90.9553 588.489 91.758V96H587.215V88.328H588.489V89.42C588.741 89.028 589.081 88.7247 589.511 88.51C589.949 88.2953 590.43 88.188 590.953 88.188ZM599.334 88.202C599.996 88.202 600.575 88.3467 601.07 88.636C601.574 88.9253 601.947 89.2893 602.19 89.728V88.328H603.478V96.168C603.478 96.868 603.328 97.4887 603.03 98.03C602.731 98.5807 602.302 99.01 601.742 99.318C601.191 99.626 600.547 99.78 599.81 99.78C598.802 99.78 597.962 99.542 597.29 99.066C596.618 98.59 596.221 97.9413 596.1 97.12H597.36C597.5 97.5867 597.789 97.96 598.228 98.24C598.666 98.5293 599.194 98.674 599.81 98.674C600.51 98.674 601.079 98.4547 601.518 98.016C601.966 97.5773 602.19 96.9613 602.19 96.168V94.558C601.938 95.006 601.564 95.3793 601.07 95.678C600.575 95.9767 599.996 96.126 599.334 96.126C598.652 96.126 598.032 95.958 597.472 95.622C596.921 95.286 596.487 94.8147 596.17 94.208C595.852 93.6013 595.694 92.9107 595.694 92.136C595.694 91.352 595.852 90.666 596.17 90.078C596.487 89.4807 596.921 89.0187 597.472 88.692C598.032 88.3653 598.652 88.202 599.334 88.202ZM602.19 92.15C602.19 91.5713 602.073 91.0673 601.84 90.638C601.606 90.2087 601.289 89.882 600.888 89.658C600.496 89.4247 600.062 89.308 599.586 89.308C599.11 89.308 598.676 89.42 598.284 89.644C597.892 89.868 597.579 90.1947 597.346 90.624C597.112 91.0533 596.996 91.5573 596.996 92.136C596.996 92.724 597.112 93.2373 597.346 93.676C597.579 94.1053 597.892 94.4367 598.284 94.67C598.676 94.894 599.11 95.006 599.586 95.006C600.062 95.006 600.496 94.894 600.888 94.67C601.289 94.4367 601.606 94.1053 601.84 93.676C602.073 93.2373 602.19 92.7287 602.19 92.15ZM610.637 94.964H614.053V96H609.363V86.242H610.637V94.964ZM616.064 87.082C615.821 87.082 615.616 86.998 615.448 86.83C615.28 86.662 615.196 86.4567 615.196 86.214C615.196 85.9713 615.28 85.766 615.448 85.598C615.616 85.43 615.821 85.346 616.064 85.346C616.297 85.346 616.493 85.43 616.652 85.598C616.82 85.766 616.904 85.9713 616.904 86.214C616.904 86.4567 616.82 86.662 616.652 86.83C616.493 86.998 616.297 87.082 616.064 87.082ZM616.68 88.328V96H615.406V88.328H616.68ZM620.125 89.756C620.387 89.2987 620.769 88.9253 621.273 88.636C621.777 88.3467 622.351 88.202 622.995 88.202C623.686 88.202 624.307 88.3653 624.857 88.692C625.408 89.0187 625.842 89.4807 626.159 90.078C626.477 90.666 626.635 91.352 626.635 92.136C626.635 92.9107 626.477 93.6013 626.159 94.208C625.842 94.8147 625.403 95.286 624.843 95.622C624.293 95.958 623.677 96.126 622.995 96.126C622.333 96.126 621.749 95.9813 621.245 95.692C620.751 95.4027 620.377 95.034 620.125 94.586V96H618.851V85.64H620.125V89.756ZM625.333 92.136C625.333 91.5573 625.217 91.0533 624.983 90.624C624.75 90.1947 624.433 89.868 624.031 89.644C623.639 89.42 623.205 89.308 622.729 89.308C622.263 89.308 621.829 89.4247 621.427 89.658C621.035 89.882 620.718 90.2133 620.475 90.652C620.242 91.0813 620.125 91.5807 620.125 92.15C620.125 92.7287 620.242 93.2373 620.475 93.676C620.718 94.1053 621.035 94.4367 621.427 94.67C621.829 94.894 622.263 95.006 622.729 95.006C623.205 95.006 623.639 94.894 624.031 94.67C624.433 94.4367 624.75 94.1053 624.983 93.676C625.217 93.2373 625.333 92.724 625.333 92.136ZM629.586 89.574C629.81 89.1353 630.128 88.7947 630.538 88.552C630.958 88.3093 631.467 88.188 632.064 88.188V89.504H631.728C630.3 89.504 629.586 90.2787 629.586 91.828V96H628.312V88.328H629.586V89.574ZM633.059 92.136C633.059 91.352 633.218 90.666 633.535 90.078C633.852 89.4807 634.286 89.0187 634.837 88.692C635.397 88.3653 636.018 88.202 636.699 88.202C637.371 88.202 637.954 88.3467 638.449 88.636C638.944 88.9253 639.312 89.2893 639.555 89.728V88.328H640.843V96H639.555V94.572C639.303 95.02 638.925 95.3933 638.421 95.692C637.926 95.9813 637.348 96.126 636.685 96.126C636.004 96.126 635.388 95.958 634.837 95.622C634.286 95.286 633.852 94.8147 633.535 94.208C633.218 93.6013 633.059 92.9107 633.059 92.136ZM639.555 92.15C639.555 91.5713 639.438 91.0673 639.205 90.638C638.972 90.2087 638.654 89.882 638.253 89.658C637.861 89.4247 637.427 89.308 636.951 89.308C636.475 89.308 636.041 89.42 635.649 89.644C635.257 89.868 634.944 90.1947 634.711 90.624C634.478 91.0533 634.361 91.5573 634.361 92.136C634.361 92.724 634.478 93.2373 634.711 93.676C634.944 94.1053 635.257 94.4367 635.649 94.67C636.041 94.894 636.475 95.006 636.951 95.006C637.427 95.006 637.861 94.894 638.253 94.67C638.654 94.4367 638.972 94.1053 639.205 93.676C639.438 93.2373 639.555 92.7287 639.555 92.15ZM644.27 89.574C644.494 89.1353 644.811 88.7947 645.222 88.552C645.642 88.3093 646.151 88.188 646.748 88.188V89.504H646.412C644.984 89.504 644.27 90.2787 644.27 91.828V96H642.996V88.328H644.27V89.574ZM654.827 88.328L650.207 99.612H648.891L650.403 95.916L647.309 88.328H648.723L651.131 94.544L653.511 88.328H654.827ZM656.513 96.084C656.271 96.084 656.065 96 655.897 95.832C655.729 95.664 655.645 95.4587 655.645 95.216C655.645 94.9733 655.729 94.768 655.897 94.6C656.065 94.432 656.271 94.348 656.513 94.348C656.747 94.348 656.943 94.432 657.101 94.6C657.269 94.768 657.353 94.9733 657.353 95.216C657.353 95.4587 657.269 95.664 657.101 95.832C656.943 96 656.747 96.084 656.513 96.084Z" fill="#A3A5AE"/>
<defs>
<filter id="filter0_ddi" x="5" y="10" width="820" height="125" filterUnits="userSpaceOnUse" color-interpolation-filters="sRGB">
<feFlood flood-opacity="0" result="BackgroundImageFix"/>
<feColorMatrix in="SourceAlpha" type="matrix" values="0 0 0 0 0 0 0 0 0 0 0 0 0 0 0 0 0 0 127 0"/>
<feMorphology radius="10" operator="erode" in="SourceAlpha" result="effect1_dropShadow"/>
<feOffset dy="15"/>
<feGaussianBlur stdDeviation="10"/>
<feColorMatrix type="matrix" values="0 0 0 0 1 0 0 0 0 1 0 0 0 0 1 0 0 0 0.5 0"/>
<feBlend mode="normal" in2="BackgroundImageFix" result="effect1_dropShadow"/>
<feColorMatrix in="SourceAlpha" type="matrix" values="0 0 0 0 0 0 0 0 0 0 0 0 0 0 0 0 0 0 127 0"/>
<feMorphology radius="10" operator="erode" in="SourceAlpha" result="effect2_dropShadow"/>
<feOffset dy="15"/>
<feGaussianBlur stdDeviation="10"/>
<feColorMatrix type="matrix" values="0 0 0 0 0 0 0 0 0 0 0 0 0 0 0 0 0 0 0.25 0"/>
<feBlend mode="normal" in2="effect1_dropShadow" result="effect2_dropShadow"/>
<feBlend mode="normal" in="SourceGraphic" in2="effect2_dropShadow" result="shape"/>
<feColorMatrix in="SourceAlpha" type="matrix" values="0 0 0 0 0 0 0 0 0 0 0 0 0 0 0 0 0 0 127 0" result="hardAlpha"/>
<feOffset dy="3"/>
<feComposite in2="hardAlpha" operator="arithmetic" k2="-1" k3="1"/>
<feColorMatrix type="matrix" values="0 0 0 0 0.917647 0 0 0 0 0.321569 0 0 0 0 0.321569 0 0 0 1 0"/>
<feBlend mode="normal" in2="shape" result="effect3_innerShadow"/>
</filter>
</defs>
</svg>
