<svg width="830" height="140" viewBox="0 0 830 140" fill="none" xmlns="http://www.w3.org/2000/svg">
<g filter="url(#filter0_ddi)">
<rect x="15" y="10" width="800" height="100" rx="5" fill="#FAFAFA"/>
</g>
<g clip-path="url(#clip0)">
<path d="M86.842 35.158C77.316 25.595 61.94 25.633 52.414 35.158C44.389 43.184 42.964 55.598 48.889 65.161L46.376 67.711L45.02 73.855L49.234 78.069L54.327 75.661L56.839 73.111C61.5014 76.0038 67.0069 77.2303 72.4563 76.59C77.9058 75.9498 82.9771 73.4807 86.842 69.586C96.405 60.06 96.367 44.684 86.842 35.158Z" fill="#676E74"/>
<path d="M54.327 75.661L56.839 73.111C61.5014 76.0038 67.0069 77.2303 72.4563 76.59C77.9058 75.9498 82.9771 73.4807 86.842 69.586C96.405 60.06 96.367 44.684 86.842 35.158L46.582 75.418L49.234 78.069L54.327 75.661Z" fill="#474F54"/>
<path d="M84.213 37.787C82.2998 35.8688 80.0264 34.3476 77.5234 33.3109C75.0204 32.2742 72.3372 31.7423 69.628 31.746C58.236 31.746 49 40.98 49 52.372C48.9964 55.0813 49.5283 57.7647 50.565 60.2678C51.6017 62.771 53.1228 65.0446 55.041 66.958C56.9545 68.876 59.2282 70.3969 61.7313 71.4335C64.2344 72.47 66.9177 73.0017 69.627 72.998C81.019 72.998 90.253 63.764 90.253 52.372C90.2567 49.6628 89.7248 46.9796 88.6881 44.4766C87.6514 41.9736 86.1302 39.7002 84.212 37.787H84.213Z" fill="#64E1DC"/>
<path d="M90.254 52.372C90.2577 49.6628 89.7258 46.9796 88.6891 44.4766C87.6524 41.9736 86.1312 39.7002 84.213 37.787L55.043 66.957C56.956 68.8753 59.2292 70.3966 61.732 71.4337C64.2348 72.4708 66.9179 73.003 69.627 73C81.019 73 90.253 63.765 90.253 52.373L90.254 52.372Z" fill="#00C8C8"/>
<path d="M86.239 51.41C86.055 51.103 83.259 46.496 78.958 43.042C76.328 40.929 73.136 39.246 69.628 39.246C60.386 39.246 53.314 50.915 53.018 51.411L52.442 52.372L53.017 53.333C53.201 53.642 55.997 58.249 60.297 61.703C62.928 63.815 66.12 65.498 69.627 65.498C78.87 65.498 85.942 53.83 86.239 53.333L86.813 52.373L86.239 51.411V51.41Z" fill="#EFEFF4"/>
<path d="M86.239 53.333L86.813 52.373L86.239 51.411C86.055 51.103 83.259 46.496 78.958 43.042L60.298 61.702C62.928 63.815 66.12 65.498 69.628 65.498C78.87 65.498 85.942 53.83 86.238 53.333H86.239Z" fill="#DADAE5"/>
<path d="M73.604 48.396C73.0826 47.8726 72.463 47.4574 71.7807 47.1742C71.0983 46.8911 70.3668 46.7455 69.628 46.746C68.1364 46.7476 66.7063 47.3408 65.6516 48.3956C64.5968 49.4503 64.0036 50.8804 64.002 52.372C64.002 53.923 64.633 55.33 65.652 56.348C66.1734 56.8713 66.7931 57.2865 67.4754 57.5696C68.1577 57.8528 68.8893 57.9984 69.628 57.998C71.1194 57.9961 72.5493 57.4028 73.6038 56.3481C74.6583 55.2934 75.2514 53.8634 75.253 52.372C75.253 50.822 74.623 49.415 73.604 48.396Z" fill="#64E1DC"/>
<path d="M75.253 52.372C75.253 50.822 74.623 49.415 73.604 48.396L65.652 56.348C66.1734 56.8714 66.793 57.2865 67.4754 57.5697C68.1577 57.8529 68.8893 57.9984 69.628 57.998C71.1194 57.9961 72.5493 57.4028 73.6038 56.3481C74.6583 55.2934 75.2514 53.8634 75.253 52.372Z" fill="#00C8C8"/>
<path d="M70.954 51.046C70.7361 50.8272 70.4675 50.6657 70.1721 50.5756C69.8768 50.4855 69.5638 50.4697 69.2608 50.5297C68.9579 50.5896 68.6745 50.7234 68.4357 50.9191C68.1968 51.1149 68.0101 51.3666 67.8918 51.6519C67.7736 51.9371 67.7277 52.2472 67.758 52.5545C67.7884 52.8617 67.8941 53.1568 68.0659 53.4134C68.2376 53.67 68.4701 53.8803 68.7426 54.0255C69.0151 54.1708 69.3192 54.2465 69.628 54.246C69.9985 54.2454 70.3605 54.1351 70.6684 53.9291C70.9762 53.723 71.2162 53.4304 71.358 53.0882C71.4999 52.7459 71.5372 52.3693 71.4653 52.0059C71.3934 51.6425 71.2155 51.3085 70.954 51.046Z" fill="#676E74"/>
<path d="M71.503 52.372C71.503 51.855 71.293 51.386 70.953 51.046L68.303 53.698C68.5655 53.9595 68.8995 54.1374 69.2629 54.2093C69.6263 54.2812 70.0029 54.2439 70.3452 54.102C70.6874 53.9602 70.98 53.7202 71.1861 53.4124C71.3921 53.1045 71.5024 52.7425 71.503 52.372Z" fill="#474F54"/>
<path d="M50.333 71.667L46.376 67.71L30 84.049L33.975 88.025L37.951 92L54.327 75.661L50.333 71.667Z" fill="#575C60"/>
<path d="M54.327 75.661L50.333 71.667L33.975 88.025L37.951 92L54.327 75.661Z" fill="#333637"/>
</g>
<path d="M164 33.248V35.96H157.016V40.256H162.368V42.92H157.016V50H153.656V33.248H164ZM178.935 36.704V50H175.551V48.32C175.119 48.896 174.551 49.352 173.847 49.688C173.159 50.008 172.407 50.168 171.591 50.168C170.551 50.168 169.631 49.952 168.831 49.52C168.031 49.072 167.399 48.424 166.935 47.576C166.487 46.712 166.263 45.688 166.263 44.504V36.704H169.623V44.024C169.623 45.08 169.887 45.896 170.415 46.472C170.943 47.032 171.663 47.312 172.575 47.312C173.503 47.312 174.231 47.032 174.759 46.472C175.287 45.896 175.551 45.08 175.551 44.024V36.704H178.935ZM189.618 36.512C191.202 36.512 192.482 37.016 193.458 38.024C194.434 39.016 194.922 40.408 194.922 42.2V50H191.562V42.656C191.562 41.6 191.298 40.792 190.77 40.232C190.242 39.656 189.522 39.368 188.61 39.368C187.682 39.368 186.946 39.656 186.402 40.232C185.874 40.792 185.61 41.6 185.61 42.656V50H182.25V36.704H185.61V38.36C186.058 37.784 186.626 37.336 187.314 37.016C188.018 36.68 188.786 36.512 189.618 36.512ZM197.253 43.304C197.253 41.96 197.517 40.768 198.045 39.728C198.589 38.688 199.325 37.888 200.253 37.328C201.181 36.768 202.213 36.488 203.349 36.488C204.213 36.488 205.037 36.68 205.821 37.064C206.605 37.432 207.229 37.928 207.693 38.552V32.24H211.101V50H207.693V48.032C207.277 48.688 206.693 49.216 205.941 49.616C205.189 50.016 204.317 50.216 203.325 50.216C202.205 50.216 201.181 49.928 200.253 49.352C199.325 48.776 198.589 47.968 198.045 46.928C197.517 45.872 197.253 44.664 197.253 43.304ZM207.717 43.352C207.717 42.536 207.557 41.84 207.237 41.264C206.917 40.672 206.485 40.224 205.941 39.92C205.397 39.6 204.813 39.44 204.189 39.44C203.565 39.44 202.989 39.592 202.461 39.896C201.933 40.2 201.501 40.648 201.165 41.24C200.845 41.816 200.685 42.504 200.685 43.304C200.685 44.104 200.845 44.808 201.165 45.416C201.501 46.008 201.933 46.464 202.461 46.784C203.005 47.104 203.581 47.264 204.189 47.264C204.813 47.264 205.397 47.112 205.941 46.808C206.485 46.488 206.917 46.04 207.237 45.464C207.557 44.872 207.717 44.168 207.717 43.352ZM213.519 43.304C213.519 41.96 213.783 40.768 214.311 39.728C214.855 38.688 215.583 37.888 216.495 37.328C217.423 36.768 218.455 36.488 219.591 36.488C220.583 36.488 221.447 36.688 222.183 37.088C222.935 37.488 223.535 37.992 223.983 38.6V36.704H227.367V50H223.983V48.056C223.551 48.68 222.951 49.2 222.183 49.616C221.431 50.016 220.559 50.216 219.567 50.216C218.447 50.216 217.423 49.928 216.495 49.352C215.583 48.776 214.855 47.968 214.311 46.928C213.783 45.872 213.519 44.664 213.519 43.304ZM223.983 43.352C223.983 42.536 223.823 41.84 223.503 41.264C223.183 40.672 222.751 40.224 222.207 39.92C221.663 39.6 221.079 39.44 220.455 39.44C219.831 39.44 219.255 39.592 218.727 39.896C218.199 40.2 217.767 40.648 217.431 41.24C217.111 41.816 216.951 42.504 216.951 43.304C216.951 44.104 217.111 44.808 217.431 45.416C217.767 46.008 218.199 46.464 218.727 46.784C219.271 47.104 219.847 47.264 220.455 47.264C221.079 47.264 221.663 47.112 222.207 46.808C222.751 46.488 223.183 46.04 223.503 45.464C223.823 44.872 223.983 44.168 223.983 43.352ZM247.16 36.512C248.792 36.512 250.104 37.016 251.096 38.024C252.104 39.016 252.608 40.408 252.608 42.2V50H249.248V42.656C249.248 41.616 248.984 40.824 248.456 40.28C247.928 39.72 247.208 39.44 246.296 39.44C245.384 39.44 244.656 39.72 244.112 40.28C243.584 40.824 243.32 41.616 243.32 42.656V50H239.96V42.656C239.96 41.616 239.696 40.824 239.168 40.28C238.64 39.72 237.92 39.44 237.008 39.44C236.08 39.44 235.344 39.72 234.8 40.28C234.272 40.824 234.008 41.616 234.008 42.656V50H230.648V36.704H234.008V38.312C234.44 37.752 234.992 37.312 235.664 36.992C236.352 36.672 237.104 36.512 237.92 36.512C238.96 36.512 239.888 36.736 240.704 37.184C241.52 37.616 242.152 38.24 242.6 39.056C243.032 38.288 243.656 37.672 244.472 37.208C245.304 36.744 246.2 36.512 247.16 36.512ZM268.157 43.064C268.157 43.544 268.125 43.976 268.061 44.36H258.341C258.421 45.32 258.757 46.072 259.349 46.616C259.941 47.16 260.669 47.432 261.533 47.432C262.781 47.432 263.669 46.896 264.197 45.824H267.821C267.437 47.104 266.701 48.16 265.613 48.992C264.525 49.808 263.189 50.216 261.605 50.216C260.325 50.216 259.173 49.936 258.149 49.376C257.141 48.8 256.349 47.992 255.773 46.952C255.213 45.912 254.933 44.712 254.933 43.352C254.933 41.976 255.213 40.768 255.773 39.728C256.333 38.688 257.117 37.888 258.125 37.328C259.133 36.768 260.293 36.488 261.605 36.488C262.869 36.488 263.997 36.76 264.989 37.304C265.997 37.848 266.773 38.624 267.317 39.632C267.877 40.624 268.157 41.768 268.157 43.064ZM264.677 42.104C264.661 41.24 264.349 40.552 263.741 40.04C263.133 39.512 262.389 39.248 261.509 39.248C260.677 39.248 259.973 39.504 259.397 40.016C258.837 40.512 258.493 41.208 258.365 42.104H264.677ZM277.977 36.512C279.561 36.512 280.841 37.016 281.817 38.024C282.793 39.016 283.281 40.408 283.281 42.2V50H279.921V42.656C279.921 41.6 279.657 40.792 279.129 40.232C278.601 39.656 277.881 39.368 276.969 39.368C276.041 39.368 275.305 39.656 274.761 40.232C274.233 40.792 273.969 41.6 273.969 42.656V50H270.609V36.704H273.969V38.36C274.417 37.784 274.985 37.336 275.673 37.016C276.377 36.68 277.145 36.512 277.977 36.512ZM290.388 39.464V45.896C290.388 46.344 290.492 46.672 290.7 46.88C290.924 47.072 291.292 47.168 291.804 47.168H293.364V50H291.252C288.42 50 287.004 48.624 287.004 45.872V39.464H285.42V36.704H287.004V33.416H290.388V36.704H293.364V39.464H290.388ZM301.685 50.216C300.405 50.216 299.253 49.936 298.229 49.376C297.205 48.8 296.397 47.992 295.805 46.952C295.229 45.912 294.941 44.712 294.941 43.352C294.941 41.992 295.237 40.792 295.829 39.752C296.437 38.712 297.261 37.912 298.301 37.352C299.341 36.776 300.501 36.488 301.781 36.488C303.061 36.488 304.221 36.776 305.261 37.352C306.301 37.912 307.117 38.712 307.709 39.752C308.317 40.792 308.621 41.992 308.621 43.352C308.621 44.712 308.309 45.912 307.685 46.952C307.077 47.992 306.245 48.8 305.189 49.376C304.149 49.936 302.981 50.216 301.685 50.216ZM301.685 47.288C302.293 47.288 302.861 47.144 303.389 46.856C303.933 46.552 304.365 46.104 304.685 45.512C305.005 44.92 305.165 44.2 305.165 43.352C305.165 42.088 304.829 41.12 304.157 40.448C303.501 39.76 302.693 39.416 301.733 39.416C300.773 39.416 299.965 39.76 299.309 40.448C298.669 41.12 298.349 42.088 298.349 43.352C298.349 44.616 298.661 45.592 299.285 46.28C299.925 46.952 300.725 47.288 301.685 47.288ZM316.174 50.216C315.086 50.216 314.11 50.024 313.246 49.64C312.382 49.24 311.694 48.704 311.182 48.032C310.686 47.36 310.414 46.616 310.366 45.8H313.75C313.814 46.312 314.062 46.736 314.494 47.072C314.942 47.408 315.494 47.576 316.15 47.576C316.79 47.576 317.286 47.448 317.638 47.192C318.006 46.936 318.19 46.608 318.19 46.208C318.19 45.776 317.966 45.456 317.518 45.248C317.086 45.024 316.39 44.784 315.43 44.528C314.438 44.288 313.622 44.04 312.982 43.784C312.358 43.528 311.814 43.136 311.35 42.608C310.902 42.08 310.678 41.368 310.678 40.472C310.678 39.736 310.886 39.064 311.302 38.456C311.734 37.848 312.342 37.368 313.126 37.016C313.926 36.664 314.862 36.488 315.934 36.488C317.518 36.488 318.782 36.888 319.726 37.688C320.67 38.472 321.19 39.536 321.286 40.88H318.07C318.022 40.352 317.798 39.936 317.398 39.632C317.014 39.312 316.494 39.152 315.838 39.152C315.23 39.152 314.758 39.264 314.422 39.488C314.102 39.712 313.942 40.024 313.942 40.424C313.942 40.872 314.166 41.216 314.614 41.456C315.062 41.68 315.758 41.912 316.702 42.152C317.662 42.392 318.454 42.64 319.078 42.896C319.702 43.152 320.238 43.552 320.686 44.096C321.15 44.624 321.39 45.328 321.406 46.208C321.406 46.976 321.19 47.664 320.758 48.272C320.342 48.88 319.734 49.36 318.934 49.712C318.15 50.048 317.23 50.216 316.174 50.216ZM329.019 43.304C329.019 41.96 329.283 40.768 329.811 39.728C330.355 38.688 331.091 37.888 332.019 37.328C332.947 36.768 333.979 36.488 335.115 36.488C335.979 36.488 336.803 36.68 337.587 37.064C338.371 37.432 338.995 37.928 339.459 38.552V32.24H342.867V50H339.459V48.032C339.043 48.688 338.459 49.216 337.707 49.616C336.955 50.016 336.083 50.216 335.091 50.216C333.971 50.216 332.947 49.928 332.019 49.352C331.091 48.776 330.355 47.968 329.811 46.928C329.283 45.872 329.019 44.664 329.019 43.304ZM339.483 43.352C339.483 42.536 339.323 41.84 339.003 41.264C338.683 40.672 338.251 40.224 337.707 39.92C337.163 39.6 336.579 39.44 335.955 39.44C335.331 39.44 334.755 39.592 334.227 39.896C333.699 40.2 333.267 40.648 332.931 41.24C332.611 41.816 332.451 42.504 332.451 43.304C332.451 44.104 332.611 44.808 332.931 45.416C333.267 46.008 333.699 46.464 334.227 46.784C334.771 47.104 335.347 47.264 335.955 47.264C336.579 47.264 337.163 47.112 337.707 46.808C338.251 46.488 338.683 46.04 339.003 45.464C339.323 44.872 339.483 44.168 339.483 43.352ZM352.052 50.216C350.772 50.216 349.62 49.936 348.596 49.376C347.572 48.8 346.764 47.992 346.172 46.952C345.596 45.912 345.308 44.712 345.308 43.352C345.308 41.992 345.604 40.792 346.196 39.752C346.804 38.712 347.628 37.912 348.668 37.352C349.708 36.776 350.868 36.488 352.148 36.488C353.428 36.488 354.588 36.776 355.628 37.352C356.668 37.912 357.484 38.712 358.076 39.752C358.684 40.792 358.988 41.992 358.988 43.352C358.988 44.712 358.676 45.912 358.052 46.952C357.444 47.992 356.612 48.8 355.556 49.376C354.516 49.936 353.348 50.216 352.052 50.216ZM352.052 47.288C352.66 47.288 353.228 47.144 353.756 46.856C354.3 46.552 354.732 46.104 355.052 45.512C355.372 44.92 355.532 44.2 355.532 43.352C355.532 42.088 355.196 41.12 354.524 40.448C353.868 39.76 353.06 39.416 352.1 39.416C351.14 39.416 350.332 39.76 349.676 40.448C349.036 41.12 348.716 42.088 348.716 43.352C348.716 44.616 349.028 45.592 349.652 46.28C350.292 46.952 351.092 47.288 352.052 47.288ZM366.308 43.304C366.308 41.96 366.572 40.768 367.1 39.728C367.644 38.688 368.38 37.888 369.308 37.328C370.236 36.768 371.268 36.488 372.404 36.488C373.268 36.488 374.092 36.68 374.876 37.064C375.66 37.432 376.284 37.928 376.748 38.552V32.24H380.156V50H376.748V48.032C376.332 48.688 375.748 49.216 374.996 49.616C374.244 50.016 373.372 50.216 372.38 50.216C371.26 50.216 370.236 49.928 369.308 49.352C368.38 48.776 367.644 47.968 367.1 46.928C366.572 45.872 366.308 44.664 366.308 43.304ZM376.772 43.352C376.772 42.536 376.612 41.84 376.292 41.264C375.972 40.672 375.54 40.224 374.996 39.92C374.452 39.6 373.868 39.44 373.244 39.44C372.62 39.44 372.044 39.592 371.516 39.896C370.988 40.2 370.556 40.648 370.22 41.24C369.9 41.816 369.74 42.504 369.74 43.304C369.74 44.104 369.9 44.808 370.22 45.416C370.556 46.008 370.988 46.464 371.516 46.784C372.06 47.104 372.636 47.264 373.244 47.264C373.868 47.264 374.452 47.112 374.996 46.808C375.54 46.488 375.972 46.04 376.292 45.464C376.612 44.872 376.772 44.168 376.772 43.352ZM395.797 43.064C395.797 43.544 395.765 43.976 395.701 44.36H385.981C386.061 45.32 386.397 46.072 386.989 46.616C387.581 47.16 388.309 47.432 389.173 47.432C390.421 47.432 391.309 46.896 391.837 45.824H395.461C395.077 47.104 394.341 48.16 393.253 48.992C392.165 49.808 390.829 50.216 389.245 50.216C387.965 50.216 386.813 49.936 385.789 49.376C384.781 48.8 383.989 47.992 383.413 46.952C382.853 45.912 382.573 44.712 382.573 43.352C382.573 41.976 382.853 40.768 383.413 39.728C383.973 38.688 384.757 37.888 385.765 37.328C386.773 36.768 387.933 36.488 389.245 36.488C390.509 36.488 391.637 36.76 392.629 37.304C393.637 37.848 394.413 38.624 394.957 39.632C395.517 40.624 395.797 41.768 395.797 43.064ZM392.317 42.104C392.301 41.24 391.989 40.552 391.381 40.04C390.773 39.512 390.029 39.248 389.149 39.248C388.317 39.248 387.613 39.504 387.037 40.016C386.477 40.512 386.133 41.208 386.005 42.104H392.317ZM403.338 50.216C402.25 50.216 401.274 50.024 400.41 49.64C399.546 49.24 398.858 48.704 398.346 48.032C397.85 47.36 397.578 46.616 397.53 45.8H400.914C400.978 46.312 401.226 46.736 401.658 47.072C402.106 47.408 402.658 47.576 403.314 47.576C403.954 47.576 404.45 47.448 404.802 47.192C405.17 46.936 405.354 46.608 405.354 46.208C405.354 45.776 405.13 45.456 404.682 45.248C404.25 45.024 403.554 44.784 402.594 44.528C401.602 44.288 400.786 44.04 400.146 43.784C399.522 43.528 398.978 43.136 398.514 42.608C398.066 42.08 397.842 41.368 397.842 40.472C397.842 39.736 398.05 39.064 398.466 38.456C398.898 37.848 399.506 37.368 400.29 37.016C401.09 36.664 402.026 36.488 403.098 36.488C404.682 36.488 405.946 36.888 406.89 37.688C407.834 38.472 408.354 39.536 408.45 40.88H405.234C405.186 40.352 404.962 39.936 404.562 39.632C404.178 39.312 403.658 39.152 403.002 39.152C402.394 39.152 401.922 39.264 401.586 39.488C401.266 39.712 401.106 40.024 401.106 40.424C401.106 40.872 401.33 41.216 401.778 41.456C402.226 41.68 402.922 41.912 403.866 42.152C404.826 42.392 405.618 42.64 406.242 42.896C406.866 43.152 407.402 43.552 407.85 44.096C408.314 44.624 408.554 45.328 408.57 46.208C408.57 46.976 408.354 47.664 407.922 48.272C407.506 48.88 406.898 49.36 406.098 49.712C405.314 50.048 404.394 50.216 403.338 50.216ZM423.688 43.064C423.688 43.544 423.656 43.976 423.592 44.36H413.872C413.952 45.32 414.288 46.072 414.88 46.616C415.472 47.16 416.2 47.432 417.064 47.432C418.312 47.432 419.2 46.896 419.728 45.824H423.352C422.968 47.104 422.232 48.16 421.144 48.992C420.056 49.808 418.72 50.216 417.136 50.216C415.856 50.216 414.704 49.936 413.68 49.376C412.672 48.8 411.88 47.992 411.304 46.952C410.744 45.912 410.464 44.712 410.464 43.352C410.464 41.976 410.744 40.768 411.304 39.728C411.864 38.688 412.648 37.888 413.656 37.328C414.664 36.768 415.824 36.488 417.136 36.488C418.4 36.488 419.528 36.76 420.52 37.304C421.528 37.848 422.304 38.624 422.848 39.632C423.408 40.624 423.688 41.768 423.688 43.064ZM420.208 42.104C420.192 41.24 419.88 40.552 419.272 40.04C418.664 39.512 417.92 39.248 417.04 39.248C416.208 39.248 415.504 39.504 414.928 40.016C414.368 40.512 414.024 41.208 413.896 42.104H420.208ZM433.508 36.512C435.092 36.512 436.372 37.016 437.348 38.024C438.324 39.016 438.812 40.408 438.812 42.2V50H435.452V42.656C435.452 41.6 435.188 40.792 434.66 40.232C434.132 39.656 433.412 39.368 432.5 39.368C431.572 39.368 430.836 39.656 430.292 40.232C429.764 40.792 429.5 41.6 429.5 42.656V50H426.14V36.704H429.5V38.36C429.948 37.784 430.516 37.336 431.204 37.016C431.908 36.68 432.676 36.512 433.508 36.512ZM447.552 46.904L450.912 36.704H454.488L449.568 50H445.488L440.592 36.704H444.192L447.552 46.904ZM462.279 50.216C460.999 50.216 459.847 49.936 458.823 49.376C457.799 48.8 456.991 47.992 456.399 46.952C455.823 45.912 455.535 44.712 455.535 43.352C455.535 41.992 455.831 40.792 456.423 39.752C457.031 38.712 457.855 37.912 458.895 37.352C459.935 36.776 461.095 36.488 462.375 36.488C463.655 36.488 464.815 36.776 465.855 37.352C466.895 37.912 467.711 38.712 468.303 39.752C468.911 40.792 469.215 41.992 469.215 43.352C469.215 44.712 468.903 45.912 468.279 46.952C467.671 47.992 466.839 48.8 465.783 49.376C464.743 49.936 463.575 50.216 462.279 50.216ZM462.279 47.288C462.887 47.288 463.455 47.144 463.983 46.856C464.527 46.552 464.959 46.104 465.279 45.512C465.599 44.92 465.759 44.2 465.759 43.352C465.759 42.088 465.423 41.12 464.751 40.448C464.095 39.76 463.287 39.416 462.327 39.416C461.367 39.416 460.559 39.76 459.903 40.448C459.263 41.12 458.943 42.088 458.943 43.352C458.943 44.616 459.255 45.592 459.879 46.28C460.519 46.952 461.319 47.288 462.279 47.288ZM475.039 32.24V50H471.679V32.24H475.039ZM483.903 46.904L487.263 36.704H490.839L485.919 50H481.839L476.943 36.704H480.543L483.903 46.904ZM494.43 35.12C493.838 35.12 493.342 34.936 492.942 34.568C492.558 34.184 492.366 33.712 492.366 33.152C492.366 32.592 492.558 32.128 492.942 31.76C493.342 31.376 493.838 31.184 494.43 31.184C495.022 31.184 495.51 31.376 495.894 31.76C496.294 32.128 496.494 32.592 496.494 33.152C496.494 33.712 496.294 34.184 495.894 34.568C495.51 34.936 495.022 35.12 494.43 35.12ZM496.086 36.704V50H492.726V36.704H496.086ZM515.918 36.512C517.55 36.512 518.862 37.016 519.854 38.024C520.862 39.016 521.366 40.408 521.366 42.2V50H518.006V42.656C518.006 41.616 517.742 40.824 517.214 40.28C516.686 39.72 515.966 39.44 515.054 39.44C514.142 39.44 513.414 39.72 512.87 40.28C512.342 40.824 512.078 41.616 512.078 42.656V50H508.718V42.656C508.718 41.616 508.454 40.824 507.926 40.28C507.398 39.72 506.678 39.44 505.766 39.44C504.838 39.44 504.102 39.72 503.558 40.28C503.03 40.824 502.766 41.616 502.766 42.656V50H499.406V36.704H502.766V38.312C503.198 37.752 503.75 37.312 504.422 36.992C505.11 36.672 505.862 36.512 506.678 36.512C507.718 36.512 508.646 36.736 509.462 37.184C510.278 37.616 510.91 38.24 511.358 39.056C511.79 38.288 512.414 37.672 513.23 37.208C514.062 36.744 514.958 36.512 515.918 36.512ZM536.914 43.064C536.914 43.544 536.882 43.976 536.818 44.36H527.098C527.178 45.32 527.514 46.072 528.106 46.616C528.698 47.16 529.426 47.432 530.29 47.432C531.538 47.432 532.426 46.896 532.954 45.824H536.578C536.194 47.104 535.458 48.16 534.37 48.992C533.282 49.808 531.946 50.216 530.362 50.216C529.082 50.216 527.93 49.936 526.906 49.376C525.898 48.8 525.106 47.992 524.53 46.952C523.97 45.912 523.69 44.712 523.69 43.352C523.69 41.976 523.97 40.768 524.53 39.728C525.09 38.688 525.874 37.888 526.882 37.328C527.89 36.768 529.05 36.488 530.362 36.488C531.626 36.488 532.754 36.76 533.746 37.304C534.754 37.848 535.53 38.624 536.074 39.632C536.634 40.624 536.914 41.768 536.914 43.064ZM533.434 42.104C533.418 41.24 533.106 40.552 532.498 40.04C531.89 39.512 531.146 39.248 530.266 39.248C529.434 39.248 528.73 39.504 528.154 40.016C527.594 40.512 527.25 41.208 527.122 42.104H533.434ZM546.735 36.512C548.319 36.512 549.599 37.016 550.575 38.024C551.551 39.016 552.039 40.408 552.039 42.2V50H548.679V42.656C548.679 41.6 548.415 40.792 547.887 40.232C547.359 39.656 546.639 39.368 545.727 39.368C544.799 39.368 544.063 39.656 543.519 40.232C542.991 40.792 542.727 41.6 542.727 42.656V50H539.367V36.704H542.727V38.36C543.175 37.784 543.743 37.336 544.431 37.016C545.135 36.68 545.903 36.512 546.735 36.512ZM559.146 39.464V45.896C559.146 46.344 559.25 46.672 559.458 46.88C559.682 47.072 560.05 47.168 560.562 47.168H562.122V50H560.01C557.178 50 555.762 48.624 555.762 45.872V39.464H554.178V36.704H555.762V33.416H559.146V36.704H562.122V39.464H559.146ZM570.443 50.216C569.163 50.216 568.011 49.936 566.987 49.376C565.963 48.8 565.155 47.992 564.563 46.952C563.987 45.912 563.699 44.712 563.699 43.352C563.699 41.992 563.995 40.792 564.587 39.752C565.195 38.712 566.019 37.912 567.059 37.352C568.099 36.776 569.259 36.488 570.539 36.488C571.819 36.488 572.979 36.776 574.019 37.352C575.059 37.912 575.875 38.712 576.467 39.752C577.075 40.792 577.379 41.992 577.379 43.352C577.379 44.712 577.067 45.912 576.443 46.952C575.835 47.992 575.003 48.8 573.947 49.376C572.907 49.936 571.739 50.216 570.443 50.216ZM570.443 47.288C571.051 47.288 571.619 47.144 572.147 46.856C572.691 46.552 573.123 46.104 573.443 45.512C573.763 44.92 573.923 44.2 573.923 43.352C573.923 42.088 573.587 41.12 572.915 40.448C572.259 39.76 571.451 39.416 570.491 39.416C569.531 39.416 568.723 39.76 568.067 40.448C567.427 41.12 567.107 42.088 567.107 43.352C567.107 44.616 567.419 45.592 568.043 46.28C568.683 46.952 569.483 47.288 570.443 47.288ZM603.994 36.704L600.106 50H596.482L594.058 40.712L591.634 50H587.986L584.074 36.704H587.482L589.834 46.832L592.378 36.704H595.93L598.426 46.808L600.778 36.704H603.994ZM618.172 43.064C618.172 43.544 618.14 43.976 618.076 44.36H608.356C608.436 45.32 608.772 46.072 609.364 46.616C609.956 47.16 610.684 47.432 611.548 47.432C612.796 47.432 613.684 46.896 614.212 45.824H617.836C617.452 47.104 616.716 48.16 615.628 48.992C614.54 49.808 613.204 50.216 611.62 50.216C610.34 50.216 609.188 49.936 608.164 49.376C607.156 48.8 606.364 47.992 605.788 46.952C605.228 45.912 604.948 44.712 604.948 43.352C604.948 41.976 605.228 40.768 605.788 39.728C606.348 38.688 607.132 37.888 608.14 37.328C609.148 36.768 610.308 36.488 611.62 36.488C612.884 36.488 614.012 36.76 615.004 37.304C616.012 37.848 616.788 38.624 617.332 39.632C617.892 40.624 618.172 41.768 618.172 43.064ZM614.692 42.104C614.676 41.24 614.364 40.552 613.756 40.04C613.148 39.512 612.404 39.248 611.524 39.248C610.692 39.248 609.988 39.504 609.412 40.016C608.852 40.512 608.508 41.208 608.38 42.104H614.692ZM623.985 38.648C624.417 38.008 625.009 37.488 625.761 37.088C626.529 36.688 627.401 36.488 628.377 36.488C629.513 36.488 630.537 36.768 631.449 37.328C632.377 37.888 633.105 38.688 633.633 39.728C634.177 40.752 634.449 41.944 634.449 43.304C634.449 44.664 634.177 45.872 633.633 46.928C633.105 47.968 632.377 48.776 631.449 49.352C630.537 49.928 629.513 50.216 628.377 50.216C627.385 50.216 626.513 50.024 625.761 49.64C625.025 49.24 624.433 48.728 623.985 48.104V50H620.625V32.24H623.985V38.648ZM631.017 43.304C631.017 42.504 630.849 41.816 630.513 41.24C630.193 40.648 629.761 40.2 629.217 39.896C628.689 39.592 628.113 39.44 627.489 39.44C626.881 39.44 626.305 39.6 625.761 39.92C625.233 40.224 624.801 40.672 624.465 41.264C624.145 41.856 623.985 42.552 623.985 43.352C623.985 44.152 624.145 44.848 624.465 45.44C624.801 46.032 625.233 46.488 625.761 46.808C626.305 47.112 626.881 47.264 627.489 47.264C628.113 47.264 628.689 47.104 629.217 46.784C629.761 46.464 630.193 46.008 630.513 45.416C630.849 44.824 631.017 44.12 631.017 43.304Z" fill="#4C4E61"/>
<path d="M154.352 66.278V69.54H157.908V70.59H154.352V73.95H158.328V75H153.078V65.228H158.328V66.278H154.352ZM164.26 75L162.44 72.144L160.69 75H159.36L161.838 71.192L159.36 67.328H160.802L162.622 70.17L164.358 67.328H165.688L163.224 71.122L165.702 75H164.26ZM173.955 70.87C173.955 71.1127 173.941 71.3693 173.913 71.64H167.781C167.828 72.396 168.084 72.9887 168.551 73.418C169.027 73.838 169.601 74.048 170.273 74.048C170.824 74.048 171.281 73.922 171.645 73.67C172.018 73.4087 172.28 73.0633 172.429 72.634H173.801C173.596 73.3713 173.185 73.9733 172.569 74.44C171.953 74.8973 171.188 75.126 170.273 75.126C169.545 75.126 168.892 74.9627 168.313 74.636C167.744 74.3093 167.296 73.8473 166.969 73.25C166.642 72.6433 166.479 71.9433 166.479 71.15C166.479 70.3567 166.638 69.6613 166.955 69.064C167.272 68.4667 167.716 68.0093 168.285 67.692C168.864 67.3653 169.526 67.202 170.273 67.202C171.001 67.202 171.645 67.3607 172.205 67.678C172.765 67.9953 173.194 68.434 173.493 68.994C173.801 69.5447 173.955 70.17 173.955 70.87ZM172.639 70.604C172.639 70.1187 172.532 69.7033 172.317 69.358C172.102 69.0033 171.808 68.7373 171.435 68.56C171.071 68.3733 170.665 68.28 170.217 68.28C169.573 68.28 169.022 68.4853 168.565 68.896C168.117 69.3067 167.86 69.876 167.795 70.604H172.639ZM176.911 68.574C177.135 68.1353 177.452 67.7947 177.863 67.552C178.283 67.3093 178.791 67.188 179.389 67.188V68.504H179.053C177.625 68.504 176.911 69.2787 176.911 70.828V75H175.637V67.328H176.911V68.574ZM180.383 71.15C180.383 70.3567 180.542 69.666 180.859 69.078C181.177 68.4807 181.615 68.0187 182.175 67.692C182.745 67.3653 183.393 67.202 184.121 67.202C185.064 67.202 185.839 67.4307 186.445 67.888C187.061 68.3453 187.467 68.98 187.663 69.792H186.291C186.161 69.3253 185.904 68.9567 185.521 68.686C185.148 68.4153 184.681 68.28 184.121 68.28C183.393 68.28 182.805 68.532 182.357 69.036C181.909 69.5307 181.685 70.2353 181.685 71.15C181.685 72.074 181.909 72.788 182.357 73.292C182.805 73.796 183.393 74.048 184.121 74.048C184.681 74.048 185.148 73.9173 185.521 73.656C185.895 73.3947 186.151 73.0213 186.291 72.536H187.663C187.458 73.32 187.047 73.95 186.431 74.426C185.815 74.8927 185.045 75.126 184.121 75.126C183.393 75.126 182.745 74.9627 182.175 74.636C181.615 74.3093 181.177 73.8473 180.859 73.25C180.542 72.6527 180.383 71.9527 180.383 71.15ZM190.637 67.328V75H189.363V67.328H190.637ZM191.365 65.158L188.383 66.754V65.802L191.365 64.052V65.158ZM192.332 71.15C192.332 70.3567 192.491 69.666 192.808 69.078C193.126 68.4807 193.564 68.0187 194.124 67.692C194.694 67.3653 195.342 67.202 196.07 67.202C197.013 67.202 197.788 67.4307 198.394 67.888C199.01 68.3453 199.416 68.98 199.612 69.792H198.24C198.11 69.3253 197.853 68.9567 197.47 68.686C197.097 68.4153 196.63 68.28 196.07 68.28C195.342 68.28 194.754 68.532 194.306 69.036C193.858 69.5307 193.634 70.2353 193.634 71.15C193.634 72.074 193.858 72.788 194.306 73.292C194.754 73.796 195.342 74.048 196.07 74.048C196.63 74.048 197.097 73.9173 197.47 73.656C197.844 73.3947 198.1 73.0213 198.24 72.536H199.612C199.407 73.32 198.996 73.95 198.38 74.426C197.764 74.8927 196.994 75.126 196.07 75.126C195.342 75.126 194.694 74.9627 194.124 74.636C193.564 74.3093 193.126 73.8473 192.808 73.25C192.491 72.6527 192.332 71.9527 192.332 71.15ZM201.97 66.082C201.728 66.082 201.522 65.998 201.354 65.83C201.186 65.662 201.102 65.4567 201.102 65.214C201.102 64.9713 201.186 64.766 201.354 64.598C201.522 64.43 201.728 64.346 201.97 64.346C202.204 64.346 202.4 64.43 202.558 64.598C202.726 64.766 202.81 64.9713 202.81 65.214C202.81 65.4567 202.726 65.662 202.558 65.83C202.4 65.998 202.204 66.082 201.97 66.082ZM202.586 67.328V75H201.312V67.328H202.586ZM208.104 75.126C207.385 75.126 206.732 74.9627 206.144 74.636C205.565 74.3093 205.108 73.8473 204.772 73.25C204.445 72.6433 204.282 71.9433 204.282 71.15C204.282 70.366 204.45 69.6753 204.786 69.078C205.131 68.4713 205.598 68.0093 206.186 67.692C206.774 67.3653 207.432 67.202 208.16 67.202C208.888 67.202 209.546 67.3653 210.134 67.692C210.722 68.0093 211.184 68.4667 211.52 69.064C211.865 69.6613 212.038 70.3567 212.038 71.15C212.038 71.9433 211.86 72.6433 211.506 73.25C211.16 73.8473 210.689 74.3093 210.092 74.636C209.494 74.9627 208.832 75.126 208.104 75.126ZM208.104 74.006C208.561 74.006 208.99 73.8987 209.392 73.684C209.793 73.4693 210.115 73.1473 210.358 72.718C210.61 72.2887 210.736 71.766 210.736 71.15C210.736 70.534 210.614 70.0113 210.372 69.582C210.129 69.1527 209.812 68.8353 209.42 68.63C209.028 68.4153 208.603 68.308 208.146 68.308C207.679 68.308 207.25 68.4153 206.858 68.63C206.475 68.8353 206.167 69.1527 205.934 69.582C205.7 70.0113 205.584 70.534 205.584 71.15C205.584 71.7753 205.696 72.3027 205.92 72.732C206.153 73.1613 206.461 73.4833 206.844 73.698C207.226 73.9033 207.646 74.006 208.104 74.006ZM216.429 75.126C215.841 75.126 215.313 75.028 214.847 74.832C214.38 74.6267 214.011 74.3467 213.741 73.992C213.47 73.628 213.321 73.2127 213.293 72.746H214.609C214.646 73.1287 214.823 73.4413 215.141 73.684C215.467 73.9267 215.892 74.048 216.415 74.048C216.9 74.048 217.283 73.9407 217.563 73.726C217.843 73.5113 217.983 73.2407 217.983 72.914C217.983 72.578 217.833 72.3307 217.535 72.172C217.236 72.004 216.774 71.8407 216.149 71.682C215.579 71.5327 215.113 71.3833 214.749 71.234C214.394 71.0753 214.086 70.8467 213.825 70.548C213.573 70.24 213.447 69.8387 213.447 69.344C213.447 68.952 213.563 68.5927 213.797 68.266C214.03 67.9393 214.361 67.6827 214.791 67.496C215.22 67.3 215.71 67.202 216.261 67.202C217.11 67.202 217.796 67.4167 218.319 67.846C218.841 68.2753 219.121 68.8633 219.159 69.61H217.885C217.857 69.2087 217.693 68.8867 217.395 68.644C217.105 68.4013 216.713 68.28 216.219 68.28C215.761 68.28 215.397 68.378 215.127 68.574C214.856 68.77 214.721 69.0267 214.721 69.344C214.721 69.596 214.8 69.806 214.959 69.974C215.127 70.1327 215.332 70.2633 215.575 70.366C215.827 70.4593 216.172 70.5667 216.611 70.688C217.161 70.8373 217.609 70.9867 217.955 71.136C218.3 71.276 218.594 71.4907 218.837 71.78C219.089 72.0693 219.219 72.4473 219.229 72.914C219.229 73.334 219.112 73.712 218.879 74.048C218.645 74.384 218.314 74.65 217.885 74.846C217.465 75.0327 216.979 75.126 216.429 75.126ZM226.034 68.574C226.258 68.1353 226.575 67.7947 226.986 67.552C227.406 67.3093 227.914 67.188 228.512 67.188V68.504H228.176C226.748 68.504 226.034 69.2787 226.034 70.828V75H224.76V67.328H226.034V68.574ZM236.982 70.87C236.982 71.1127 236.968 71.3693 236.94 71.64H230.808C230.855 72.396 231.112 72.9887 231.578 73.418C232.054 73.838 232.628 74.048 233.3 74.048C233.851 74.048 234.308 73.922 234.672 73.67C235.046 73.4087 235.307 73.0633 235.456 72.634H236.828C236.623 73.3713 236.212 73.9733 235.596 74.44C234.98 74.8973 234.215 75.126 233.3 75.126C232.572 75.126 231.919 74.9627 231.34 74.636C230.771 74.3093 230.323 73.8473 229.996 73.25C229.67 72.6433 229.506 71.9433 229.506 71.15C229.506 70.3567 229.665 69.6613 229.982 69.064C230.3 68.4667 230.743 68.0093 231.312 67.692C231.891 67.3653 232.554 67.202 233.3 67.202C234.028 67.202 234.672 67.3607 235.232 67.678C235.792 67.9953 236.222 68.434 236.52 68.994C236.828 69.5447 236.982 70.17 236.982 70.87ZM235.666 70.604C235.666 70.1187 235.559 69.7033 235.344 69.358C235.13 69.0033 234.836 68.7373 234.462 68.56C234.098 68.3733 233.692 68.28 233.244 68.28C232.6 68.28 232.05 68.4853 231.592 68.896C231.144 69.3067 230.888 69.876 230.822 70.604H235.666ZM241.38 75.126C240.792 75.126 240.265 75.028 239.798 74.832C239.331 74.6267 238.963 74.3467 238.692 73.992C238.421 73.628 238.272 73.2127 238.244 72.746H239.56C239.597 73.1287 239.775 73.4413 240.092 73.684C240.419 73.9267 240.843 74.048 241.366 74.048C241.851 74.048 242.234 73.9407 242.514 73.726C242.794 73.5113 242.934 73.2407 242.934 72.914C242.934 72.578 242.785 72.3307 242.486 72.172C242.187 72.004 241.725 71.8407 241.1 71.682C240.531 71.5327 240.064 71.3833 239.7 71.234C239.345 71.0753 239.037 70.8467 238.776 70.548C238.524 70.24 238.398 69.8387 238.398 69.344C238.398 68.952 238.515 68.5927 238.748 68.266C238.981 67.9393 239.313 67.6827 239.742 67.496C240.171 67.3 240.661 67.202 241.212 67.202C242.061 67.202 242.747 67.4167 243.27 67.846C243.793 68.2753 244.073 68.8633 244.11 69.61H242.836C242.808 69.2087 242.645 68.8867 242.346 68.644C242.057 68.4013 241.665 68.28 241.17 68.28C240.713 68.28 240.349 68.378 240.078 68.574C239.807 68.77 239.672 69.0267 239.672 69.344C239.672 69.596 239.751 69.806 239.91 69.974C240.078 70.1327 240.283 70.2633 240.526 70.366C240.778 70.4593 241.123 70.5667 241.562 70.688C242.113 70.8373 242.561 70.9867 242.906 71.136C243.251 71.276 243.545 71.4907 243.788 71.78C244.04 72.0693 244.171 72.4473 244.18 72.914C244.18 73.334 244.063 73.712 243.83 74.048C243.597 74.384 243.265 74.65 242.836 74.846C242.416 75.0327 241.931 75.126 241.38 75.126ZM249.324 75.126C248.606 75.126 247.952 74.9627 247.364 74.636C246.786 74.3093 246.328 73.8473 245.992 73.25C245.666 72.6433 245.502 71.9433 245.502 71.15C245.502 70.366 245.67 69.6753 246.006 69.078C246.352 68.4713 246.818 68.0093 247.406 67.692C247.994 67.3653 248.652 67.202 249.38 67.202C250.108 67.202 250.766 67.3653 251.354 67.692C251.942 68.0093 252.404 68.4667 252.74 69.064C253.086 69.6613 253.258 70.3567 253.258 71.15C253.258 71.9433 253.081 72.6433 252.726 73.25C252.381 73.8473 251.91 74.3093 251.312 74.636C250.715 74.9627 250.052 75.126 249.324 75.126ZM249.324 74.006C249.782 74.006 250.211 73.8987 250.612 73.684C251.014 73.4693 251.336 73.1473 251.578 72.718C251.83 72.2887 251.956 71.766 251.956 71.15C251.956 70.534 251.835 70.0113 251.592 69.582C251.35 69.1527 251.032 68.8353 250.64 68.63C250.248 68.4153 249.824 68.308 249.366 68.308C248.9 68.308 248.47 68.4153 248.078 68.63C247.696 68.8353 247.388 69.1527 247.154 69.582C246.921 70.0113 246.804 70.534 246.804 71.15C246.804 71.7753 246.916 72.3027 247.14 72.732C247.374 73.1613 247.682 73.4833 248.064 73.698C248.447 73.9033 248.867 74.006 249.324 74.006ZM256.207 64.64V75H254.933V64.64H256.207ZM261.235 73.824L263.615 67.328H264.973L261.963 75H260.479L257.469 67.328H258.841L261.235 73.824ZM266.884 66.082C266.642 66.082 266.436 65.998 266.268 65.83C266.1 65.662 266.016 65.4567 266.016 65.214C266.016 64.9713 266.1 64.766 266.268 64.598C266.436 64.43 266.642 64.346 266.884 64.346C267.118 64.346 267.314 64.43 267.472 64.598C267.64 64.766 267.724 64.9713 267.724 65.214C267.724 65.4567 267.64 65.662 267.472 65.83C267.314 65.998 267.118 66.082 266.884 66.082ZM267.5 67.328V75H266.226V67.328H267.5ZM269.196 71.136C269.196 70.352 269.354 69.666 269.672 69.078C269.989 68.4807 270.423 68.0187 270.974 67.692C271.534 67.3653 272.159 67.202 272.85 67.202C273.447 67.202 274.002 67.342 274.516 67.622C275.029 67.8927 275.421 68.252 275.692 68.7V64.64H276.98V75H275.692V73.558C275.44 74.0153 275.066 74.3933 274.572 74.692C274.077 74.9813 273.498 75.126 272.836 75.126C272.154 75.126 271.534 74.958 270.974 74.622C270.423 74.286 269.989 73.8147 269.672 73.208C269.354 72.6013 269.196 71.9107 269.196 71.136ZM275.692 71.15C275.692 70.5713 275.575 70.0673 275.342 69.638C275.108 69.2087 274.791 68.882 274.39 68.658C273.998 68.4247 273.564 68.308 273.088 68.308C272.612 68.308 272.178 68.42 271.786 68.644C271.394 68.868 271.081 69.1947 270.848 69.624C270.614 70.0533 270.498 70.5573 270.498 71.136C270.498 71.724 270.614 72.2373 270.848 72.676C271.081 73.1053 271.394 73.4367 271.786 73.67C272.178 73.894 272.612 74.006 273.088 74.006C273.564 74.006 273.998 73.894 274.39 73.67C274.791 73.4367 275.108 73.1053 275.342 72.676C275.575 72.2373 275.692 71.7287 275.692 71.15ZM282.479 75.126C281.76 75.126 281.107 74.9627 280.519 74.636C279.94 74.3093 279.483 73.8473 279.147 73.25C278.82 72.6433 278.657 71.9433 278.657 71.15C278.657 70.366 278.825 69.6753 279.161 69.078C279.506 68.4713 279.973 68.0093 280.561 67.692C281.149 67.3653 281.807 67.202 282.535 67.202C283.263 67.202 283.921 67.3653 284.509 67.692C285.097 68.0093 285.559 68.4667 285.895 69.064C286.24 69.6613 286.413 70.3567 286.413 71.15C286.413 71.9433 286.235 72.6433 285.881 73.25C285.535 73.8473 285.064 74.3093 284.467 74.636C283.869 74.9627 283.207 75.126 282.479 75.126ZM282.479 74.006C282.936 74.006 283.365 73.8987 283.767 73.684C284.168 73.4693 284.49 73.1473 284.733 72.718C284.985 72.2887 285.111 71.766 285.111 71.15C285.111 70.534 284.989 70.0113 284.747 69.582C284.504 69.1527 284.187 68.8353 283.795 68.63C283.403 68.4153 282.978 68.308 282.521 68.308C282.054 68.308 281.625 68.4153 281.233 68.63C280.85 68.8353 280.542 69.1527 280.309 69.582C280.075 70.0113 279.959 70.534 279.959 71.15C279.959 71.7753 280.071 72.3027 280.295 72.732C280.528 73.1613 280.836 73.4833 281.219 73.698C281.601 73.9033 282.021 74.006 282.479 74.006ZM290.804 75.126C290.216 75.126 289.688 75.028 289.222 74.832C288.755 74.6267 288.386 74.3467 288.116 73.992C287.845 73.628 287.696 73.2127 287.668 72.746H288.984C289.021 73.1287 289.198 73.4413 289.516 73.684C289.842 73.9267 290.267 74.048 290.79 74.048C291.275 74.048 291.658 73.9407 291.938 73.726C292.218 73.5113 292.358 73.2407 292.358 72.914C292.358 72.578 292.208 72.3307 291.91 72.172C291.611 72.004 291.149 71.8407 290.524 71.682C289.954 71.5327 289.488 71.3833 289.124 71.234C288.769 71.0753 288.461 70.8467 288.2 70.548C287.948 70.24 287.822 69.8387 287.822 69.344C287.822 68.952 287.938 68.5927 288.172 68.266C288.405 67.9393 288.736 67.6827 289.166 67.496C289.595 67.3 290.085 67.202 290.636 67.202C291.485 67.202 292.171 67.4167 292.694 67.846C293.216 68.2753 293.496 68.8633 293.534 69.61H292.26C292.232 69.2087 292.068 68.8867 291.77 68.644C291.48 68.4013 291.088 68.28 290.594 68.28C290.136 68.28 289.772 68.378 289.502 68.574C289.231 68.77 289.096 69.0267 289.096 69.344C289.096 69.596 289.175 69.806 289.334 69.974C289.502 70.1327 289.707 70.2633 289.95 70.366C290.202 70.4593 290.547 70.5667 290.986 70.688C291.536 70.8373 291.984 70.9867 292.33 71.136C292.675 71.276 292.969 71.4907 293.212 71.78C293.464 72.0693 293.594 72.4473 293.604 72.914C293.604 73.334 293.487 73.712 293.254 74.048C293.02 74.384 292.689 74.65 292.26 74.846C291.84 75.0327 291.354 75.126 290.804 75.126ZM298.659 71.136C298.659 70.352 298.817 69.666 299.135 69.078C299.452 68.4807 299.886 68.0187 300.437 67.692C300.997 67.3653 301.622 67.202 302.313 67.202C302.91 67.202 303.465 67.342 303.979 67.622C304.492 67.8927 304.884 68.252 305.155 68.7V64.64H306.443V75H305.155V73.558C304.903 74.0153 304.529 74.3933 304.035 74.692C303.54 74.9813 302.961 75.126 302.299 75.126C301.617 75.126 300.997 74.958 300.437 74.622C299.886 74.286 299.452 73.8147 299.135 73.208C298.817 72.6013 298.659 71.9107 298.659 71.136ZM305.155 71.15C305.155 70.5713 305.038 70.0673 304.805 69.638C304.571 69.2087 304.254 68.882 303.853 68.658C303.461 68.4247 303.027 68.308 302.551 68.308C302.075 68.308 301.641 68.42 301.249 68.644C300.857 68.868 300.544 69.1947 300.311 69.624C300.077 70.0533 299.961 70.5573 299.961 71.136C299.961 71.724 300.077 72.2373 300.311 72.676C300.544 73.1053 300.857 73.4367 301.249 73.67C301.641 73.894 302.075 74.006 302.551 74.006C303.027 74.006 303.461 73.894 303.853 73.67C304.254 73.4367 304.571 73.1053 304.805 72.676C305.038 72.2373 305.155 71.7287 305.155 71.15ZM315.4 67.328V75H314.126V73.866C313.883 74.258 313.542 74.566 313.104 74.79C312.674 75.0047 312.198 75.112 311.676 75.112C311.078 75.112 310.542 74.9907 310.066 74.748C309.59 74.496 309.212 74.1227 308.932 73.628C308.661 73.1333 308.526 72.5313 308.526 71.822V67.328H309.786V71.654C309.786 72.41 309.977 72.9933 310.36 73.404C310.742 73.8053 311.265 74.006 311.928 74.006C312.609 74.006 313.146 73.796 313.538 73.376C313.93 72.956 314.126 72.3447 314.126 71.542V67.328H315.4ZM318.825 68.574C319.049 68.1353 319.366 67.7947 319.777 67.552C320.197 67.3093 320.705 67.188 321.303 67.188V68.504H320.967C319.539 68.504 318.825 69.2787 318.825 70.828V75H317.551V67.328H318.825V68.574ZM322.297 71.136C322.297 70.352 322.456 69.666 322.773 69.078C323.091 68.4807 323.525 68.0187 324.075 67.692C324.635 67.3653 325.256 67.202 325.937 67.202C326.609 67.202 327.193 67.3467 327.687 67.636C328.182 67.9253 328.551 68.2893 328.793 68.728V67.328H330.081V75H328.793V73.572C328.541 74.02 328.163 74.3933 327.659 74.692C327.165 74.9813 326.586 75.126 325.923 75.126C325.242 75.126 324.626 74.958 324.075 74.622C323.525 74.286 323.091 73.8147 322.773 73.208C322.456 72.6013 322.297 71.9107 322.297 71.136ZM328.793 71.15C328.793 70.5713 328.677 70.0673 328.443 69.638C328.21 69.2087 327.893 68.882 327.491 68.658C327.099 68.4247 326.665 68.308 326.189 68.308C325.713 68.308 325.279 68.42 324.887 68.644C324.495 68.868 324.183 69.1947 323.949 69.624C323.716 70.0533 323.599 70.5573 323.599 71.136C323.599 71.724 323.716 72.2373 323.949 72.676C324.183 73.1053 324.495 73.4367 324.887 73.67C325.279 73.894 325.713 74.006 326.189 74.006C326.665 74.006 327.099 73.894 327.491 73.67C327.893 73.4367 328.21 73.1053 328.443 72.676C328.677 72.2373 328.793 71.7287 328.793 71.15ZM335.972 67.188C336.906 67.188 337.662 67.4727 338.24 68.042C338.819 68.602 339.108 69.414 339.108 70.478V75H337.848V70.66C337.848 69.8947 337.657 69.3113 337.274 68.91C336.892 68.4993 336.369 68.294 335.706 68.294C335.034 68.294 334.498 68.504 334.096 68.924C333.704 69.344 333.508 69.9553 333.508 70.758V75H332.234V67.328H333.508V68.42C333.76 68.028 334.101 67.7247 334.53 67.51C334.969 67.2953 335.45 67.188 335.972 67.188ZM342.743 68.378V72.9C342.743 73.2733 342.823 73.5393 342.981 73.698C343.14 73.8473 343.415 73.922 343.807 73.922H344.745V75H343.597C342.888 75 342.356 74.8367 342.001 74.51C341.647 74.1833 341.469 73.6467 341.469 72.9V68.378H340.475V67.328H341.469V65.396H342.743V67.328H344.745V68.378H342.743ZM353.289 70.87C353.289 71.1127 353.275 71.3693 353.247 71.64H347.115C347.162 72.396 347.418 72.9887 347.885 73.418C348.361 73.838 348.935 74.048 349.607 74.048C350.158 74.048 350.615 73.922 350.979 73.67C351.352 73.4087 351.614 73.0633 351.763 72.634H353.135C352.93 73.3713 352.519 73.9733 351.903 74.44C351.287 74.8973 350.522 75.126 349.607 75.126C348.879 75.126 348.226 74.9627 347.647 74.636C347.078 74.3093 346.63 73.8473 346.303 73.25C345.976 72.6433 345.813 71.9433 345.813 71.15C345.813 70.3567 345.972 69.6613 346.289 69.064C346.606 68.4667 347.05 68.0093 347.619 67.692C348.198 67.3653 348.86 67.202 349.607 67.202C350.335 67.202 350.979 67.3607 351.539 67.678C352.099 67.9953 352.528 68.434 352.827 68.994C353.135 69.5447 353.289 70.17 353.289 70.87ZM351.973 70.604C351.973 70.1187 351.866 69.7033 351.651 69.358C351.436 69.0033 351.142 68.7373 350.769 68.56C350.405 68.3733 349.999 68.28 349.551 68.28C348.907 68.28 348.356 68.4853 347.899 68.896C347.451 69.3067 347.194 69.876 347.129 70.604H351.973ZM362.049 75.126C361.33 75.126 360.677 74.9627 360.089 74.636C359.51 74.3093 359.053 73.8473 358.717 73.25C358.39 72.6433 358.227 71.9433 358.227 71.15C358.227 70.366 358.395 69.6753 358.731 69.078C359.076 68.4713 359.543 68.0093 360.131 67.692C360.719 67.3653 361.377 67.202 362.105 67.202C362.833 67.202 363.491 67.3653 364.079 67.692C364.667 68.0093 365.129 68.4667 365.465 69.064C365.81 69.6613 365.983 70.3567 365.983 71.15C365.983 71.9433 365.806 72.6433 365.451 73.25C365.106 73.8473 364.634 74.3093 364.037 74.636C363.44 74.9627 362.777 75.126 362.049 75.126ZM362.049 74.006C362.506 74.006 362.936 73.8987 363.337 73.684C363.738 73.4693 364.06 73.1473 364.303 72.718C364.555 72.2887 364.681 71.766 364.681 71.15C364.681 70.534 364.56 70.0113 364.317 69.582C364.074 69.1527 363.757 68.8353 363.365 68.63C362.973 68.4153 362.548 68.308 362.091 68.308C361.624 68.308 361.195 68.4153 360.803 68.63C360.42 68.8353 360.112 69.1527 359.879 69.582C359.646 70.0113 359.529 70.534 359.529 71.15C359.529 71.7753 359.641 72.3027 359.865 72.732C360.098 73.1613 360.406 73.4833 360.789 73.698C361.172 73.9033 361.592 74.006 362.049 74.006ZM380.617 67.188C381.214 67.188 381.746 67.314 382.213 67.566C382.679 67.8087 383.048 68.1773 383.319 68.672C383.589 69.1667 383.725 69.7687 383.725 70.478V75H382.465V70.66C382.465 69.8947 382.273 69.3113 381.891 68.91C381.517 68.4993 381.009 68.294 380.365 68.294C379.702 68.294 379.175 68.5087 378.783 68.938C378.391 69.358 378.195 69.9693 378.195 70.772V75H376.935V70.66C376.935 69.8947 376.743 69.3113 376.361 68.91C375.987 68.4993 375.479 68.294 374.835 68.294C374.172 68.294 373.645 68.5087 373.253 68.938C372.861 69.358 372.665 69.9693 372.665 70.772V75H371.391V67.328H372.665V68.434C372.917 68.0327 373.253 67.7247 373.673 67.51C374.102 67.2953 374.573 67.188 375.087 67.188C375.731 67.188 376.3 67.3327 376.795 67.622C377.289 67.9113 377.658 68.336 377.901 68.896C378.115 68.3547 378.47 67.9347 378.965 67.636C379.459 67.3373 380.01 67.188 380.617 67.188ZM389.16 75.126C388.442 75.126 387.788 74.9627 387.2 74.636C386.622 74.3093 386.164 73.8473 385.828 73.25C385.502 72.6433 385.338 71.9433 385.338 71.15C385.338 70.366 385.506 69.6753 385.842 69.078C386.188 68.4713 386.654 68.0093 387.242 67.692C387.83 67.3653 388.488 67.202 389.216 67.202C389.944 67.202 390.602 67.3653 391.19 67.692C391.778 68.0093 392.24 68.4667 392.576 69.064C392.922 69.6613 393.094 70.3567 393.094 71.15C393.094 71.9433 392.917 72.6433 392.562 73.25C392.217 73.8473 391.746 74.3093 391.148 74.636C390.551 74.9627 389.888 75.126 389.16 75.126ZM389.16 74.006C389.618 74.006 390.047 73.8987 390.448 73.684C390.85 73.4693 391.172 73.1473 391.414 72.718C391.666 72.2887 391.792 71.766 391.792 71.15C391.792 70.534 391.671 70.0113 391.428 69.582C391.186 69.1527 390.868 68.8353 390.476 68.63C390.084 68.4153 389.66 68.308 389.202 68.308C388.736 68.308 388.306 68.4153 387.914 68.63C387.532 68.8353 387.224 69.1527 386.99 69.582C386.757 70.0113 386.64 70.534 386.64 71.15C386.64 71.7753 386.752 72.3027 386.976 72.732C387.21 73.1613 387.518 73.4833 387.9 73.698C388.283 73.9033 388.703 74.006 389.16 74.006ZM390.588 65.06L387.606 66.656V65.704L390.588 63.954V65.06ZM394.293 71.136C394.293 70.352 394.452 69.666 394.769 69.078C395.087 68.4807 395.521 68.0187 396.071 67.692C396.631 67.3653 397.257 67.202 397.947 67.202C398.545 67.202 399.1 67.342 399.613 67.622C400.127 67.8927 400.519 68.252 400.789 68.7V64.64H402.077V75H400.789V73.558C400.537 74.0153 400.164 74.3933 399.669 74.692C399.175 74.9813 398.596 75.126 397.933 75.126C397.252 75.126 396.631 74.958 396.071 74.622C395.521 74.286 395.087 73.8147 394.769 73.208C394.452 72.6013 394.293 71.9107 394.293 71.136ZM400.789 71.15C400.789 70.5713 400.673 70.0673 400.439 69.638C400.206 69.2087 399.889 68.882 399.487 68.658C399.095 68.4247 398.661 68.308 398.185 68.308C397.709 68.308 397.275 68.42 396.883 68.644C396.491 68.868 396.179 69.1947 395.945 69.624C395.712 70.0533 395.595 70.5573 395.595 71.136C395.595 71.724 395.712 72.2373 395.945 72.676C396.179 73.1053 396.491 73.4367 396.883 73.67C397.275 73.894 397.709 74.006 398.185 74.006C398.661 74.006 399.095 73.894 399.487 73.67C399.889 73.4367 400.206 73.1053 400.439 72.676C400.673 72.2373 400.789 71.7287 400.789 71.15ZM411.034 67.328V75H409.76V73.866C409.518 74.258 409.177 74.566 408.738 74.79C408.309 75.0047 407.833 75.112 407.31 75.112C406.713 75.112 406.176 74.9907 405.7 74.748C405.224 74.496 404.846 74.1227 404.566 73.628C404.296 73.1333 404.16 72.5313 404.16 71.822V67.328H405.42V71.654C405.42 72.41 405.612 72.9933 405.994 73.404C406.377 73.8053 406.9 74.006 407.562 74.006C408.244 74.006 408.78 73.796 409.172 73.376C409.564 72.956 409.76 72.3447 409.76 71.542V67.328H411.034ZM414.459 64.64V75H413.185V64.64H414.459ZM419.977 75.126C419.258 75.126 418.605 74.9627 418.017 74.636C417.438 74.3093 416.981 73.8473 416.645 73.25C416.318 72.6433 416.155 71.9433 416.155 71.15C416.155 70.366 416.323 69.6753 416.659 69.078C417.004 68.4713 417.471 68.0093 418.059 67.692C418.647 67.3653 419.305 67.202 420.033 67.202C420.761 67.202 421.419 67.3653 422.007 67.692C422.595 68.0093 423.057 68.4667 423.393 69.064C423.738 69.6613 423.911 70.3567 423.911 71.15C423.911 71.9433 423.733 72.6433 423.379 73.25C423.033 73.8473 422.562 74.3093 421.965 74.636C421.367 74.9627 420.705 75.126 419.977 75.126ZM419.977 74.006C420.434 74.006 420.863 73.8987 421.265 73.684C421.666 73.4693 421.988 73.1473 422.231 72.718C422.483 72.2887 422.609 71.766 422.609 71.15C422.609 70.534 422.487 70.0113 422.245 69.582C422.002 69.1527 421.685 68.8353 421.293 68.63C420.901 68.4153 420.476 68.308 420.019 68.308C419.552 68.308 419.123 68.4153 418.731 68.63C418.348 68.8353 418.04 69.1527 417.807 69.582C417.573 70.0113 417.457 70.534 417.457 71.15C417.457 71.7753 417.569 72.3027 417.793 72.732C418.026 73.1613 418.334 73.4833 418.717 73.698C419.099 73.9033 419.519 74.006 419.977 74.006ZM428.842 71.136C428.842 70.352 429.001 69.666 429.318 69.078C429.636 68.4807 430.07 68.0187 430.62 67.692C431.18 67.3653 431.806 67.202 432.496 67.202C433.094 67.202 433.649 67.342 434.162 67.622C434.676 67.8927 435.068 68.252 435.338 68.7V64.64H436.626V75H435.338V73.558C435.086 74.0153 434.713 74.3933 434.218 74.692C433.724 74.9813 433.145 75.126 432.482 75.126C431.801 75.126 431.18 74.958 430.62 74.622C430.07 74.286 429.636 73.8147 429.318 73.208C429.001 72.6013 428.842 71.9107 428.842 71.136ZM435.338 71.15C435.338 70.5713 435.222 70.0673 434.988 69.638C434.755 69.2087 434.438 68.882 434.036 68.658C433.644 68.4247 433.21 68.308 432.734 68.308C432.258 68.308 431.824 68.42 431.432 68.644C431.04 68.868 430.728 69.1947 430.494 69.624C430.261 70.0533 430.144 70.5573 430.144 71.136C430.144 71.724 430.261 72.2373 430.494 72.676C430.728 73.1053 431.04 73.4367 431.432 73.67C431.824 73.894 432.258 74.006 432.734 74.006C433.21 74.006 433.644 73.894 434.036 73.67C434.438 73.4367 434.755 73.1053 434.988 72.676C435.222 72.2373 435.338 71.7287 435.338 71.15ZM445.779 70.87C445.779 71.1127 445.765 71.3693 445.737 71.64H439.605C439.652 72.396 439.909 72.9887 440.375 73.418C440.851 73.838 441.425 74.048 442.097 74.048C442.648 74.048 443.105 73.922 443.469 73.67C443.843 73.4087 444.104 73.0633 444.253 72.634H445.625C445.42 73.3713 445.009 73.9733 444.393 74.44C443.777 74.8973 443.012 75.126 442.097 75.126C441.369 75.126 440.716 74.9627 440.137 74.636C439.568 74.3093 439.12 73.8473 438.793 73.25C438.467 72.6433 438.303 71.9433 438.303 71.15C438.303 70.3567 438.462 69.6613 438.779 69.064C439.097 68.4667 439.54 68.0093 440.109 67.692C440.688 67.3653 441.351 67.202 442.097 67.202C442.825 67.202 443.469 67.3607 444.029 67.678C444.589 67.9953 445.019 68.434 445.317 68.994C445.625 69.5447 445.779 70.17 445.779 70.87ZM444.463 70.604C444.463 70.1187 444.356 69.7033 444.141 69.358C443.927 69.0033 443.633 68.7373 443.259 68.56C442.895 68.3733 442.489 68.28 442.041 68.28C441.397 68.28 440.847 68.4853 440.389 68.896C439.941 69.3067 439.685 69.876 439.619 70.604H444.463ZM454.315 68.378H452.705V75H451.431V68.378H450.437V67.328H451.431V66.782C451.431 65.9233 451.651 65.298 452.089 64.906C452.537 64.5047 453.251 64.304 454.231 64.304V65.368C453.671 65.368 453.275 65.48 453.041 65.704C452.817 65.9187 452.705 66.278 452.705 66.782V67.328H454.315V68.378ZM462.605 67.328V75H461.331V73.866C461.088 74.258 460.747 74.566 460.309 74.79C459.879 75.0047 459.403 75.112 458.881 75.112C458.283 75.112 457.747 74.9907 457.271 74.748C456.795 74.496 456.417 74.1227 456.137 73.628C455.866 73.1333 455.731 72.5313 455.731 71.822V67.328H456.991V71.654C456.991 72.41 457.182 72.9933 457.565 73.404C457.947 73.8053 458.47 74.006 459.133 74.006C459.814 74.006 460.351 73.796 460.743 73.376C461.135 72.956 461.331 72.3447 461.331 71.542V67.328H462.605ZM468.494 67.188C469.427 67.188 470.183 67.4727 470.762 68.042C471.34 68.602 471.63 69.414 471.63 70.478V75H470.37V70.66C470.37 69.8947 470.178 69.3113 469.796 68.91C469.413 68.4993 468.89 68.294 468.228 68.294C467.556 68.294 467.019 68.504 466.618 68.924C466.226 69.344 466.03 69.9553 466.03 70.758V75H464.756V67.328H466.03V68.42C466.282 68.028 466.622 67.7247 467.052 67.51C467.49 67.2953 467.971 67.188 468.494 67.188ZM473.235 71.136C473.235 70.352 473.393 69.666 473.711 69.078C474.028 68.4807 474.462 68.0187 475.013 67.692C475.573 67.3653 476.198 67.202 476.889 67.202C477.486 67.202 478.041 67.342 478.555 67.622C479.068 67.8927 479.46 68.252 479.731 68.7V64.64H481.019V75H479.731V73.558C479.479 74.0153 479.105 74.3933 478.611 74.692C478.116 74.9813 477.537 75.126 476.875 75.126C476.193 75.126 475.573 74.958 475.013 74.622C474.462 74.286 474.028 73.8147 473.711 73.208C473.393 72.6013 473.235 71.9107 473.235 71.136ZM479.731 71.15C479.731 70.5713 479.614 70.0673 479.381 69.638C479.147 69.2087 478.83 68.882 478.429 68.658C478.037 68.4247 477.603 68.308 477.127 68.308C476.651 68.308 476.217 68.42 475.825 68.644C475.433 68.868 475.12 69.1947 474.887 69.624C474.653 70.0533 474.537 70.5573 474.537 71.136C474.537 71.724 474.653 72.2373 474.887 72.676C475.12 73.1053 475.433 73.4367 475.825 73.67C476.217 73.894 476.651 74.006 477.127 74.006C477.603 74.006 478.037 73.894 478.429 73.67C478.83 73.4367 479.147 73.1053 479.381 72.676C479.614 72.2373 479.731 71.7287 479.731 71.15ZM482.696 71.136C482.696 70.352 482.854 69.666 483.172 69.078C483.489 68.4807 483.923 68.0187 484.474 67.692C485.034 67.3653 485.654 67.202 486.336 67.202C487.008 67.202 487.591 67.3467 488.086 67.636C488.58 67.9253 488.949 68.2893 489.192 68.728V67.328H490.48V75H489.192V73.572C488.94 74.02 488.562 74.3933 488.058 74.692C487.563 74.9813 486.984 75.126 486.322 75.126C485.64 75.126 485.024 74.958 484.474 74.622C483.923 74.286 483.489 73.8147 483.172 73.208C482.854 72.6013 482.696 71.9107 482.696 71.136ZM489.192 71.15C489.192 70.5713 489.075 70.0673 488.842 69.638C488.608 69.2087 488.291 68.882 487.89 68.658C487.498 68.4247 487.064 68.308 486.588 68.308C486.112 68.308 485.678 68.42 485.286 68.644C484.894 68.868 484.581 69.1947 484.348 69.624C484.114 70.0533 483.998 70.5573 483.998 71.136C483.998 71.724 484.114 72.2373 484.348 72.676C484.581 73.1053 484.894 73.4367 485.286 73.67C485.678 73.894 486.112 74.006 486.588 74.006C487.064 74.006 487.498 73.894 487.89 73.67C488.291 73.4367 488.608 73.1053 488.842 72.676C489.075 72.2373 489.192 71.7287 489.192 71.15ZM501.859 67.188C502.456 67.188 502.988 67.314 503.455 67.566C503.921 67.8087 504.29 68.1773 504.561 68.672C504.831 69.1667 504.967 69.7687 504.967 70.478V75H503.707V70.66C503.707 69.8947 503.515 69.3113 503.133 68.91C502.759 68.4993 502.251 68.294 501.607 68.294C500.944 68.294 500.417 68.5087 500.025 68.938C499.633 69.358 499.437 69.9693 499.437 70.772V75H498.177V70.66C498.177 69.8947 497.985 69.3113 497.603 68.91C497.229 68.4993 496.721 68.294 496.077 68.294C495.414 68.294 494.887 68.5087 494.495 68.938C494.103 69.358 493.907 69.9693 493.907 70.772V75H492.633V67.328H493.907V68.434C494.159 68.0327 494.495 67.7247 494.915 67.51C495.344 67.2953 495.815 67.188 496.329 67.188C496.973 67.188 497.542 67.3327 498.037 67.622C498.531 67.9113 498.9 68.336 499.143 68.896C499.357 68.3547 499.712 67.9347 500.207 67.636C500.701 67.3373 501.252 67.188 501.859 67.188ZM514.057 70.87C514.057 71.1127 514.043 71.3693 514.015 71.64H507.883C507.929 72.396 508.186 72.9887 508.653 73.418C509.129 73.838 509.703 74.048 510.375 74.048C510.925 74.048 511.383 73.922 511.747 73.67C512.12 73.4087 512.381 73.0633 512.531 72.634H513.903C513.697 73.3713 513.287 73.9733 512.671 74.44C512.055 74.8973 511.289 75.126 510.375 75.126C509.647 75.126 508.993 74.9627 508.415 74.636C507.845 74.3093 507.397 73.8473 507.071 73.25C506.744 72.6433 506.581 71.9433 506.581 71.15C506.581 70.3567 506.739 69.6613 507.057 69.064C507.374 68.4667 507.817 68.0093 508.387 67.692C508.965 67.3653 509.628 67.202 510.375 67.202C511.103 67.202 511.747 67.3607 512.307 67.678C512.867 67.9953 513.296 68.434 513.595 68.994C513.903 69.5447 514.057 70.17 514.057 70.87ZM512.741 70.604C512.741 70.1187 512.633 69.7033 512.419 69.358C512.204 69.0033 511.91 68.7373 511.537 68.56C511.173 68.3733 510.767 68.28 510.319 68.28C509.675 68.28 509.124 68.4853 508.667 68.896C508.219 69.3067 507.962 69.876 507.897 70.604H512.741ZM519.476 67.188C520.409 67.188 521.165 67.4727 521.744 68.042C522.323 68.602 522.612 69.414 522.612 70.478V75H521.352V70.66C521.352 69.8947 521.161 69.3113 520.778 68.91C520.395 68.4993 519.873 68.294 519.21 68.294C518.538 68.294 518.001 68.504 517.6 68.924C517.208 69.344 517.012 69.9553 517.012 70.758V75H515.738V67.328H517.012V68.42C517.264 68.028 517.605 67.7247 518.034 67.51C518.473 67.2953 518.953 67.188 519.476 67.188ZM526.247 68.378V72.9C526.247 73.2733 526.327 73.5393 526.485 73.698C526.644 73.8473 526.919 73.922 527.311 73.922H528.249V75H527.101C526.392 75 525.86 74.8367 525.505 74.51C525.151 74.1833 524.973 73.6467 524.973 72.9V68.378H523.979V67.328H524.973V65.396H526.247V67.328H528.249V68.378H526.247ZM533.139 75.126C532.42 75.126 531.767 74.9627 531.179 74.636C530.6 74.3093 530.143 73.8473 529.807 73.25C529.48 72.6433 529.317 71.9433 529.317 71.15C529.317 70.366 529.485 69.6753 529.821 69.078C530.166 68.4713 530.633 68.0093 531.221 67.692C531.809 67.3653 532.467 67.202 533.195 67.202C533.923 67.202 534.581 67.3653 535.169 67.692C535.757 68.0093 536.219 68.4667 536.555 69.064C536.9 69.6613 537.073 70.3567 537.073 71.15C537.073 71.9433 536.896 72.6433 536.541 73.25C536.196 73.8473 535.724 74.3093 535.127 74.636C534.53 74.9627 533.867 75.126 533.139 75.126ZM533.139 74.006C533.596 74.006 534.026 73.8987 534.427 73.684C534.828 73.4693 535.15 73.1473 535.393 72.718C535.645 72.2887 535.771 71.766 535.771 71.15C535.771 70.534 535.65 70.0113 535.407 69.582C535.164 69.1527 534.847 68.8353 534.455 68.63C534.063 68.4153 533.638 68.308 533.181 68.308C532.714 68.308 532.285 68.4153 531.893 68.63C531.51 68.8353 531.202 69.1527 530.969 69.582C530.736 70.0113 530.619 70.534 530.619 71.15C530.619 71.7753 530.731 72.3027 530.955 72.732C531.188 73.1613 531.496 73.4833 531.879 73.698C532.262 73.9033 532.682 74.006 533.139 74.006ZM541.464 75.126C540.876 75.126 540.349 75.028 539.882 74.832C539.415 74.6267 539.047 74.3467 538.776 73.992C538.505 73.628 538.356 73.2127 538.328 72.746H539.644C539.681 73.1287 539.859 73.4413 540.176 73.684C540.503 73.9267 540.927 74.048 541.45 74.048C541.935 74.048 542.318 73.9407 542.598 73.726C542.878 73.5113 543.018 73.2407 543.018 72.914C543.018 72.578 542.869 72.3307 542.57 72.172C542.271 72.004 541.809 71.8407 541.184 71.682C540.615 71.5327 540.148 71.3833 539.784 71.234C539.429 71.0753 539.121 70.8467 538.86 70.548C538.608 70.24 538.482 69.8387 538.482 69.344C538.482 68.952 538.599 68.5927 538.832 68.266C539.065 67.9393 539.397 67.6827 539.826 67.496C540.255 67.3 540.745 67.202 541.296 67.202C542.145 67.202 542.831 67.4167 543.354 67.846C543.877 68.2753 544.157 68.8633 544.194 69.61H542.92C542.892 69.2087 542.729 68.8867 542.43 68.644C542.141 68.4013 541.749 68.28 541.254 68.28C540.797 68.28 540.433 68.378 540.162 68.574C539.891 68.77 539.756 69.0267 539.756 69.344C539.756 69.596 539.835 69.806 539.994 69.974C540.162 70.1327 540.367 70.2633 540.61 70.366C540.862 70.4593 541.207 70.5667 541.646 70.688C542.197 70.8373 542.645 70.9867 542.99 71.136C543.335 71.276 543.629 71.4907 543.872 71.78C544.124 72.0693 544.255 72.4473 544.264 72.914C544.264 73.334 544.147 73.712 543.914 74.048C543.681 74.384 543.349 74.65 542.92 74.846C542.5 75.0327 542.015 75.126 541.464 75.126ZM547.378 73.236L545.81 77.002H544.956L545.978 73.236H547.378ZM159.882 88.328V96H158.608V94.866C158.365 95.258 158.025 95.566 157.586 95.79C157.157 96.0047 156.681 96.112 156.158 96.112C155.561 96.112 155.024 95.9907 154.548 95.748C154.072 95.496 153.694 95.1227 153.414 94.628C153.143 94.1333 153.008 93.5313 153.008 92.822V88.328H154.268V92.654C154.268 93.41 154.459 93.9933 154.842 94.404C155.225 94.8053 155.747 95.006 156.41 95.006C157.091 95.006 157.628 94.796 158.02 94.376C158.412 93.956 158.608 93.3447 158.608 92.542V88.328H159.882ZM163.587 89.378V93.9C163.587 94.2733 163.666 94.5393 163.825 94.698C163.984 94.8473 164.259 94.922 164.651 94.922H165.589V96H164.441C163.732 96 163.2 95.8367 162.845 95.51C162.49 95.1833 162.313 94.6467 162.313 93.9V89.378H161.319V88.328H162.313V86.396H163.587V88.328H165.589V89.378H163.587ZM167.791 87.082C167.548 87.082 167.343 86.998 167.175 86.83C167.007 86.662 166.923 86.4567 166.923 86.214C166.923 85.9713 167.007 85.766 167.175 85.598C167.343 85.43 167.548 85.346 167.791 85.346C168.024 85.346 168.22 85.43 168.379 85.598C168.547 85.766 168.631 85.9713 168.631 86.214C168.631 86.4567 168.547 86.662 168.379 86.83C168.22 86.998 168.024 87.082 167.791 87.082ZM168.407 88.328V96H167.133V88.328H168.407ZM171.852 85.64V96H170.578V85.64H171.852ZM174.681 87.082C174.439 87.082 174.233 86.998 174.065 86.83C173.897 86.662 173.813 86.4567 173.813 86.214C173.813 85.9713 173.897 85.766 174.065 85.598C174.233 85.43 174.439 85.346 174.681 85.346C174.915 85.346 175.111 85.43 175.269 85.598C175.437 85.766 175.521 85.9713 175.521 86.214C175.521 86.4567 175.437 86.662 175.269 86.83C175.111 86.998 174.915 87.082 174.681 87.082ZM175.297 88.328V96H174.023V88.328H175.297ZM178.421 94.95H182.187V96H176.965V94.95L180.689 89.364H176.993V88.328H182.159V89.364L178.421 94.95ZM183.364 92.136C183.364 91.352 183.522 90.666 183.84 90.078C184.157 89.4807 184.591 89.0187 185.142 88.692C185.702 88.3653 186.322 88.202 187.004 88.202C187.676 88.202 188.259 88.3467 188.754 88.636C189.248 88.9253 189.617 89.2893 189.86 89.728V88.328H191.148V96H189.86V94.572C189.608 95.02 189.23 95.3933 188.726 95.692C188.231 95.9813 187.652 96.126 186.99 96.126C186.308 96.126 185.692 95.958 185.142 95.622C184.591 95.286 184.157 94.8147 183.84 94.208C183.522 93.6013 183.364 92.9107 183.364 92.136ZM189.86 92.15C189.86 91.5713 189.743 91.0673 189.51 90.638C189.276 90.2087 188.959 89.882 188.558 89.658C188.166 89.4247 187.732 89.308 187.256 89.308C186.78 89.308 186.346 89.42 185.954 89.644C185.562 89.868 185.249 90.1947 185.016 90.624C184.782 91.0533 184.666 91.5573 184.666 92.136C184.666 92.724 184.782 93.2373 185.016 93.676C185.249 94.1053 185.562 94.4367 185.954 94.67C186.346 94.894 186.78 95.006 187.256 95.006C187.732 95.006 188.166 94.894 188.558 94.67C188.959 94.4367 189.276 94.1053 189.51 93.676C189.743 93.2373 189.86 92.7287 189.86 92.15ZM197.039 88.188C197.972 88.188 198.728 88.4727 199.307 89.042C199.885 89.602 200.175 90.414 200.175 91.478V96H198.915V91.66C198.915 90.8947 198.723 90.3113 198.341 89.91C197.958 89.4993 197.435 89.294 196.773 89.294C196.101 89.294 195.564 89.504 195.163 89.924C194.771 90.344 194.575 90.9553 194.575 91.758V96H193.301V88.328H194.575V89.42C194.827 89.028 195.167 88.7247 195.597 88.51C196.035 88.2953 196.516 88.188 197.039 88.188ZM201.78 92.136C201.78 91.352 201.938 90.666 202.256 90.078C202.573 89.4807 203.007 89.0187 203.558 88.692C204.118 88.3653 204.743 88.202 205.434 88.202C206.031 88.202 206.586 88.342 207.1 88.622C207.613 88.8927 208.005 89.252 208.276 89.7V85.64H209.564V96H208.276V94.558C208.024 95.0153 207.65 95.3933 207.156 95.692C206.661 95.9813 206.082 96.126 205.42 96.126C204.738 96.126 204.118 95.958 203.558 95.622C203.007 95.286 202.573 94.8147 202.256 94.208C201.938 93.6013 201.78 92.9107 201.78 92.136ZM208.276 92.15C208.276 91.5713 208.159 91.0673 207.926 90.638C207.692 90.2087 207.375 89.882 206.974 89.658C206.582 89.4247 206.148 89.308 205.672 89.308C205.196 89.308 204.762 89.42 204.37 89.644C203.978 89.868 203.665 90.1947 203.432 90.624C203.198 91.0533 203.082 91.5573 203.082 92.136C203.082 92.724 203.198 93.2373 203.432 93.676C203.665 94.1053 203.978 94.4367 204.37 94.67C204.762 94.894 205.196 95.006 205.672 95.006C206.148 95.006 206.582 94.894 206.974 94.67C207.375 94.4367 207.692 94.1053 207.926 93.676C208.159 93.2373 208.276 92.7287 208.276 92.15ZM215.063 96.126C214.344 96.126 213.691 95.9627 213.103 95.636C212.524 95.3093 212.067 94.8473 211.731 94.25C211.404 93.6433 211.241 92.9433 211.241 92.15C211.241 91.366 211.409 90.6753 211.745 90.078C212.09 89.4713 212.557 89.0093 213.145 88.692C213.733 88.3653 214.391 88.202 215.119 88.202C215.847 88.202 216.505 88.3653 217.093 88.692C217.681 89.0093 218.143 89.4667 218.479 90.064C218.824 90.6613 218.997 91.3567 218.997 92.15C218.997 92.9433 218.819 93.6433 218.465 94.25C218.119 94.8473 217.648 95.3093 217.051 95.636C216.453 95.9627 215.791 96.126 215.063 96.126ZM215.063 95.006C215.52 95.006 215.949 94.8987 216.351 94.684C216.752 94.4693 217.074 94.1473 217.317 93.718C217.569 93.2887 217.695 92.766 217.695 92.15C217.695 91.534 217.573 91.0113 217.331 90.582C217.088 90.1527 216.771 89.8353 216.379 89.63C215.987 89.4153 215.562 89.308 215.105 89.308C214.638 89.308 214.209 89.4153 213.817 89.63C213.434 89.8353 213.126 90.1527 212.893 90.582C212.659 91.0113 212.543 91.534 212.543 92.15C212.543 92.7753 212.655 93.3027 212.879 93.732C213.112 94.1613 213.42 94.4833 213.803 94.698C214.185 94.9033 214.605 95.006 215.063 95.006ZM231.922 86.242V96H230.648V91.576H225.678V96H224.404V86.242H225.678V90.526H230.648V86.242H231.922ZM240.104 86.242V87.278H237.444V96H236.17V87.278H233.496V86.242H240.104ZM251.57 86.312V96H250.296V88.776L247.076 96H246.18L242.946 88.762V96H241.672V86.312H243.044L246.628 94.32L250.212 86.312H251.57ZM255.004 94.964H258.42V96H253.73V86.242H255.004V94.964ZM261.089 94.236L259.521 98.002H258.667L259.689 94.236H261.089ZM265.805 91.114C265.805 90.162 266.02 89.308 266.449 88.552C266.878 87.7867 267.462 87.1893 268.199 86.76C268.946 86.3307 269.772 86.116 270.677 86.116C271.741 86.116 272.67 86.3727 273.463 86.886C274.256 87.3993 274.835 88.1273 275.199 89.07H273.673C273.402 88.482 273.01 88.0293 272.497 87.712C271.993 87.3947 271.386 87.236 270.677 87.236C269.996 87.236 269.384 87.3947 268.843 87.712C268.302 88.0293 267.877 88.482 267.569 89.07C267.261 89.6487 267.107 90.33 267.107 91.114C267.107 91.8887 267.261 92.57 267.569 93.158C267.877 93.7367 268.302 94.1847 268.843 94.502C269.384 94.8193 269.996 94.978 270.677 94.978C271.386 94.978 271.993 94.824 272.497 94.516C273.01 94.1987 273.402 93.746 273.673 93.158H275.199C274.835 94.0913 274.256 94.8147 273.463 95.328C272.67 95.832 271.741 96.084 270.677 96.084C269.772 96.084 268.946 95.874 268.199 95.454C267.462 95.0247 266.878 94.432 266.449 93.676C266.02 92.92 265.805 92.066 265.805 91.114ZM280.19 96.098C279.546 96.098 278.967 95.986 278.454 95.762C277.95 95.5287 277.553 95.2113 277.264 94.81C276.974 94.3993 276.825 93.928 276.816 93.396H278.174C278.22 93.8533 278.407 94.2407 278.734 94.558C279.07 94.866 279.555 95.02 280.19 95.02C280.796 95.02 281.272 94.8707 281.618 94.572C281.972 94.264 282.15 93.872 282.15 93.396C282.15 93.0227 282.047 92.7193 281.842 92.486C281.636 92.2527 281.38 92.0753 281.072 91.954C280.764 91.8327 280.348 91.702 279.826 91.562C279.182 91.394 278.664 91.226 278.272 91.058C277.889 90.89 277.558 90.6287 277.278 90.274C277.007 89.91 276.872 89.4247 276.872 88.818C276.872 88.286 277.007 87.8147 277.278 87.404C277.548 86.9933 277.926 86.676 278.412 86.452C278.906 86.228 279.471 86.116 280.106 86.116C281.02 86.116 281.767 86.3447 282.346 86.802C282.934 87.2593 283.265 87.866 283.34 88.622H281.94C281.893 88.2487 281.697 87.922 281.352 87.642C281.006 87.3527 280.549 87.208 279.98 87.208C279.448 87.208 279.014 87.348 278.678 87.628C278.342 87.8987 278.174 88.2813 278.174 88.776C278.174 89.1307 278.272 89.42 278.468 89.644C278.673 89.868 278.92 90.0407 279.21 90.162C279.508 90.274 279.924 90.4047 280.456 90.554C281.1 90.7313 281.618 90.9087 282.01 91.086C282.402 91.254 282.738 91.52 283.018 91.884C283.298 92.2387 283.438 92.724 283.438 93.34C283.438 93.816 283.312 94.264 283.06 94.684C282.808 95.104 282.434 95.4447 281.94 95.706C281.445 95.9673 280.862 96.098 280.19 96.098ZM288.406 96.098C287.762 96.098 287.184 95.986 286.67 95.762C286.166 95.5287 285.77 95.2113 285.48 94.81C285.191 94.3993 285.042 93.928 285.032 93.396H286.39C286.437 93.8533 286.624 94.2407 286.95 94.558C287.286 94.866 287.772 95.02 288.406 95.02C289.013 95.02 289.489 94.8707 289.834 94.572C290.189 94.264 290.366 93.872 290.366 93.396C290.366 93.0227 290.264 92.7193 290.058 92.486C289.853 92.2527 289.596 92.0753 289.288 91.954C288.98 91.8327 288.565 91.702 288.042 91.562C287.398 91.394 286.88 91.226 286.488 91.058C286.106 90.89 285.774 90.6287 285.494 90.274C285.224 89.91 285.088 89.4247 285.088 88.818C285.088 88.286 285.224 87.8147 285.494 87.404C285.765 86.9933 286.143 86.676 286.628 86.452C287.123 86.228 287.688 86.116 288.322 86.116C289.237 86.116 289.984 86.3447 290.562 86.802C291.15 87.2593 291.482 87.866 291.556 88.622H290.156C290.11 88.2487 289.914 87.922 289.568 87.642C289.223 87.3527 288.766 87.208 288.196 87.208C287.664 87.208 287.23 87.348 286.894 87.628C286.558 87.8987 286.39 88.2813 286.39 88.776C286.39 89.1307 286.488 89.42 286.684 89.644C286.89 89.868 287.137 90.0407 287.426 90.162C287.725 90.274 288.14 90.4047 288.672 90.554C289.316 90.7313 289.834 90.9087 290.226 91.086C290.618 91.254 290.954 91.52 291.234 91.884C291.514 92.2387 291.654 92.724 291.654 93.34C291.654 93.816 291.528 94.264 291.276 94.684C291.024 95.104 290.651 95.4447 290.156 95.706C289.662 95.9673 289.078 96.098 288.406 96.098ZM294.845 94.236L293.277 98.002H292.423L293.445 94.236H294.845ZM304.951 86.242V93.452C304.951 94.2547 304.704 94.8987 304.209 95.384C303.714 95.86 303.061 96.098 302.249 96.098C301.428 96.098 300.77 95.8553 300.275 95.37C299.78 94.8753 299.533 94.2033 299.533 93.354H300.807C300.816 93.83 300.938 94.2173 301.171 94.516C301.414 94.8147 301.773 94.964 302.249 94.964C302.725 94.964 303.08 94.824 303.313 94.544C303.546 94.2547 303.663 93.8907 303.663 93.452V86.242H304.951ZM306.985 92.136C306.985 91.352 307.143 90.666 307.461 90.078C307.778 89.4807 308.212 89.0187 308.763 88.692C309.323 88.3653 309.943 88.202 310.625 88.202C311.297 88.202 311.88 88.3467 312.375 88.636C312.869 88.9253 313.238 89.2893 313.481 89.728V88.328H314.769V96H313.481V94.572C313.229 95.02 312.851 95.3933 312.347 95.692C311.852 95.9813 311.273 96.126 310.611 96.126C309.929 96.126 309.313 95.958 308.763 95.622C308.212 95.286 307.778 94.8147 307.461 94.208C307.143 93.6013 306.985 92.9107 306.985 92.136ZM313.481 92.15C313.481 91.5713 313.364 91.0673 313.131 90.638C312.897 90.2087 312.58 89.882 312.179 89.658C311.787 89.4247 311.353 89.308 310.877 89.308C310.401 89.308 309.967 89.42 309.575 89.644C309.183 89.868 308.87 90.1947 308.637 90.624C308.403 91.0533 308.287 91.5573 308.287 92.136C308.287 92.724 308.403 93.2373 308.637 93.676C308.87 94.1053 309.183 94.4367 309.575 94.67C309.967 94.894 310.401 95.006 310.877 95.006C311.353 95.006 311.787 94.894 312.179 94.67C312.58 94.4367 312.897 94.1053 313.131 93.676C313.364 93.2373 313.481 92.7287 313.481 92.15ZM319.778 94.824L322.158 88.328H323.516L320.506 96H319.022L316.012 88.328H317.384L319.778 94.824ZM324.293 92.136C324.293 91.352 324.452 90.666 324.769 90.078C325.087 89.4807 325.521 89.0187 326.071 88.692C326.631 88.3653 327.252 88.202 327.933 88.202C328.605 88.202 329.189 88.3467 329.683 88.636C330.178 88.9253 330.547 89.2893 330.789 89.728V88.328H332.077V96H330.789V94.572C330.537 95.02 330.159 95.3933 329.655 95.692C329.161 95.9813 328.582 96.126 327.919 96.126C327.238 96.126 326.622 95.958 326.071 95.622C325.521 95.286 325.087 94.8147 324.769 94.208C324.452 93.6013 324.293 92.9107 324.293 92.136ZM330.789 92.15C330.789 91.5713 330.673 91.0673 330.439 90.638C330.206 90.2087 329.889 89.882 329.487 89.658C329.095 89.4247 328.661 89.308 328.185 89.308C327.709 89.308 327.275 89.42 326.883 89.644C326.491 89.868 326.179 90.1947 325.945 90.624C325.712 91.0533 325.595 91.5573 325.595 92.136C325.595 92.724 325.712 93.2373 325.945 93.676C326.179 94.1053 326.491 94.4367 326.883 94.67C327.275 94.894 327.709 95.006 328.185 95.006C328.661 95.006 329.095 94.894 329.487 94.67C329.889 94.4367 330.206 94.1053 330.439 93.676C330.673 93.2373 330.789 92.7287 330.789 92.15ZM337.324 96.098C336.68 96.098 336.102 95.986 335.588 95.762C335.084 95.5287 334.688 95.2113 334.398 94.81C334.109 94.3993 333.96 93.928 333.95 93.396H335.308C335.355 93.8533 335.542 94.2407 335.868 94.558C336.204 94.866 336.69 95.02 337.324 95.02C337.931 95.02 338.407 94.8707 338.752 94.572C339.107 94.264 339.284 93.872 339.284 93.396C339.284 93.0227 339.182 92.7193 338.976 92.486C338.771 92.2527 338.514 92.0753 338.206 91.954C337.898 91.8327 337.483 91.702 336.96 91.562C336.316 91.394 335.798 91.226 335.406 91.058C335.024 90.89 334.692 90.6287 334.412 90.274C334.142 89.91 334.006 89.4247 334.006 88.818C334.006 88.286 334.142 87.8147 334.412 87.404C334.683 86.9933 335.061 86.676 335.546 86.452C336.041 86.228 336.606 86.116 337.24 86.116C338.155 86.116 338.902 86.3447 339.48 86.802C340.068 87.2593 340.4 87.866 340.474 88.622H339.074C339.028 88.2487 338.832 87.922 338.486 87.642C338.141 87.3527 337.684 87.208 337.114 87.208C336.582 87.208 336.148 87.348 335.812 87.628C335.476 87.8987 335.308 88.2813 335.308 88.776C335.308 89.1307 335.406 89.42 335.602 89.644C335.808 89.868 336.055 90.0407 336.344 90.162C336.643 90.274 337.058 90.4047 337.59 90.554C338.234 90.7313 338.752 90.9087 339.144 91.086C339.536 91.254 339.872 91.52 340.152 91.884C340.432 92.2387 340.572 92.724 340.572 93.34C340.572 93.816 340.446 94.264 340.194 94.684C339.942 95.104 339.569 95.4447 339.074 95.706C338.58 95.9673 337.996 96.098 337.324 96.098ZM341.971 92.15C341.971 91.3567 342.13 90.666 342.447 90.078C342.764 89.4807 343.203 89.0187 343.763 88.692C344.332 88.3653 344.981 88.202 345.709 88.202C346.652 88.202 347.426 88.4307 348.033 88.888C348.649 89.3453 349.055 89.98 349.251 90.792H347.879C347.748 90.3253 347.492 89.9567 347.109 89.686C346.736 89.4153 346.269 89.28 345.709 89.28C344.981 89.28 344.393 89.532 343.945 90.036C343.497 90.5307 343.273 91.2353 343.273 92.15C343.273 93.074 343.497 93.788 343.945 94.292C344.393 94.796 344.981 95.048 345.709 95.048C346.269 95.048 346.736 94.9173 347.109 94.656C347.482 94.3947 347.739 94.0213 347.879 93.536H349.251C349.046 94.32 348.635 94.95 348.019 95.426C347.403 95.8927 346.633 96.126 345.709 96.126C344.981 96.126 344.332 95.9627 343.763 95.636C343.203 95.3093 342.764 94.8473 342.447 94.25C342.13 93.6527 341.971 92.9527 341.971 92.15ZM352.225 89.574C352.449 89.1353 352.766 88.7947 353.177 88.552C353.597 88.3093 354.106 88.188 354.703 88.188V89.504H354.367C352.939 89.504 352.225 90.2787 352.225 91.828V96H350.951V88.328H352.225V89.574ZM356.832 87.082C356.589 87.082 356.384 86.998 356.216 86.83C356.048 86.662 355.964 86.4567 355.964 86.214C355.964 85.9713 356.048 85.766 356.216 85.598C356.384 85.43 356.589 85.346 356.832 85.346C357.065 85.346 357.261 85.43 357.42 85.598C357.588 85.766 357.672 85.9713 357.672 86.214C357.672 86.4567 357.588 86.662 357.42 86.83C357.261 86.998 357.065 87.082 356.832 87.082ZM357.448 88.328V96H356.174V88.328H357.448ZM360.893 89.742C361.145 89.3033 361.518 88.9393 362.013 88.65C362.517 88.3513 363.1 88.202 363.763 88.202C364.444 88.202 365.06 88.3653 365.611 88.692C366.171 89.0187 366.61 89.4807 366.927 90.078C367.244 90.666 367.403 91.352 367.403 92.136C367.403 92.9107 367.244 93.6013 366.927 94.208C366.61 94.8147 366.171 95.286 365.611 95.622C365.06 95.958 364.444 96.126 363.763 96.126C363.11 96.126 362.531 95.9813 362.027 95.692C361.532 95.3933 361.154 95.0247 360.893 94.586V99.64H359.619V88.328H360.893V89.742ZM366.101 92.136C366.101 91.5573 365.984 91.0533 365.751 90.624C365.518 90.1947 365.2 89.868 364.799 89.644C364.407 89.42 363.973 89.308 363.497 89.308C363.03 89.308 362.596 89.4247 362.195 89.658C361.803 89.882 361.486 90.2133 361.243 90.652C361.01 91.0813 360.893 91.5807 360.893 92.15C360.893 92.7287 361.01 93.2373 361.243 93.676C361.486 94.1053 361.803 94.4367 362.195 94.67C362.596 94.894 363.03 95.006 363.497 95.006C363.973 95.006 364.407 94.894 364.799 94.67C365.2 94.4367 365.518 94.1053 365.751 93.676C365.984 93.2373 366.101 92.724 366.101 92.136ZM370.634 89.378V93.9C370.634 94.2733 370.713 94.5393 370.872 94.698C371.031 94.8473 371.306 94.922 371.698 94.922H372.636V96H371.488C370.779 96 370.247 95.8367 369.892 95.51C369.537 95.1833 369.36 94.6467 369.36 93.9V89.378H368.366V88.328H369.36V86.396H370.634V88.328H372.636V89.378H370.634ZM384.912 91.87C384.912 92.1127 384.898 92.3693 384.87 92.64H378.738C378.785 93.396 379.041 93.9887 379.508 94.418C379.984 94.838 380.558 95.048 381.23 95.048C381.781 95.048 382.238 94.922 382.602 94.67C382.975 94.4087 383.237 94.0633 383.386 93.634H384.758C384.553 94.3713 384.142 94.9733 383.526 95.44C382.91 95.8973 382.145 96.126 381.23 96.126C380.502 96.126 379.849 95.9627 379.27 95.636C378.701 95.3093 378.253 94.8473 377.926 94.25C377.599 93.6433 377.436 92.9433 377.436 92.15C377.436 91.3567 377.595 90.6613 377.912 90.064C378.229 89.4667 378.673 89.0093 379.242 88.692C379.821 88.3653 380.483 88.202 381.23 88.202C381.958 88.202 382.602 88.3607 383.162 88.678C383.722 88.9953 384.151 89.434 384.45 89.994C384.758 90.5447 384.912 91.17 384.912 91.87ZM383.596 91.604C383.596 91.1187 383.489 90.7033 383.274 90.358C383.059 90.0033 382.765 89.7373 382.392 89.56C382.028 89.3733 381.622 89.28 381.174 89.28C380.53 89.28 379.979 89.4853 379.522 89.896C379.074 90.3067 378.817 90.876 378.752 91.604H383.596ZM395.24 86.242V93.452C395.24 94.2547 394.993 94.8987 394.498 95.384C394.003 95.86 393.35 96.098 392.538 96.098C391.717 96.098 391.059 95.8553 390.564 95.37C390.069 94.8753 389.822 94.2033 389.822 93.354H391.096C391.105 93.83 391.227 94.2173 391.46 94.516C391.703 94.8147 392.062 94.964 392.538 94.964C393.014 94.964 393.369 94.824 393.602 94.544C393.835 94.2547 393.952 93.8907 393.952 93.452V86.242H395.24ZM404.75 91.87C404.75 92.1127 404.736 92.3693 404.708 92.64H398.576C398.623 93.396 398.879 93.9887 399.346 94.418C399.822 94.838 400.396 95.048 401.068 95.048C401.619 95.048 402.076 94.922 402.44 94.67C402.813 94.4087 403.075 94.0633 403.224 93.634H404.596C404.391 94.3713 403.98 94.9733 403.364 95.44C402.748 95.8973 401.983 96.126 401.068 96.126C400.34 96.126 399.687 95.9627 399.108 95.636C398.539 95.3093 398.091 94.8473 397.764 94.25C397.437 93.6433 397.274 92.9433 397.274 92.15C397.274 91.3567 397.433 90.6613 397.75 90.064C398.067 89.4667 398.511 89.0093 399.08 88.692C399.659 88.3653 400.321 88.202 401.068 88.202C401.796 88.202 402.44 88.3607 403 88.678C403.56 88.9953 403.989 89.434 404.288 89.994C404.596 90.5447 404.75 91.17 404.75 91.87ZM403.434 91.604C403.434 91.1187 403.327 90.7033 403.112 90.358C402.897 90.0033 402.603 89.7373 402.23 89.56C401.866 89.3733 401.46 89.28 401.012 89.28C400.368 89.28 399.817 89.4853 399.36 89.896C398.912 90.3067 398.655 90.876 398.59 91.604H403.434ZM409.148 96.126C408.56 96.126 408.032 96.028 407.566 95.832C407.099 95.6267 406.73 95.3467 406.46 94.992C406.189 94.628 406.04 94.2127 406.012 93.746H407.328C407.365 94.1287 407.542 94.4413 407.86 94.684C408.186 94.9267 408.611 95.048 409.134 95.048C409.619 95.048 410.002 94.9407 410.282 94.726C410.562 94.5113 410.702 94.2407 410.702 93.914C410.702 93.578 410.552 93.3307 410.254 93.172C409.955 93.004 409.493 92.8407 408.868 92.682C408.298 92.5327 407.832 92.3833 407.468 92.234C407.113 92.0753 406.805 91.8467 406.544 91.548C406.292 91.24 406.166 90.8387 406.166 90.344C406.166 89.952 406.282 89.5927 406.516 89.266C406.749 88.9393 407.08 88.6827 407.51 88.496C407.939 88.3 408.429 88.202 408.98 88.202C409.829 88.202 410.515 88.4167 411.038 88.846C411.56 89.2753 411.84 89.8633 411.878 90.61H410.604C410.576 90.2087 410.412 89.8867 410.114 89.644C409.824 89.4013 409.432 89.28 408.938 89.28C408.48 89.28 408.116 89.378 407.846 89.574C407.575 89.77 407.44 90.0267 407.44 90.344C407.44 90.596 407.519 90.806 407.678 90.974C407.846 91.1327 408.051 91.2633 408.294 91.366C408.546 91.4593 408.891 91.5667 409.33 91.688C409.88 91.8373 410.328 91.9867 410.674 92.136C411.019 92.276 411.313 92.4907 411.556 92.78C411.808 93.0693 411.938 93.4473 411.948 93.914C411.948 94.334 411.831 94.712 411.598 95.048C411.364 95.384 411.033 95.65 410.604 95.846C410.184 96.0327 409.698 96.126 409.148 96.126ZM415.3 89.378V93.9C415.3 94.2733 415.379 94.5393 415.538 94.698C415.697 94.8473 415.972 94.922 416.364 94.922H417.302V96H416.154C415.445 96 414.913 95.8367 414.558 95.51C414.203 95.1833 414.026 94.6467 414.026 93.9V89.378H413.032V88.328H414.026V86.396H415.3V88.328H417.302V89.378H415.3ZM425.854 98.604C424.958 97.7267 424.258 96.6113 423.754 95.258C423.259 93.9047 423.012 92.444 423.012 90.876C423.012 89.2707 423.273 87.7727 423.796 86.382C424.328 84.982 425.084 83.8293 426.064 82.924H427.394V83.05C426.349 84.03 425.56 85.2107 425.028 86.592C424.505 87.964 424.244 89.392 424.244 90.876C424.244 92.3227 424.491 93.704 424.986 95.02C425.49 96.336 426.223 97.4887 427.184 98.478V98.604H425.854ZM430.489 89.378V93.9C430.489 94.2733 430.569 94.5393 430.727 94.698C430.886 94.8473 431.161 94.922 431.553 94.922H432.491V96H431.343C430.634 96 430.102 95.8367 429.747 95.51C429.393 95.1833 429.215 94.6467 429.215 93.9V89.378H428.221V88.328H429.215V86.396H430.489V88.328H432.491V89.378H430.489ZM441.035 91.87C441.035 92.1127 441.021 92.3693 440.993 92.64H434.861C434.908 93.396 435.164 93.9887 435.631 94.418C436.107 94.838 436.681 95.048 437.353 95.048C437.904 95.048 438.361 94.922 438.725 94.67C439.098 94.4087 439.36 94.0633 439.509 93.634H440.881C440.676 94.3713 440.265 94.9733 439.649 95.44C439.033 95.8973 438.268 96.126 437.353 96.126C436.625 96.126 435.972 95.9627 435.393 95.636C434.824 95.3093 434.376 94.8473 434.049 94.25C433.722 93.6433 433.559 92.9433 433.559 92.15C433.559 91.3567 433.718 90.6613 434.035 90.064C434.352 89.4667 434.796 89.0093 435.365 88.692C435.944 88.3653 436.606 88.202 437.353 88.202C438.081 88.202 438.725 88.3607 439.285 88.678C439.845 88.9953 440.274 89.434 440.573 89.994C440.881 90.5447 441.035 91.17 441.035 91.87ZM439.719 91.604C439.719 91.1187 439.612 90.7033 439.397 90.358C439.182 90.0033 438.888 89.7373 438.515 89.56C438.151 89.3733 437.745 89.28 437.297 89.28C436.653 89.28 436.102 89.4853 435.645 89.896C435.197 90.3067 434.94 90.876 434.875 91.604H439.719ZM445.433 96.126C444.845 96.126 444.317 96.028 443.851 95.832C443.384 95.6267 443.015 95.3467 442.745 94.992C442.474 94.628 442.325 94.2127 442.297 93.746H443.613C443.65 94.1287 443.827 94.4413 444.145 94.684C444.471 94.9267 444.896 95.048 445.419 95.048C445.904 95.048 446.287 94.9407 446.567 94.726C446.847 94.5113 446.987 94.2407 446.987 93.914C446.987 93.578 446.837 93.3307 446.539 93.172C446.24 93.004 445.778 92.8407 445.153 92.682C444.583 92.5327 444.117 92.3833 443.753 92.234C443.398 92.0753 443.09 91.8467 442.829 91.548C442.577 91.24 442.451 90.8387 442.451 90.344C442.451 89.952 442.567 89.5927 442.801 89.266C443.034 88.9393 443.365 88.6827 443.795 88.496C444.224 88.3 444.714 88.202 445.265 88.202C446.114 88.202 446.8 88.4167 447.323 88.846C447.845 89.2753 448.125 89.8633 448.163 90.61H446.889C446.861 90.2087 446.697 89.8867 446.399 89.644C446.109 89.4013 445.717 89.28 445.223 89.28C444.765 89.28 444.401 89.378 444.131 89.574C443.86 89.77 443.725 90.0267 443.725 90.344C443.725 90.596 443.804 90.806 443.963 90.974C444.131 91.1327 444.336 91.2633 444.579 91.366C444.831 91.4593 445.176 91.5667 445.615 91.688C446.165 91.8373 446.613 91.9867 446.959 92.136C447.304 92.276 447.598 92.4907 447.841 92.78C448.093 93.0693 448.223 93.4473 448.233 93.914C448.233 94.334 448.116 94.712 447.883 95.048C447.649 95.384 447.318 95.65 446.889 95.846C446.469 96.0327 445.983 96.126 445.433 96.126ZM451.585 89.378V93.9C451.585 94.2733 451.664 94.5393 451.823 94.698C451.982 94.8473 452.257 94.922 452.649 94.922H453.587V96H452.439C451.73 96 451.198 95.8367 450.843 95.51C450.488 95.1833 450.311 94.6467 450.311 93.9V89.378H449.317V88.328H450.311V86.396H451.585V88.328H453.587V89.378H451.585ZM462.131 91.87C462.131 92.1127 462.117 92.3693 462.089 92.64H455.957C456.003 93.396 456.26 93.9887 456.727 94.418C457.203 94.838 457.777 95.048 458.449 95.048C458.999 95.048 459.457 94.922 459.821 94.67C460.194 94.4087 460.455 94.0633 460.605 93.634H461.977C461.771 94.3713 461.361 94.9733 460.745 95.44C460.129 95.8973 459.363 96.126 458.449 96.126C457.721 96.126 457.067 95.9627 456.489 95.636C455.919 95.3093 455.471 94.8473 455.145 94.25C454.818 93.6433 454.655 92.9433 454.655 92.15C454.655 91.3567 454.813 90.6613 455.131 90.064C455.448 89.4667 455.891 89.0093 456.461 88.692C457.039 88.3653 457.702 88.202 458.449 88.202C459.177 88.202 459.821 88.3607 460.381 88.678C460.941 88.9953 461.37 89.434 461.669 89.994C461.977 90.5447 462.131 91.17 462.131 91.87ZM460.815 91.604C460.815 91.1187 460.707 90.7033 460.493 90.358C460.278 90.0033 459.984 89.7373 459.611 89.56C459.247 89.3733 458.841 89.28 458.393 89.28C457.749 89.28 457.198 89.4853 456.741 89.896C456.293 90.3067 456.036 90.876 455.971 91.604H460.815ZM466.528 96.126C465.94 96.126 465.413 96.028 464.946 95.832C464.48 95.6267 464.111 95.3467 463.84 94.992C463.57 94.628 463.42 94.2127 463.392 93.746H464.708C464.746 94.1287 464.923 94.4413 465.24 94.684C465.567 94.9267 465.992 95.048 466.514 95.048C467 95.048 467.382 94.9407 467.662 94.726C467.942 94.5113 468.082 94.2407 468.082 93.914C468.082 93.578 467.933 93.3307 467.634 93.172C467.336 93.004 466.874 92.8407 466.248 92.682C465.679 92.5327 465.212 92.3833 464.848 92.234C464.494 92.0753 464.186 91.8467 463.924 91.548C463.672 91.24 463.546 90.8387 463.546 90.344C463.546 89.952 463.663 89.5927 463.896 89.266C464.13 88.9393 464.461 88.6827 464.89 88.496C465.32 88.3 465.81 88.202 466.36 88.202C467.21 88.202 467.896 88.4167 468.418 88.846C468.941 89.2753 469.221 89.8633 469.258 90.61H467.984C467.956 90.2087 467.793 89.8867 467.494 89.644C467.205 89.4013 466.813 89.28 466.318 89.28C465.861 89.28 465.497 89.378 465.226 89.574C464.956 89.77 464.82 90.0267 464.82 90.344C464.82 90.596 464.9 90.806 465.058 90.974C465.226 91.1327 465.432 91.2633 465.674 91.366C465.926 91.4593 466.272 91.5667 466.71 91.688C467.261 91.8373 467.709 91.9867 468.054 92.136C468.4 92.276 468.694 92.4907 468.936 92.78C469.188 93.0693 469.319 93.4473 469.328 93.914C469.328 94.334 469.212 94.712 468.978 95.048C468.745 95.384 468.414 95.65 467.984 95.846C467.564 96.0327 467.079 96.126 466.528 96.126ZM474.383 92.136C474.383 91.352 474.542 90.666 474.859 90.078C475.177 89.4807 475.611 89.0187 476.161 88.692C476.721 88.3653 477.347 88.202 478.037 88.202C478.635 88.202 479.19 88.342 479.703 88.622C480.217 88.8927 480.609 89.252 480.879 89.7V85.64H482.167V96H480.879V94.558C480.627 95.0153 480.254 95.3933 479.759 95.692C479.265 95.9813 478.686 96.126 478.023 96.126C477.342 96.126 476.721 95.958 476.161 95.622C475.611 95.286 475.177 94.8147 474.859 94.208C474.542 93.6013 474.383 92.9107 474.383 92.136ZM480.879 92.15C480.879 91.5713 480.763 91.0673 480.529 90.638C480.296 90.2087 479.979 89.882 479.577 89.658C479.185 89.4247 478.751 89.308 478.275 89.308C477.799 89.308 477.365 89.42 476.973 89.644C476.581 89.868 476.269 90.1947 476.035 90.624C475.802 91.0533 475.685 91.5573 475.685 92.136C475.685 92.724 475.802 93.2373 476.035 93.676C476.269 94.1053 476.581 94.4367 476.973 94.67C477.365 94.894 477.799 95.006 478.275 95.006C478.751 95.006 479.185 94.894 479.577 94.67C479.979 94.4367 480.296 94.1053 480.529 93.676C480.763 93.2373 480.879 92.7287 480.879 92.15ZM491.32 91.87C491.32 92.1127 491.306 92.3693 491.278 92.64H485.146C485.193 93.396 485.45 93.9887 485.916 94.418C486.392 94.838 486.966 95.048 487.638 95.048C488.189 95.048 488.646 94.922 489.01 94.67C489.384 94.4087 489.645 94.0633 489.794 93.634H491.166C490.961 94.3713 490.55 94.9733 489.934 95.44C489.318 95.8973 488.553 96.126 487.638 96.126C486.91 96.126 486.257 95.9627 485.678 95.636C485.109 95.3093 484.661 94.8473 484.334 94.25C484.008 93.6433 483.844 92.9433 483.844 92.15C483.844 91.3567 484.003 90.6613 484.32 90.064C484.638 89.4667 485.081 89.0093 485.65 88.692C486.229 88.3653 486.892 88.202 487.638 88.202C488.366 88.202 489.01 88.3607 489.57 88.678C490.13 88.9953 490.56 89.434 490.858 89.994C491.166 90.5447 491.32 91.17 491.32 91.87ZM490.004 91.604C490.004 91.1187 489.897 90.7033 489.682 90.358C489.468 90.0033 489.174 89.7373 488.8 89.56C488.436 89.3733 488.03 89.28 487.582 89.28C486.938 89.28 486.388 89.4853 485.93 89.896C485.482 90.3067 485.226 90.876 485.16 91.604H490.004ZM503.538 88.328V96H502.264V94.866C502.022 95.258 501.681 95.566 501.242 95.79C500.813 96.0047 500.337 96.112 499.814 96.112C499.217 96.112 498.68 95.9907 498.204 95.748C497.728 95.496 497.35 95.1227 497.07 94.628C496.8 94.1333 496.664 93.5313 496.664 92.822V88.328H497.924V92.654C497.924 93.41 498.116 93.9933 498.498 94.404C498.881 94.8053 499.404 95.006 500.066 95.006C500.748 95.006 501.284 94.796 501.676 94.376C502.068 93.956 502.264 93.3447 502.264 92.542V88.328H503.538ZM509.427 88.188C510.361 88.188 511.117 88.4727 511.695 89.042C512.274 89.602 512.563 90.414 512.563 91.478V96H511.303V91.66C511.303 90.8947 511.112 90.3113 510.729 89.91C510.347 89.4993 509.824 89.294 509.161 89.294C508.489 89.294 507.953 89.504 507.551 89.924C507.159 90.344 506.963 90.9553 506.963 91.758V96H505.689V88.328H506.963V89.42C507.215 89.028 507.556 88.7247 507.985 88.51C508.424 88.2953 508.905 88.188 509.427 88.188ZM515.302 87.082C515.06 87.082 514.854 86.998 514.686 86.83C514.518 86.662 514.434 86.4567 514.434 86.214C514.434 85.9713 514.518 85.766 514.686 85.598C514.854 85.43 515.06 85.346 515.302 85.346C515.536 85.346 515.732 85.43 515.89 85.598C516.058 85.766 516.142 85.9713 516.142 86.214C516.142 86.4567 516.058 86.662 515.89 86.83C515.732 86.998 515.536 87.082 515.302 87.082ZM515.918 88.328V96H514.644V88.328H515.918ZM517.614 92.136C517.614 91.352 517.772 90.666 518.09 90.078C518.407 89.4807 518.841 89.0187 519.392 88.692C519.952 88.3653 520.577 88.202 521.268 88.202C521.865 88.202 522.42 88.342 522.934 88.622C523.447 88.8927 523.839 89.252 524.11 89.7V85.64H525.398V96H524.11V94.558C523.858 95.0153 523.484 95.3933 522.99 95.692C522.495 95.9813 521.916 96.126 521.254 96.126C520.572 96.126 519.952 95.958 519.392 95.622C518.841 95.286 518.407 94.8147 518.09 94.208C517.772 93.6013 517.614 92.9107 517.614 92.136ZM524.11 92.15C524.11 91.5713 523.993 91.0673 523.76 90.638C523.526 90.2087 523.209 89.882 522.808 89.658C522.416 89.4247 521.982 89.308 521.506 89.308C521.03 89.308 520.596 89.42 520.204 89.644C519.812 89.868 519.499 90.1947 519.266 90.624C519.032 91.0533 518.916 91.5573 518.916 92.136C518.916 92.724 519.032 93.2373 519.266 93.676C519.499 94.1053 519.812 94.4367 520.204 94.67C520.596 94.894 521.03 95.006 521.506 95.006C521.982 95.006 522.416 94.894 522.808 94.67C523.209 94.4367 523.526 94.1053 523.76 93.676C523.993 93.2373 524.11 92.7287 524.11 92.15ZM527.075 92.136C527.075 91.352 527.233 90.666 527.551 90.078C527.868 89.4807 528.302 89.0187 528.853 88.692C529.413 88.3653 530.033 88.202 530.715 88.202C531.387 88.202 531.97 88.3467 532.465 88.636C532.959 88.9253 533.328 89.2893 533.571 89.728V88.328H534.859V96H533.571V94.572C533.319 95.02 532.941 95.3933 532.437 95.692C531.942 95.9813 531.363 96.126 530.701 96.126C530.019 96.126 529.403 95.958 528.853 95.622C528.302 95.286 527.868 94.8147 527.551 94.208C527.233 93.6013 527.075 92.9107 527.075 92.136ZM533.571 92.15C533.571 91.5713 533.454 91.0673 533.221 90.638C532.987 90.2087 532.67 89.882 532.269 89.658C531.877 89.4247 531.443 89.308 530.967 89.308C530.491 89.308 530.057 89.42 529.665 89.644C529.273 89.868 528.96 90.1947 528.727 90.624C528.493 91.0533 528.377 91.5573 528.377 92.136C528.377 92.724 528.493 93.2373 528.727 93.676C528.96 94.1053 529.273 94.4367 529.665 94.67C530.057 94.894 530.491 95.006 530.967 95.006C531.443 95.006 531.877 94.894 532.269 94.67C532.67 94.4367 532.987 94.1053 533.221 93.676C533.454 93.2373 533.571 92.7287 533.571 92.15ZM536.536 92.136C536.536 91.352 536.694 90.666 537.012 90.078C537.329 89.4807 537.763 89.0187 538.314 88.692C538.874 88.3653 539.499 88.202 540.19 88.202C540.787 88.202 541.342 88.342 541.856 88.622C542.369 88.8927 542.761 89.252 543.032 89.7V85.64H544.32V96H543.032V94.558C542.78 95.0153 542.406 95.3933 541.912 95.692C541.417 95.9813 540.838 96.126 540.176 96.126C539.494 96.126 538.874 95.958 538.314 95.622C537.763 95.286 537.329 94.8147 537.012 94.208C536.694 93.6013 536.536 92.9107 536.536 92.136ZM543.032 92.15C543.032 91.5713 542.915 91.0673 542.682 90.638C542.448 90.2087 542.131 89.882 541.73 89.658C541.338 89.4247 540.904 89.308 540.428 89.308C539.952 89.308 539.518 89.42 539.126 89.644C538.734 89.868 538.421 90.1947 538.188 90.624C537.954 91.0533 537.838 91.5573 537.838 92.136C537.838 92.724 537.954 93.2373 538.188 93.676C538.421 94.1053 538.734 94.4367 539.126 94.67C539.518 94.894 539.952 95.006 540.428 95.006C540.904 95.006 541.338 94.894 541.73 94.67C542.131 94.4367 542.448 94.1053 542.682 93.676C542.915 93.2373 543.032 92.7287 543.032 92.15ZM553.473 91.87C553.473 92.1127 553.459 92.3693 553.431 92.64H547.299C547.345 93.396 547.602 93.9887 548.069 94.418C548.545 94.838 549.119 95.048 549.791 95.048C550.341 95.048 550.799 94.922 551.163 94.67C551.536 94.4087 551.797 94.0633 551.947 93.634H553.319C553.113 94.3713 552.703 94.9733 552.087 95.44C551.471 95.8973 550.705 96.126 549.791 96.126C549.063 96.126 548.409 95.9627 547.831 95.636C547.261 95.3093 546.813 94.8473 546.487 94.25C546.16 93.6433 545.997 92.9433 545.997 92.15C545.997 91.3567 546.155 90.6613 546.473 90.064C546.79 89.4667 547.233 89.0093 547.803 88.692C548.381 88.3653 549.044 88.202 549.791 88.202C550.519 88.202 551.163 88.3607 551.723 88.678C552.283 88.9953 552.712 89.434 553.011 89.994C553.319 90.5447 553.473 91.17 553.473 91.87ZM552.157 91.604C552.157 91.1187 552.049 90.7033 551.835 90.358C551.62 90.0033 551.326 89.7373 550.953 89.56C550.589 89.3733 550.183 89.28 549.735 89.28C549.091 89.28 548.54 89.4853 548.083 89.896C547.635 90.3067 547.378 90.876 547.313 91.604H552.157ZM554.748 98.604V98.478C555.71 97.4887 556.438 96.336 556.932 95.02C557.436 93.704 557.688 92.3227 557.688 90.876C557.688 89.392 557.422 87.964 556.89 86.592C556.368 85.2107 555.584 84.03 554.538 83.05V82.924H555.868C556.848 83.8293 557.6 84.982 558.122 86.382C558.654 87.7727 558.92 89.2707 558.92 90.876C558.92 92.444 558.668 93.9047 558.164 95.258C557.67 96.6113 556.974 97.7267 556.078 98.604H554.748ZM561.918 96.084C561.675 96.084 561.47 96 561.302 95.832C561.134 95.664 561.05 95.4587 561.05 95.216C561.05 94.9733 561.134 94.768 561.302 94.6C561.47 94.432 561.675 94.348 561.918 94.348C562.151 94.348 562.347 94.432 562.506 94.6C562.674 94.768 562.758 94.9733 562.758 95.216C562.758 95.4587 562.674 95.664 562.506 95.832C562.347 96 562.151 96.084 561.918 96.084Z" fill="#A3A5AE"/>
<defs>
<filter id="filter0_ddi" x="5" y="10" width="820" height="125" filterUnits="userSpaceOnUse" color-interpolation-filters="sRGB">
<feFlood flood-opacity="0" result="BackgroundImageFix"/>
<feColorMatrix in="SourceAlpha" type="matrix" values="0 0 0 0 0 0 0 0 0 0 0 0 0 0 0 0 0 0 127 0"/>
<feMorphology radius="10" operator="erode" in="SourceAlpha" result="effect1_dropShadow"/>
<feOffset dy="15"/>
<feGaussianBlur stdDeviation="10"/>
<feColorMatrix type="matrix" values="0 0 0 0 1 0 0 0 0 1 0 0 0 0 1 0 0 0 0.5 0"/>
<feBlend mode="normal" in2="BackgroundImageFix" result="effect1_dropShadow"/>
<feColorMatrix in="SourceAlpha" type="matrix" values="0 0 0 0 0 0 0 0 0 0 0 0 0 0 0 0 0 0 127 0"/>
<feMorphology radius="10" operator="erode" in="SourceAlpha" result="effect2_dropShadow"/>
<feOffset dy="15"/>
<feGaussianBlur stdDeviation="10"/>
<feColorMatrix type="matrix" values="0 0 0 0 0 0 0 0 0 0 0 0 0 0 0 0 0 0 0.25 0"/>
<feBlend mode="normal" in2="effect1_dropShadow" result="effect2_dropShadow"/>
<feBlend mode="normal" in="SourceGraphic" in2="effect2_dropShadow" result="shape"/>
<feColorMatrix in="SourceAlpha" type="matrix" values="0 0 0 0 0 0 0 0 0 0 0 0 0 0 0 0 0 0 127 0" result="hardAlpha"/>
<feOffset dy="3"/>
<feComposite in2="hardAlpha" operator="arithmetic" k2="-1" k3="1"/>
<feColorMatrix type="matrix" values="0 0 0 0 0.271 0 0 0 0 0.829 0 0 0 0 0.829 0 0 0 1 0"/>
<feBlend mode="normal" in2="shape" result="effect3_innerShadow"/>
</filter>
<clipPath id="clip0">
<rect width="64" height="64" fill="white" transform="translate(30 28)"/>
</clipPath>
</defs>
</svg>
